<?xml version="1.0" encoding="UTF-8"?>
<svg id="Layer_2" data-name="Layer 2" xmlns="http://www.w3.org/2000/svg" viewBox="0 0 565.66 95.76">
  <defs>
    <style>
      .cls-1 {
        fill: #0a0a0a;
      }
    </style>
  </defs>
  <g id="Layer_1-2" data-name="Layer 1">
    <g>
      <path class="cls-1" d="M539.6,0h-190.3c-14.37,0-26.06,11.69-26.06,26.06v43.63c0,14.37,11.69,26.06,26.06,26.06h190.3c14.37,0,26.06-11.69,26.06-26.06V26.06c0-14.37-11.69-26.06-26.06-26.06ZM560.66,69.69c0,11.61-9.45,21.06-21.06,21.06h-190.3c-11.61,0-21.06-9.45-21.06-21.06V26.06c0-11.61,9.45-21.06,21.06-21.06h190.3c11.61,0,21.06,9.45,21.06,21.06v43.63Z"/>
      <path class="cls-1" d="M144.25,15.84h-11.31v13.09l-.06,9.64v20.72c0,10.64,2.84,15.98,14.82,15.98,2.67,0,6.63-.39,8.97-1.5v-9.52c-1.39,1-4.12,1.39-6.13,1.39-4.96,0-6.29-2.84-6.29-7.35v-19.77h12.42v-9.58h-12.42v-13.09Z"/>
      <path class="cls-1" d="M88.78,27.88c-7.18,0-14.2,2.17-19.22,7.24l5.96,5.9c3.01-2.84,7.3-4.73,12.03-4.73,6.02,0,10.36,2.9,10.36,8.47v1.23h-2.84c-11.25,0-28.41,1.06-28.41,15.76,0,8.91,8.08,13.53,16.49,13.53,6.02,0,11.31-2.28,14.48-7.35h.28v6.29h10.19v-26.01c0-6.4,0-20.33-19.33-20.33ZM85.88,66.81c-3.68,0-7.91-1.84-7.91-5.96,0-6.46,10.69-6.96,16.93-6.96h2.34l.06,2.56c0,6.29-3.68,10.36-11.42,10.36Z"/>
      <rect class="cls-1" x="114.87" y="2.92" width="11.31" height="71.18"/>
      <path class="cls-1" d="M28.96,7.49L0,74.21h13.26l6.07-15.32h28.91l6.18,15.26h13.53L39.21,7.49h-10.25ZM23.34,48.76l10.42-27.12,10.3,27.12h-20.72Z"/>
      <path class="cls-1" d="M280.3,46.7c-4.74-1.04-8.72-1.91-8.72-5.17s3.56-4.79,6.57-4.79c3.84,0,6.68,1.62,8.86,4.62l7.52-6.79c-3.68-4.96-10.08-6.85-16.1-6.85-9.13,0-18.16,4.51-18.16,14.59s8.11,11.73,14.98,13.23c5.04,1.1,9.41,2.05,9.41,5.99,0,3.56-4.23,5.18-7.52,5.18-4.79,0-7.85-2.39-10.75-5.57l-7.52,7.07c4.62,5.18,10.64,6.96,17.6,6.96,9.24,0,19.49-3.79,19.49-14.54s-8.67-12.39-15.67-13.93Z"/>
      <path class="cls-1" d="M235.82,27.82c-13.65,0-24.56,9.52-24.56,23.73.06,14.2,10.97,23.73,24.62,23.73,7.13-.06,13.81-2.56,19.1-9.08l-8.08-6.13c-2.84,3.51-6.52,6.13-12.14,6.13-6.29,0-11.36-4.07-12.14-10.75l34.42.06v-3.12c-.06-15.71-8.58-24.56-21.22-24.56ZM222.62,46.92c.89-6.52,5.01-10.75,11.7-10.75,7.02,0,11.36,4.18,11.47,10.75h-23.17Z"/>
      <path class="cls-1" d="M183.13,27.76c-13.65,0-24.56,9.52-24.56,23.73.06,14.2,10.97,23.73,24.62,23.73s24.56-9.52,24.56-23.73c-.06-14.2-10.97-23.73-24.62-23.73ZM183.13,65.08c-8.24,0-13.26-6.52-13.31-13.53,0-7.07,4.96-13.59,13.26-13.59,8.3-.06,13.31,6.46,13.31,13.53s-4.96,13.59-13.26,13.59Z"/>
      <path class="cls-1" d="M519.42,39.3c-4.35,0-8.83,1.66-11.11,4.56l1.93-14.08h21.75v-6.83h-28.24l-3.8,27.89h7.8c1.45-3.18,5.04-5.18,9.32-5.18,6.42,0,10.56,4,10.56,10.36,0,6.01-4.07,10.22-10.08,10.22-5.32,0-9.87-2.83-10.63-7.66l-7.66.48c.69,8.28,8.28,14.01,18.43,14.01s17.67-7.04,17.67-17.12-6.63-16.64-15.95-16.64Z"/>
      <path class="cls-1" d="M475.11,52.42c7.18-4.42,12.98-9.04,12.98-16.29,0-8.22-6.9-14.29-16.29-14.29-10.15,0-16.91,6.83-18.02,16.09l7.73.48c1.17-6.28,4.83-9.73,10.28-9.73,5.04,0,8.56,3.04,8.56,7.39,0,3.59-3.59,6.97-8.7,10.22-8.9,5.38-18.64,11.11-18.64,25.68h35.35v-6.83h-26.17c.28-4.56,9.39-10.77,12.91-12.7Z"/>
      <path class="cls-1" d="M420.83,21.83c-14.22,0-22.85,9.73-22.85,25.68s8.63,25.54,22.85,25.54,22.92-9.73,22.92-25.54-8.56-25.68-22.92-25.68ZM420.83,66.22c-9.39,0-15.05-7.04-15.05-18.71s5.66-18.85,15.05-18.85,15.19,7.11,15.19,18.85-5.66,18.71-15.19,18.71Z"/>
      <path class="cls-1" d="M375.46,52.42c7.18-4.42,12.98-9.04,12.98-16.29,0-8.22-6.91-14.29-16.29-14.29-10.15,0-16.91,6.83-18.02,16.09l7.73.48c1.18-6.28,4.84-9.73,10.29-9.73,5.04,0,8.56,3.04,8.56,7.39,0,3.59-3.59,6.97-8.7,10.22-8.91,5.38-18.64,11.11-18.64,25.68h35.35v-6.83h-26.17c.28-4.56,9.39-10.77,12.91-12.7Z"/>
    </g>
  </g>
</svg>