<?xml version="1.0" encoding="UTF-8"?>
<svg width="983px" height="203px" viewBox="0 0 983 203" version="1.1" xmlns="http://www.w3.org/2000/svg" xmlns:xlink="http://www.w3.org/1999/xlink">
    <title>EU INC 3</title>
    <g id="Page-1" stroke="none" stroke-width="1" fill="none" fill-rule="evenodd">
        <g id="EU-INC-3" transform="translate(0.8455, 0.6)" fill-rule="nonzero">
            <polygon id="Path" fill="#FFFFFF" points="28.672 113.152 274.944 113.152 274.944 87.296 28.672 87.296 28.672 28.928 292.864 28.928 292.864 3.072 0 3.072 0 198.4 292.864 198.4 292.864 172.544 28.672 172.544"></polygon>
            <path d="M359.552,142.848 L359.552,3.072 L330.88,3.072 L330.88,145.152 C330.88,178.432 354.944,201.472 391.552,201.472 C428.16,201.472 452.224,178.432 452.224,145.152 L452.224,3.072 L423.552,3.072 L423.552,142.848 C423.552,163.072 411.264,175.616 391.552,175.616 C371.84,175.616 359.552,163.072 359.552,142.848 Z" id="Path" fill="#FFFFFF"></path>
            <polygon id="Path" fill="#999999" points="545.365 172.544 545.365 198.4 664.149 198.4 664.149 172.544 619.093 172.544 619.093 28.928 664.149 28.928 664.149 3.072 545.365 3.072 545.365 28.928 590.421 28.928 590.421 172.544"></polygon>
            <polygon id="Path" fill="#999999" points="725.973 198.4 725.973 46.848 730.325 46.848 783.317 198.4 826.837 198.4 826.837 3.072 799.957 3.072 799.957 154.624 795.605 154.624 742.613 3.072 699.093 3.072 699.093 198.4"></polygon>
            <path d="M982.101,72.192 L982.101,56.32 C982.101,23.04 957.525,0 920.917,0 C884.309,0 859.733,23.04 859.733,56.32 L859.733,145.152 C859.733,178.432 884.309,201.472 920.917,201.472 C957.525,201.472 982.101,178.432 982.101,145.152 L982.101,129.024 L953.429,129.024 L953.429,142.848 C953.429,163.072 940.629,175.616 920.917,175.616 C901.205,175.616 888.405,163.072 888.405,142.848 L888.405,58.624 C888.405,38.4 901.205,25.856 920.917,25.856 C940.629,25.856 953.429,38.4 953.429,58.624 L953.429,72.192 L982.101,72.192 Z" id="Path" fill="#999999"></path>
        </g>
    </g>
</svg>