<?xml version="1.0" encoding="UTF-8"?>
<svg id="Layer_1" data-name="Layer 1" xmlns="http://www.w3.org/2000/svg" xmlns:xlink="http://www.w3.org/1999/xlink" viewBox="0 0 411 93.61">
  <defs>
    <style>
      .cls-1 {
        fill: url(#linear-gradient);
        stroke-width: 0px;
      }
    </style>
    <linearGradient id="linear-gradient" x1="81.19" y1="-541.48" x2="331.59" y2="-291.08" gradientTransform="translate(0 -366.68) scale(1 -1)" gradientUnits="userSpaceOnUse">
      <stop offset="0" stop-color="#ee3424"/>
      <stop offset="1" stop-color="#fbbda4"/>
    </linearGradient>
  </defs>
  <path class="cls-1" d="M0,13.96C0,9.61,1.67,6.2,5.02,3.73,8.37,1.25,13.08.01,19.16.01v79.65c0,4.43-1.68,7.87-5.02,10.3-3.35,2.43-8.06,3.65-14.14,3.65V13.96ZM74.04,93.6c7.73,0,14.6-1.3,20.59-3.91,6-2.61,10.66-6.26,14.01-10.95,3.34-4.69,5.02-10.04,5.02-16.03v-9.65c0-2.61-.83-4.71-2.48-6.32s-3.78-2.41-6.39-2.41h-31.68c0,4.43,1.1,8.04,3.32,10.82,2.21,2.78,5.1,4.17,8.67,4.17h9.52v3c0,4.35-1.91,7.91-5.74,10.69s-8.78,4.17-14.86,4.17-11.5-1.8-15.45-5.41c-3.96-3.6-5.93-8.28-5.93-14.01v-22.16c0-5.65,1.91-10.25,5.74-13.82,3.82-3.56,8.78-5.35,14.86-5.35s11.21,1.33,15.12,3.98c3.91,2.65,5.87,6.06,5.87,10.23,0,2.52-.13,4.7-.39,6.52,2.17.61,4.39.91,6.65.91,3.91,0,6.99-.98,9.25-2.93s3.39-4.63,3.39-8.02c0-5.3-1.67-9.99-5.01-14.08-3.35-4.08-8.06-7.28-14.14-9.58C87.89,1.16,80.99,0,73.25,0s-14.62,1.5-20.66,4.5c-6.04,3-10.74,7.19-14.08,12.58-3.35,5.39-5.02,11.56-5.02,18.51v22.16c0,6.96,1.72,13.15,5.15,18.58,3.43,5.43,8.23,9.67,14.4,12.71,6.18,3.03,13.18,4.55,21,4.55ZM125.4,93.6c6.17,0,10.86-1.17,14.08-3.52,3.21-2.34,4.82-5.78,4.82-10.3v-45.75l-5.87-9.78,1.44-1.17,44.58,70.52c2.52,0,4.91-.59,7.17-1.76s4.06-2.74,5.41-4.69c1.35-1.96,2.02-4.02,2.02-6.19V13.83c0-4.52-1.61-7.95-4.82-10.3C191.01,1.18,186.32.01,180.15.01v55.27l5.87,9.78-1.44,1.17L142.73.01c-5.3,0-9.51,1.35-12.65,4.04-3.13,2.69-4.69,6.34-4.69,10.95v78.6h0ZM215.99,93.6c6.08,0,10.8-1.22,14.14-3.65,3.35-2.43,5.02-5.87,5.02-10.3V0c-6.09,0-10.8,1.24-14.14,3.72-3.35,2.48-5.02,5.89-5.02,10.23v79.65ZM279.61,93.6c6.26,0,11.01-1.17,14.27-3.52,3.26-2.34,4.89-5.78,4.89-10.3V17.73h16.29c9.99,0,14.99-5.52,14.99-16.56h-66.87c-9.99,0-14.99,5.52-14.99,16.56h31.42v75.87h0ZM340.48,83.7c0,2.52.93,4.61,2.8,6.26s4.15,2.48,6.84,2.48h60.88c0-5.74-.96-9.91-2.87-12.51-1.91-2.61-4.95-3.91-9.13-3.91h-39.36v-21.38h22.03c4.26,0,7.34-1.3,9.25-3.91s2.87-6.78,2.87-12.51h-34.15v-20.6h36.63c4.26,0,7.34-1.3,9.26-3.91,1.91-2.61,2.86-6.78,2.86-12.51h-58.27c-2.69,0-4.97.85-6.84,2.54s-2.8,3.76-2.8,6.19v73.77Z"/>
</svg>