<?xml version="1.0" encoding="UTF-8"?>
<svg id="Layer_1" data-name="Layer 1" xmlns="http://www.w3.org/2000/svg" viewBox="0 0 1311.46 226.39">
  <defs>
    <style>
      .cls-1 {
        fill: #ffffff;
      }

      .cls-2 {
        isolation: isolate;
      }
    </style>
  </defs>
  <g class="cls-2">
    <g class="cls-2">
      <path class="cls-1" d="m176.81,76.72c0,49.11-33.42,92.69-67.62,92.69-9.84,0-18.39-3.61-23.58-11.08-12.69,7.7-28.24,11.08-39.64,11.08-18.39,0-34.98-8.19-34.98-32.98v-67.17c0-6.02-4.83-10.83-11-11.8v-1.45l45.88-6.02c.27,0-.5,0-.24,0,2.57,0,4.36,1.69,4.36,4.09v78.97c0,12.28-13.35,15.41-13.35,24.32,0,5.06,7.44,8.43,17.45,8.43,14.88,0,26.95-6.5,30.54-8.43-3.59-5.54-5.65-12.76-5.65-21.91v-66.21c0-6.02-4.39-10.83-10-11.8v-1.45l41.71-6.02h2.89c2.59,0,4.4,1.69,4.4,4.09v78.49c0,12.28-13.47,15.41-13.47,24.32,0,5.3,5.7,9.15,15.03,8.67,5.18-.48,11.4-3.13,15.54-6.02,7-4.57,13.47-11.08,19.43-18.78,9.59-12.76,16.06-28.41,18.91-44.54,1.55-7.94.78-13.48-6.22-13.48-4.4,0-7,1.69-11.66,1.69-11.14,0-20.21-8.43-20.21-18.54s9.07-18.78,20.21-18.78c7.77,0,14.77,4.33,17.88,10.59,3.11,5.78,3.37,13.24,3.37,19.02Z"/>
      <path class="cls-1" d="m303.93,140.78l1.3.72c-10.4,17.33-29.12,28.65-50.18,28.65-32.76,0-59.28-27.21-59.28-60.91s26.52-60.91,59.28-60.91c28.34,0,49.4,20.46,55.12,47.67h-75.4c0,31.78,18.98,57.54,42.38,57.54,10.14,0,19.5-4.82,26.78-12.76Zm-69.16-46.78h40.04c-1.56-29.85-8.32-44.78-19.76-44.78-17.94,0-20.02,36.59-20.28,44.78Z"/>
      <path class="cls-1" d="m454,162.52v1.45l-45.88,6.03c-.27,0,.59,0,.59,0,0,0-4.42-2.08-4.71-4.49v-5.78c-9.33,7.22-21.03,11.08-32.99,9.87-26.26-2.41-45.24-27.45-45.24-57.54,0-38.04,28.86-64.04,55.64-64.04,8.84,0,17.68,2.41,22.59,5.06V19.37c.29-5.78-4.38-10.83-11-11.8v-1.45l45.1-6.13h.34c2.68,0,4.56,1.93,4.56,4.34v146.37c0,5.79,4.83,10.85,11,11.82Zm-50-4.72V54.76c-2.86-1.2-5.72-1.93-8.58-1.93-17.16,0-31.2,23.83-31.2,53.45s14.04,53.45,31.2,53.45c2.86,0,5.72-.72,8.58-1.93Z"/>
      <path class="cls-1" d="m596,167.56v1.44h-61v-1.44c6.17-.96,11-6.02,11-11.8v-71.04c0-12.54,13.8-15.73,13.8-24.83,0-5.41-7.43-8.6-18.05-8.6-11.68,0-21.5,3.69-25.75,5.65v98.82c0,5.78,4.83,10.83,11,11.8v1.44h-60v-1.44c6.17-.96,11-6.01,11-11.78v-85.56c0-6.01-4.83-10.81-11-11.78v-1.44l45.88-6.01c.27,0-.53,0-.27,0,2.59,0,4.4,1.69,4.4,4.09v.96c23.79-11.07,68-15.17,68,25.52v74.18c0,5.78,4.83,10.83,11,11.8Z"/>
      <path class="cls-1" d="m719.42,140.78l1.3.72c-10.4,17.33-29.12,28.65-50.18,28.65-32.76,0-59.28-27.21-59.28-60.91s26.52-60.91,59.28-60.91c28.34,0,49.4,20.46,55.12,47.67h-75.4c0,31.78,18.98,57.54,42.38,57.54,10.14,0,19.5-4.82,26.78-12.76Zm-69.16-46.78h40.04c-1.56-29.85-8.32-44.78-19.76-44.78-17.94,0-20.02,36.59-20.28,44.78Z"/>
      <path class="cls-1" d="m792.44,169.45c-26.52,0-48.88-13.48-48.88-31.3,0-10.11,9.1-18.54,20.02-18.54s20.28,8.43,20.28,18.54c0,13-12.22,14.93-12.22,21.18,0,3.61,4.42,7.22,9.62,7.94,3.38.48,5.98.72,11.18.72,9.36,0,16.9-6.98,16.9-15.65,0-24.07-65.78-42.85-65.78-76.56,0-19.26,24.7-28.17,43.94-28.17s26.52,6.74,37.7,6.02c2.86-.24,5.2-1.44,6.5-2.65h1.3v39h-1.3c-3.12-14.44-10.66-37.31-35.88-40.44-9.1-1.2-16.38,3.37-17.16,13.48-2.08,25.52,59.8,39.72,62.92,72.7,1.56,19.02-22.1,33.7-49.14,33.7Z"/>
      <path class="cls-1" d="m986,162.52v1.45l-45.88,6.03c-.27,0,.57,0,.57,0,0,0-4.42-2.08-4.69-4.49v-5.78c-9.35,7.22-21.05,11.08-33.01,9.87-26.26-2.41-45.24-27.45-45.24-57.54,0-38.04,28.86-64.04,55.64-64.04,8.84,0,17.68,2.41,22.61,5.06V19.37c.27-5.78-4.41-10.83-11-11.8v-1.45l45.07-6.13h.36c2.68,0,4.56,1.93,4.56,4.34v146.37c0,5.79,4.83,10.85,11,11.82Zm-50-4.72V54.76c-2.86-1.2-5.72-1.93-8.58-1.93-17.16,0-31.2,23.83-31.2,53.45s14.04,53.45,31.2,53.45c2.86,0,5.72-.72,8.58-1.93Z"/>
      <path class="cls-1" d="m1119,162.54v1.44l-46.15,6.02s1.05,0,.8,0c-2.58,0-4.65-1.93-4.65-4.33v-6.02c-6.2,4.33-16.79,10.35-31.25,10.35-16.27,0-30.74-8.67-34.61-22.15-4.13-13.72,4.13-27.93,18.34-36.11,22.21-13,82.65-21.19,82.65-39.72,0-6.5-6.97-13.48-15.24-17.33-10.07-4.57-22.47-6.26-35.13-4.33-9.3,1.2-14.72,4.09-14.72,9.15,0,8.91,11.11,12.04,11.11,23.11,0,10.35-9.04,18.54-20.15,18.54s-19.89-8.19-19.89-18.54c0-18.78,25.05-31.3,43.39-33.71,13.43-1.93,26.34-.24,36.16,4.58,9.81,4.57,18.34,12.76,18.34,24.56v72.71c0,5.78,4.83,10.83,11,11.8Zm-50-65.4v-1.2c-10.66,4.57-26.52,12.28-28.08,32.5-.78,11.56,2.34,20.46,7.8,26,5.72,5.78,14.56,7.22,20.28,3.37v-60.67Z"/>
      <path class="cls-1" d="m1269,50v1.44c-14.29,1.69-29.36,14.21-35.6,26l-55.08,106.89c-7.53,14.93-1.82,32.02,12.47,38.52,3.38,1.44,7.28,2.17,11.17,2.17,2.86,0,4.42-1.93,4.42-4.33,0-6.26-12.21-10.35-12.21-21.43,0-10.35,9.09-18.78,20.01-18.78s20.27,8.43,20.27,18.78c0,18.3-25.46,32.98-44.43,24.8-15.07-6.74-21.05-24.8-12.99-40.21l8.05-15.65-55.34-107.62c-2.34-4.33-7.8-8.67-12.73-9.15v-1.44h43.05c4.74,0,7.9,1.93,9.47,4.82l36.84,70.54,26.58-51.04c1.05-2.17,1.58-4.57,1.58-6.98,0-8.19-6.84-15.17-15.53-15.89v-1.44h50Z"/>
      <path class="cls-1" d="m1278.96,154.92c0-8.43,7.02-15.17,16.12-15.17s16.38,6.74,16.38,15.17-7.28,14.93-16.38,14.93-16.12-6.5-16.12-14.93Z"/>
    </g>
  </g>
</svg>