<?xml version="1.0" encoding="UTF-8"?>
<svg id="Layer_1" xmlns="http://www.w3.org/2000/svg" version="1.1" viewBox="0 0 148 143">
  <!-- Generator: Adobe Illustrator 29.1.0, SVG Export Plug-In . SVG Version: 2.1.0 Build 142)  -->
  <defs>
    <style>
      .st0 {
        fill: #fff;
      }

      .st1 {
        fill: none;
        stroke: #000;
        stroke-width: 4.2px;
      }
    </style>
  </defs>
  <rect x="2.1" y="2.1" width="143.1" height="138.8" rx="19" ry="19"/>
  <rect class="st1" x="2.1" y="2.1" width="143.1" height="138.8" rx="19" ry="19"/>
  <path class="st0" d="M19.8,58.8c1.5-12.3,10.5-21.4,24-21.4s21.7,8.1,21.7,19-7.7,15.8-17.3,21.7c-4.7,2.6-16.8,10.9-17.2,16.9h34.9v9.1H18.8c0-19.4,13-27,24.8-34.2,6.8-4.3,11.6-8.8,11.6-13.6s-4.7-9.8-11.4-9.8-12.1,4.6-13.7,13l-10.3-.6ZM124,38.8v9.1h-29l-2.6,18.8c3-3.9,9-6.1,14.8-6.1,12.4,0,21.3,9.3,21.3,22.2s-9.8,22.8-23.6,22.8-23.6-7.6-24.6-18.7l10.2-.6c1,6.4,7.1,10.2,14.2,10.2s13.4-5.6,13.4-13.6-5.5-13.8-14.1-13.8-10.5,2.7-12.4,6.9h-10.4l5.1-37.2h37.6Z"/>
</svg>