<?xml version="1.0" encoding="utf-8"?>
<!-- Generator: Adobe Illustrator 21.1.0, SVG Export Plug-In . SVG Version: 6.00 Build 0)  -->
<svg version="1.1" id="Layer_1" xmlns="http://www.w3.org/2000/svg" xmlns:xlink="http://www.w3.org/1999/xlink" x="0px" y="0px"
	 viewBox="0 0 714 476" style="enable-background:new 0 0 714 476;" xml:space="preserve">
<style type="text/css">
	.st0{fill:#010202;}
</style>
<g>
	<path class="st0" d="M146.2,148.7l18.4,0l51.6,119.7l-24.3,0L180.8,241l-51.9,0L118,268.5l-23.8,0L146.2,148.7z M173.3,222.8
		l-18.5-48.7l-18.7,48.7L173.3,222.8z"/>
	<path class="st0" d="M270,257.2h-0.5c-5.7,9.1-15.2,13.2-26,13.2c-15.1,0-29.6-8.3-29.6-24.3c0-26.4,30.8-28.3,51-28.3h5.1v-2.2
		c0-10-7.8-15.2-18.6-15.2c-8.5,0-16.2,3.4-21.6,8.5l-10.7-10.6c9-9.1,21.6-13,34.5-13c34.7,0,34.7,25,34.7,36.5l0,46.7l-18.3,0
		L270,257.2z M268.8,232h-4.2c-11.2,0-30.4,0.9-30.4,12.5c0,7.4,7.6,10.7,14.2,10.7c13.9,0,20.5-7.3,20.5-18.6L268.8,232z"/>
	<path class="st0" d="M300.4,140.5l20.3,0l0.1,127.8l-20.3,0L300.4,140.5z"/>
	<path class="st0" d="M332.9,187.2l0-23.5l20.3,0l0,23.5l22.3,0l0,17.2l-22.3,0l0,35.5c0,8.1,2.4,13.2,11.3,13.2
		c3.6,0,8.5-0.7,11-2.5l0,17.1c-4.2,2-11.3,2.7-16.1,2.7c-21.5,0-26.6-9.6-26.6-28.7l0-37.2"/>
	<path class="st0" d="M423,185.1c24.5,0,44.1,17.1,44.2,42.6c0,25.5-19.6,42.6-44.1,42.6c-24.5,0-44.1-17.1-44.2-42.6
		C378.9,202.2,398.5,185.1,423,185.1z M423,252.1c14.9,0,23.8-11.7,23.8-24.4c0-12.7-9-24.4-23.9-24.3c-14.9,0-23.8,11.7-23.8,24.4
		C399.2,240.4,408.2,252.1,423,252.1z"/>
	<path class="st0" d="M493.9,234.8c1.4,12,10.5,19.3,21.8,19.3c10.1,0,16.7-4.7,21.8-11l14.5,11c-9.5,11.7-21.5,16.2-34.3,16.3
		c-24.5,0-44.1-17.1-44.2-42.6c0-25.5,19.6-42.6,44.1-42.6c22.7,0,38,15.9,38.1,44.1l0,5.6L493.9,234.8z M535.5,219.5
		c-0.2-11.8-8-19.3-20.6-19.3c-12,0-19.4,7.6-21,19.3L535.5,219.5z"/>
	<path class="st0" d="M609.5,209.5c-3.9-5.4-9-8.3-15.9-8.3c-5.4,0-11.8,2.5-11.8,8.6c0,14.5,43.8,2.7,43.8,34.3
		c0,19.3-18.4,26.1-35,26.1c-12.5,0-23.3-3.2-31.6-12.5l13.5-12.7c5.2,5.7,10.7,10,19.3,10c5.9,0,13.5-2.9,13.5-9.3
		c0-16.7-43.8-3.5-43.8-34.5c0-18.1,16.2-26.2,32.6-26.2c10.8,0,22.3,3.4,28.9,12.3L609.5,209.5z"/>
</g>
</svg>
