<svg width="148" height="143" viewBox="0 0 148 143" fill="none" xmlns="http://www.w3.org/2000/svg">
<rect x="2.11403" y="2.11403" width="143.053" height="138.772" rx="19.0263" fill="black" style="fill:black;fill-opacity:1;"/>
<rect x="2.11403" y="2.11403" width="143.053" height="138.772" rx="19.0263" stroke="black" style="stroke:black;stroke-opacity:1;" stroke-width="4.22806"/>
<path d="M19.7796 58.8039C21.2516 46.4759 30.2676 37.3679 43.7916 37.3679C56.3036 37.3679 65.5036 45.4639 65.5036 56.4119C65.5036 66.0719 57.7756 72.2359 48.2076 78.1239C43.5156 80.6999 31.3716 88.9799 31.0036 95.0519H65.8716V104.16H18.7676C18.7676 84.7479 31.7396 77.1119 43.6076 69.9359C50.4156 65.6119 55.1996 61.1039 55.1996 56.3199C55.1996 50.5239 50.5076 46.4759 43.7916 46.4759C36.5236 46.4759 31.6476 51.0759 30.0836 59.4479L19.7796 58.8039ZM124.005 38.8399V47.9479H95.0248L92.4488 66.7159C95.4848 62.8519 101.465 60.6439 107.261 60.6439C119.681 60.6439 128.513 69.9359 128.513 82.8159C128.513 96.2479 118.761 105.632 104.961 105.632C91.4368 105.632 81.3168 97.9959 80.3968 86.9559L90.6088 86.3119C91.6208 92.7519 97.6928 96.5239 104.777 96.5239C112.781 96.5239 118.209 90.9119 118.209 82.9079C118.209 74.4439 112.689 69.1079 104.133 69.1079C98.4288 69.1079 93.6448 71.7759 91.7128 76.0079H81.3168L86.3768 38.8399H124.005Z" fill="white" style="fill:white;fill-opacity:1;"/>
</svg>
