<?xml version="1.0" encoding="UTF-8"?>
<svg id="Layer_2" data-name="Layer 2" xmlns="http://www.w3.org/2000/svg" viewBox="0 0 437.72 95.93">
  <defs>
    <style>
      .cls-1 {
        fill: #f2f2f2;
        stroke-width: 0px;
      }
    </style>
  </defs>
  <g id="Layer_1-2" data-name="Layer 1">
    <g>
      <path class="cls-1" d="M394.28.02c1.76,0,3.52.04,5.28-.02.94-.03,1.42.32,1.78,1.2,5.35,12.77,10.73,25.52,16.1,38.28,6.09,14.45,12.17,28.89,18.25,43.35.63,1.51,1.28,3.02,1.76,4.57.71,2.28,0,3.9-2.16,4.95-3.3,1.59-6.82,2.49-10.43,3.06-6.74,1.06-13.36.54-19.9-1.43-4.78-1.43-8.19-4.17-10.04-8.94-2.27-5.88-4.83-11.64-7.22-17.47-.35-.84-.82-1.11-1.7-1.11-14.91.02-29.82.03-44.73,0-.99,0-1.39.4-1.73,1.24-2.95,7.24-5.95,14.46-8.88,21.71-.44,1.09-1,1.51-2.2,1.48-3.2-.08-6.4-.03-9.59-.03-1.7,0-1.73-.03-1.09-1.55,7.49-17.75,14.99-35.5,22.48-53.25,3.74-8.86,7.48-17.71,11.23-26.57.54-1.29,1.25-2.5,1.9-3.73,4.06-7.67,16.38-7.69,20.85.13,1.61,2.82,2.77,5.84,4.03,8.81,9.54,22.64,19.07,45.29,28.57,67.95.42,1,1.02,1.47,2.03,1.74,4.33,1.19,8.7,1.58,13.17,1.07,1.27-.15,1-.74.67-1.53-4.95-11.72-9.88-23.45-14.82-35.18-6.58-15.62-13.16-31.25-19.74-46.87-.09-.22-.16-.45-.27-.66-.45-.86-.23-1.23.78-1.21,1.88.04,3.76.01,5.64.01ZM363.69,56.5c6.15,0,12.31,0,18.46,0,1.39,0,1.39,0,.87-1.29-5.58-13.53-11.16-27.06-16.74-40.59-.36-.88-.74-1.78-1.42-2.48-.73-.76-1.57-.75-2.29.03-.5.54-.79,1.2-1.07,1.86-5.73,13.69-11.45,27.37-17.16,41.06-.58,1.4-.57,1.41,1,1.41,6.11,0,12.23,0,18.34,0Z"/>
      <path class="cls-1" d="M86.32,90.85c-1.6,0-3.2-.07-4.79.02-1.15.07-1.71-.38-2.14-1.42-2.67-6.53-5.41-13.04-8.12-19.56-1.42-3.42-1.41-3.43-5.17-3.43-13.91,0-27.82.02-41.72-.03-1.35,0-1.93.44-2.42,1.66-2.87,7.14-5.85,14.24-8.74,21.38-.4,1-.91,1.42-2.02,1.4-3.32-.07-6.63-.02-9.95-.03-1.41,0-1.49-.11-.93-1.42,5.69-13.48,11.39-26.97,17.09-40.45,5.48-12.97,10.95-25.94,16.44-38.9,1.01-2.39,2.12-4.74,3.93-6.66,4.45-4.72,13.29-4.49,17.51.45,1.55,1.82,2.65,3.88,3.57,6.06,11.06,26.28,22.12,52.57,33.18,78.85q.88,2.08-1.41,2.08c-1.44,0-2.88,0-4.32,0ZM46.17,56.5c6.11,0,12.23,0,18.34,0,1.62,0,1.63,0,1.02-1.48-5.42-13.16-10.84-26.33-16.27-39.49-.42-1.03-.81-2.09-1.48-3-.94-1.28-1.97-1.29-2.88,0-.63.89-.96,1.92-1.38,2.91-5.53,13.21-11.05,26.41-16.58,39.62q-.6,1.43,1,1.43c6.07,0,12.15,0,18.22,0Z"/>
      <path class="cls-1" d="M158.7,60.88c0,6.58,0,13.16,0,19.75,0,1.08-.11,2.15-.31,3.21-.77,4.03-3.27,6.3-7.44,6.77-1.47.17-2.94.26-4.42.25-9.39-.02-18.79,0-28.18-.01-2.16,0-4.3-.18-6.42-.65-5.39-1.2-8.99-4.43-10.59-9.67-2.07-6.8-2.16-13.7-.1-20.5,2.06-6.81,7.35-10.51,14.5-10.73,10.03-.31,20.06-.06,30.09-.16,1.73-.02,1.77,0,1.73-1.71-.08-2.95.27-5.91-.24-8.84-.65-3.72-3.27-6.16-7.03-6.63-1.23-.16-2.46-.21-3.7-.21-9.95,0-19.9,0-29.86,0-1.65,0-1.66,0-1.66-1.64,0-1.99.05-3.99-.02-5.98-.03-1.05.34-1.39,1.38-1.38,4.96.04,9.91.02,14.87.02,6.67,0,13.35-.03,20.02.01,3.32.02,6.53.63,9.44,2.31,4.98,2.87,7.17,7.5,7.68,12.95.62,6.64.13,13.31.25,19.97.02.96,0,1.91,0,2.87ZM132.38,58.29c-4.36,0-8.71-.01-13.07,0-3.73.01-6.16,1.78-7.11,5.38-1.11,4.24-1.09,8.54.05,12.77.71,2.65,2.39,4.52,5.18,5.09,1.16.24,2.38.31,3.57.32,7.31.03,14.63.02,21.95,0,.52,0,1.04-.04,1.55-.12,2.35-.35,3.06-1.18,3.07-3.58,0-6.1-.03-12.21.03-18.31.01-1.18-.3-1.6-1.54-1.58-4.56.07-9.11.03-13.67.03Z"/>
      <path class="cls-1" d="M241.57,56.73c-.11-5.82.4-11.35,2.07-16.75,2.84-9.15,9.21-14.39,18.36-16.51,6.63-1.54,13.36-1.7,20.13-1.25,4.81.32,9.52,1.07,14,2.94,6.05,2.53,10.16,6.92,12.51,12.99,1.73,4.47,2.37,9.15,2.66,13.91.35,5.8.11,11.56-1.01,17.25-1.13,5.71-3.33,10.92-7.76,14.92-3.76,3.39-8.29,5.24-13.19,6.15-9.25,1.72-18.51,1.75-27.7-.46-10.56-2.54-16.62-9.44-18.84-19.88-.4-1.87-.69-3.76-.93-5.66-.33-2.61-.35-5.25-.3-7.67ZM253.19,56.56c-.1,3.83.15,7.67.99,11.47,1.67,7.48,6.06,12.22,13.71,13.73,5.38,1.06,10.78,1.06,16.19.19,7.78-1.25,12.75-5.62,14.5-13.31,1.82-7.99,1.84-16.06.02-24.05-1.43-6.28-5.14-10.67-11.57-12.3-6.85-1.74-13.76-1.75-20.63-.13-6.14,1.45-10.02,5.32-11.78,11.36-1.24,4.26-1.54,8.61-1.43,13.06Z"/>
      <path class="cls-1" d="M216.27,51.81c0,5.59,0,11.17,0,16.76,0,1.64.09,3.27.45,4.87,1.08,4.77,3.7,7.23,8.54,7.94,2.85.42,5.73.51,8.6.46,1.06-.02,1.41.35,1.38,1.39-.06,2.15-.02,4.31-.02,6.46,0,.61-.09,1.15-.87,1.14-5.43-.02-10.88.34-16.22-1.01-7.25-1.83-11.42-6.63-12.5-14.34-.32-2.25-.49-4.51-.48-6.79.01-11.77,0-23.54,0-35.31q0-1.63-1.66-1.63c-2.24,0-4.48-.05-6.72.02-1.12.04-1.57-.27-1.52-1.46.09-2.03.07-4.07,0-6.1-.04-1.08.31-1.49,1.43-1.46,2.32.06,4.64-.05,6.95.04,1.25.05,1.55-.41,1.54-1.58-.05-6.18-.03-12.37-.02-18.55,0-1.58.05-1.63,1.6-1.64,2.72,0,5.44.03,8.16-.02,1.03-.02,1.4.35,1.39,1.4-.03,6.26-.02,12.53-.02,18.79,0,1.57,0,1.57,1.61,1.57,5.28,0,10.55.03,15.83-.02,1.14,0,1.57.34,1.53,1.5-.07,2.03-.07,4.07,0,6.1.04,1.12-.39,1.43-1.47,1.42-5.32-.04-10.63.01-15.95-.05-1.19-.01-1.59.29-1.58,1.53.06,6.18.03,12.37.03,18.55Z"/>
      <path class="cls-1" d="M185.36,46.04c0,14.36,0,28.72,0,43.08,0,1.72,0,1.72-1.72,1.73-2.6,0-5.2-.03-7.79.02-1.05.02-1.47-.28-1.47-1.42.03-29,.03-58,0-87,0-1.11.36-1.47,1.44-1.45,2.6.05,5.2.01,7.79.02,1.74,0,1.75,0,1.75,1.71,0,14.44,0,28.88,0,43.32Z"/>
    </g>
  </g>
</svg>