<?xml version="1.0" encoding="UTF-8"?>
<svg id="Layer_1" xmlns="http://www.w3.org/2000/svg" version="1.1" viewBox="0 0 907.6 386.1">
  <!-- Generator: Adobe Illustrator 29.3.1, SVG Export Plug-In . SVG Version: 2.1.0 Build 151)  -->
  <defs>
    <style>
      .st0 {
        fill: url(#gradient);
        animation: colorShift 8s ease-in-out infinite;
      }
      
      @keyframes colorShift {
        0% { fill: #6ce220; }
        50% { fill: #4caf50; }
        100% { fill: #6ce220; }
      }
    </style>
    <linearGradient id="gradient" x1="0%" y1="0%" x2="100%" y2="100%">
      <stop offset="0%" stop-color="#6ce220" />
      <stop offset="50%" stop-color="#4caf50" />
      <stop offset="100%" stop-color="#6ce220" />
      <animate attributeName="x1" from="0%" to="100%" dur="10s" repeatCount="indefinite" />
      <animate attributeName="y1" from="0%" to="100%" dur="10s" repeatCount="indefinite" />
      <animate attributeName="x2" from="100%" to="0%" dur="10s" repeatCount="indefinite" />
      <animate attributeName="y2" from="100%" to="0%" dur="10s" repeatCount="indefinite" />
    </linearGradient>
  </defs>
  <path class="st0" d="M68.1,175.2c12.3-40.8,24.7-81.5,37-122.2,11,7.4,22,13.7,33.1,19.1,6.6,3.2,12,7.2,16.2,12.2,4.2,5,7,10.6,8.4,17.1s1.3,13.4-.5,20.8c-2,8.4-5.6,15-10.9,19.8-5.3,4.8-11.5,7.2-18.7,7,3,21.1,6.3,41.9,10,62.4-6.5-2.1-13.1-4.4-19.6-7-2.7-19.9-5.2-40.1-7.4-60.5-5.3-2.6-10.5-5.5-15.8-8.5-4.8,16.9-9.7,33.8-14.5,50.6-5.7-3.3-11.5-6.9-17.2-10.7h0ZM104.5,119.3c6.1,3.5,12.2,6.8,18.3,9.8,5.5,2.6,10.3,2.7,14.5.4s7-6.7,8.6-12.8c1.6-6.4,1.3-12-.9-17-2.2-5-5.9-8.6-11.2-11.2-5.9-2.9-11.8-6-17.7-9.5-3.9,13.5-7.7,26.9-11.6,40.3h0Z"/>
  <path class="st0" d="M202.2,225.1c-7.3-.7-13.2-3-17.9-6.7-4.7-3.8-7.8-8.8-9.4-15-1.6-6.2-1.5-13,0-20.5,4.1-18.6,8.1-37.3,12.2-55.9,1.7-7.6,4.4-13.9,8.2-18.9,3.8-5,8.4-8.5,13.7-10.7,5.4-2.2,11.3-2.9,17.9-2.2s11.9,2.4,16.2,5.5c4.3,3.1,7.2,7.4,8.9,12.9,1.7,5.5,1.9,12,.7,19.5-3.1,18.8-6.2,37.5-9.2,56.3-1.2,7.5-3.7,14.1-7.4,19.7-3.7,5.6-8.5,9.9-14.3,12.7-5.8,2.8-12.3,3.9-19.6,3.3h0ZM205.3,208.4c5.8.5,10.5-1,14.1-4.4,3.6-3.4,6-8.3,7.1-14.8,3.3-18.7,6.6-37.4,9.9-56.1,1.2-6.6.6-11.7-1.5-15.3s-5.9-5.6-11.3-6.1c-5.3-.5-9.6.7-13.2,3.8-3.5,3.1-6,7.8-7.3,14.4-3.8,18.7-7.6,37.4-11.5,56-1.3,6.5-.8,11.7,1.5,15.6,2.3,3.9,6.4,6.3,12,6.8h0Z"/>
  <path class="st0" d="M268,222.8c5.9-42.1,11.9-84.1,17.8-126.2,10.4-1,20.7-2.4,31.1-4.2,6.6-1.2,12.2-1,16.7.7s7.9,4.5,10.1,8.7c2.2,4.2,3,9.6,2.4,16.2-.8,8.5-3.7,15.9-8.8,22-5.1,6.1-11.6,10-19.5,11.5,0-.7.2-1.5.2-2.2,8.5-1.9,15-.6,19.7,4,4.7,4.6,6.7,11.8,5.8,21.7-.6,7.1-2.6,13.6-6,19.6-3.4,6-7.9,11-13.5,15-5.6,4-12.2,6.8-19.5,8.1-12.2,2.2-24.4,4-36.6,5.2h0ZM294.2,147.6c5.5-.8,11-1.6,16.5-2.6,5.4-1,9.9-3.4,13.4-7.4,3.5-3.9,5.5-8.7,6-14.3.6-5.6-.5-9.7-3.1-12.4-2.6-2.7-6.6-3.5-11.9-2.6-5.4.9-10.7,1.8-16.1,2.5-1.6,12.2-3.2,24.5-4.7,36.7h0ZM286.8,204.7c6-.8,12.1-1.8,18.1-2.9,6.2-1.1,11.3-3.9,15.2-8.1,3.9-4.3,6.1-9.6,6.7-15.9.6-6.4-.6-11.2-3.6-14.3-3-3.2-7.5-4.2-13.5-3.1-5.9,1-11.7,2-17.6,2.8-1.8,13.9-3.6,27.7-5.4,41.6h0Z"/>
  <path class="st0" d="M402.1,194.1c-7.3,2.3-13.5,2.7-18.6,1.4s-8.9-4.3-11.3-9c-2.4-4.7-3.4-10.7-2.9-18.1,1.2-18.3,2.5-36.7,3.7-55,.5-7.5,2.2-14.3,5.2-20.4,2.9-6.2,6.9-11.4,11.8-15.6,4.9-4.3,10.6-7.4,17.2-9.4,6.5-2,12.1-2.4,16.8-1.1,4.7,1.3,8.3,4.2,10.8,8.7,2.5,4.5,3.7,10.3,3.6,17.6-.2,18.1-.5,36.1-.7,54.1,0,7.2-1.6,14-4.4,20.3-2.9,6.3-7,11.7-12.3,16.3-5.3,4.5-11.7,8-18.9,10.3h0ZM402.8,177.9c5.8-1.8,10.2-4.9,13.3-9.3,3.1-4.4,4.7-9.7,4.9-15.9.5-18.1,1-36.2,1.4-54.2.2-6.4-1.1-10.8-3.8-13.2-2.7-2.5-6.7-2.9-12.1-1.2-5.3,1.6-9.4,4.5-12.4,8.8-3,4.2-4.7,9.6-5.1,16-1,18.3-2,36.5-3,54.8-.3,6.3.9,10.7,3.8,13.2,2.9,2.5,7.2,2.9,12.9,1.1h0Z"/>
  <path class="st0" d="M493.4,162.6c-1.1-34.5-2.2-69.1-3.3-103.6-9.5,3-19,6.1-28.6,9.3,0-5.4,0-10.8-.1-16.2,24-7.8,48-15.6,71.9-22.2.4,5.3.8,10.6,1.1,15.9-9.5,2.6-19,5.4-28.6,8.4,1.6,34.4,3.1,68.7,4.7,103.1-5.8,1.8-11.5,3.6-17.3,5.4h0Z"/>
  <path class="st0" d="M569.6,140.7c-.5-5.3-1-10.5-1.5-15.8,7.7-1.9,15.5-3.6,23.2-5.2-3.2-28.5-6.5-56.9-9.7-85.4-7.2,1.4-14.4,3-21.5,4.7-.5-5.3-1-10.5-1.5-15.7,19.5-4.6,38.9-8.3,58.4-10.5.8,5.2,1.5,10.4,2.3,15.6-7.2.8-14.4,1.8-21.5,3,3.7,28.4,7.3,56.8,11,85.1,7.7-1.3,15.5-2.4,23.2-3.3.8,5.2,1.5,10.4,2.3,15.6-21.5,2.5-43,6.6-64.5,11.8h0Z"/>
  <path class="st0" d="M702.7,128.9c-7.3-.6-13.8-2.2-19.7-5-5.9-2.8-10.7-6.7-14.5-11.7s-6.3-11-7.5-17.9c-3-17.1-6-34.2-9-51.3-1.2-7-.9-13,.8-18.1,1.8-5.1,4.8-9,9.2-11.6,4.4-2.6,9.8-3.7,16.3-3.1,6.5.6,12.5,2.6,17.9,6.1,5.4,3.5,10.1,8.1,13.9,13.6,3.8,5.6,6.6,11.9,8.3,18.8-5.4-1.1-10.7-2.1-16.1-2.9-1.3-6-3.8-10.9-7.4-14.4-3.6-3.6-8.1-5.6-13.5-6.1-5.4-.5-9.2.9-11.6,4s-3,7.6-1.9,13.5c3.3,17.2,6.5,34.3,9.8,51.5,1.1,5.9,3.6,10.5,7.4,13.8,3.8,3.3,8.7,5.2,14.4,5.6,5.8.5,9.9-.6,12.4-3.4,2.4-2.8,3-7.1,1.7-13.1,5.6.8,11.2,1.8,16.8,3,1.6,6.9,1.6,12.6-.1,17.1s-4.9,7.7-9.6,9.7c-4.7,2-10.7,2.6-18,2h0Z"/>
  <path class="st0" d="M802.5,155.7c-7.7-3.7-14.8-7.8-21.3-12.8-6.5-4.9-11.9-10.2-16.2-16.1-4.3-5.9-7.3-12-9-18.6,5.6,1.7,11.1,3.7,16.7,5.8,1.4,5.2,4.4,10.2,9.1,14.9,4.7,4.8,10.2,8.5,16.5,11.6,6,2.9,10.3,3.8,13,2.6,2.6-1.2,3.1-4.5,1.5-9.9-1.3-4.3-3.6-8.8-6.8-13.2-3.2-4.5-6.9-8.3-11.1-11.5-5.5-4.1-10.9-8.1-16.3-11.8-8.6-6-16-12.4-22-19.8-6-7.4-10-15-12-23-2.5-9.7-1.5-16.5,2.8-20.2,4.3-3.7,11.3-3.5,21.1,1.2,9.7,4.7,18.3,12,25.9,21.4,7.6,9.4,13,19.3,16.1,29.2-5.3-3.5-10.7-6.8-16-9.8-1.5-5.2-4.3-10.2-8.2-14.8-3.9-4.6-8.4-8.3-13.6-10.8-5.2-2.5-8.8-2.8-11.1-1.1-2.2,1.7-2.7,5.1-1.3,10.3,1,3.9,3,7.7,6,11.5,3,3.9,6.6,7.2,10.9,10.2,5.5,3.9,11,8,16.5,12.3,8.6,6.6,15.9,14.5,22.2,23.4,6.2,8.9,10.8,17.8,13.4,26.5,2.1,6.8,2.4,11.7,1,14.9-1.4,3.2-4.6,4.4-9.3,4-4.8-.4-10.9-2.6-18.4-6.1h0Z"/>
  <path class="st0" d="M6.9,396.3c16.5-55.1,32.9-110.2,49.4-165.2,10.2,6.5,20.4,12.3,30.5,17.4,3.3,54.3,8.3,107.7,14.8,159.8.7-4.6,1.6-10,2.5-16.4,1-6.3,2.1-12.9,3.4-19.6s2.6-12.8,3.9-18.2c6.9-29.2,13.8-58.3,20.6-87.5,7.5,2.3,15,4.2,22.4,5.9-12.4,56.7-24.8,113.3-37.2,170-11.4-2.5-22.9-5.6-34.3-9.4-6.5-52.8-11.3-106.9-14.5-161.9-.8,4.1-1.9,9.3-3.1,15.4s-2.7,12.5-4.2,19c-1.6,6.5-3.1,12.5-4.6,18-8.1,29.2-16.3,58.3-24.4,87.5-8.4-4.5-16.8-9.4-25.2-14.8h0Z"/>
  <path class="st0" d="M155,448.4c26.7-55.3,51.6-111.7,74.8-168.9,10.6-.2,21.3-1,31.9-2.1,6,55.3,13.6,109.6,23.1,163-9.2,1.8-18.3,3.4-27.5,4.7-1.9-13.8-3.6-27.7-5.3-41.6-16.9,2.1-33.9,3.3-50.8,3.4-6,14.4-12.1,28.8-18.4,43.1-9.3-.2-18.5-.8-27.8-1.7h0ZM209.5,386.1c13.4-.2,26.8-1.2,40.2-2.7-1.8-15.9-3.4-31.9-4.9-48-.8-8.5-1.3-16-1.6-22.4-.3-6.4-.5-10.7-.6-13-.8,2.4-2.3,6.8-4.5,13.3-2.2,6.5-5.1,14.1-8.6,22.8-6.5,16.7-13.1,33.3-19.9,49.9h0Z"/>
  <path class="st0" d="M364,420.4c2.9-48.1,5.7-96.3,8.6-144.4-14.8,4.4-29.7,8.4-44.5,11.9.7-7.5,1.4-15.1,2.1-22.6,37.3-8.9,74.5-20.9,111.8-33.3,0,7.3-.1,14.7-.2,22-14.8,4.9-29.7,9.8-44.5,14.5-2,47.8-4,95.7-6,143.5-9.1,2.9-18.2,5.7-27.3,8.4h0Z"/>
  <path class="st0" d="M484.4,381.2c-.2-7.3-.3-14.5-.5-21.8,12.2-4,24.4-8,36.5-11.8-1.8-39.2-3.6-78.3-5.4-117.5-11.2,3.5-22.4,7.1-33.6,10.8-.2-7.3-.3-14.5-.5-21.8,30.2-9.9,60.5-19.4,90.7-26.9.7,7.1,1.3,14.2,2,21.3-11.2,2.8-22.4,5.8-33.6,9,2.6,38.9,5.1,77.8,7.7,116.8,12.2-3.5,24.4-6.9,36.5-9.9.7,7.1,1.3,14.2,2,21.3-34,8.5-68,19.3-102,30.5h0Z"/>
  <path class="st0" d="M693.4,335.4c-11.5.7-21.7-.1-30.5-2.8-8.8-2.6-15.9-6.9-21.3-13.2-5.3-6.2-8.5-14-9.7-23.3-3-23.2-6-46.5-9-69.7-1.2-9.5-.2-18,2.9-25.5s8.1-13.6,15-18.2c6.9-4.5,15.4-7.2,25.5-7.8s19.3,1.2,27.4,5c8.1,3.8,14.9,9.4,20.3,16.5,5.4,7.1,9.1,15.4,11.1,24.6,4.8,23.2,9.6,46.3,14.5,69.5,1.9,9.3,1.4,17.1-1.5,23.7-3,6.6-8.3,11.5-15.9,15-7.6,3.5-17.2,5.4-28.7,6.1h0ZM690,314.8c9.1-.5,15.7-2.8,19.6-7.2,3.9-4.4,5.1-10.5,3.6-18.5-4.4-23.1-8.7-46.1-13.1-69.2-1.5-8.1-4.9-14.4-10-18.6-5.1-4.3-11.9-6.3-20.2-5.9-8.2.5-14.1,3.2-17.9,7.9-3.8,4.7-5.1,11.2-3.9,19.4,3.4,23.2,6.9,46.3,10.3,69.4,1.2,8,4.5,13.9,9.9,17.7,5.5,3.9,12.7,5.4,21.7,4.9h0Z"/>
  <path class="st0" d="M795.5,341.3c-12.6-52.2-25.1-104.4-37.7-156.7,10.2,2.4,20.4,5.4,30.5,9,27.4,49.4,56.5,100.8,87.3,155.1-1.6-4.4-3.5-9.7-5.7-15.8-2.2-6.1-4.4-12.4-6.5-18.8-2.1-6.4-3.9-12.2-5.4-17.3-8.1-27.5-16.2-55.1-24.3-82.7,7.5,4.1,15,8.7,22.4,13.7,16.6,53.9,33.3,107.8,49.9,161.6-11.4-7.5-22.9-14.2-34.3-20.1-30.6-53.4-59.6-104-86.9-152.7,1.3,3.8,2.8,8.6,4.6,14.3,1.8,5.7,3.6,11.6,5.4,17.8,1.8,6.1,3.3,11.7,4.7,16.9,7.1,27.5,14.2,55,21.2,82.6-8.4-2.7-16.8-5-25.2-6.9h0Z"/>
</svg>