<svg version="1.1" id="Layer_1" xmlns="http://www.w3.org/2000/svg" x="0" y="0" viewBox="0 0 451.4 88.9" style="enable-background:new 0 0 451.4 88.9" xml:space="preserve"><style>.st0{fill:#6106e2}.st1{fill:#9967ed}</style><path d="M123.6 22v-4.5l-4.2-4.2h-13.3v28.6h4.8v-7.1l3.3-3.3 4.8 10.4h4.8l-6.3-13.8 6.1-6.1zm-12.7-4.4h6.7l1.2 1.2v1.8l-7.9 7.9V17.6zM132.2 13.3l-4.2 4.2v20.2l4.2 4.2h9.1l4.2-4.2V17.5l-4.2-4.2h-9.1zm1.8 24.2-1.2-1.2V18.8l1.2-1.2h5.6l1.2 1.2v17.5l-1.2 1.2H134zM149.9 13.3v28.6h13.3l4.2-4.2v-9.9l-2-2 2-2v-6.3l-4.2-4.2h-13.3zm4.7 24.2V28h6.7l1.2 1.2v7.1l-1.2 1.2h-6.7zm0-13.9v-5.9h6.7l1.2 1.2v3.6l-1.2 1.2-6.7-.1zM175.9 13.3l-4.2 4.2v20.2l4.2 4.2h9.1l4.2-4.2V17.5l-4.2-4.2h-9.1zm1.8 24.2-1.2-1.2V18.8l1.2-1.2h5.5l1.2 1.2v17.5l-1.2 1.2h-5.5zM193.5 17.6h6.4v24.3h4.8V17.6h6.3v-4.3h-17.5zM215.4 17.6h6.3v19.9h-6.3v4.4h17.5v-4.4h-6.4V17.6h6.4v-4.3h-17.5zM254.7 37.5h-6.4V17.6h6.4v-4.3h-17.5v4.3h6.4v19.9h-6.4v4.4h17.5zM271.2 13.3l-7.4 11v-11h-4.7v28.6h4.7v-9l2.3-3.4 5.4 12.4h5.3l-7.5-17.2 7.6-11.4zM293 13.3l-7.3 11v-11h-4.8v28.6h4.8v-9l2.2-3.4 5.5 12.4h5.2l-7.5-17.2 7.6-11.4zM307.2 13.3l-4.5 28.6h4.8l1.2-7.5h5.7l1.2 7.5h4.8l-4.5-28.6h-8.7zm6.4 16.7h-4.3l1.9-12.3h.4l2 12.3zM336.7 13.3l-7.3 11v-11h-4.8v28.6h4.8v-9l2.2-3.4 5.4 12.4h5.3l-7.5-17.2 7.6-11.4zM350.9 13.3l-4.5 28.6h4.8l1.2-7.5h5.7l1.2 7.5h4.8l-4.5-28.6h-8.7zm6.4 16.7H353l2-12.4h.4l1.9 12.4zM377 22.3l-4.1-9h-4.6v28.6h4.7V24.2l1.8 3.8h4.4l1.8-3.8v17.7h4.8V13.3h-4.7zM390.1 13.3v28.6h4.8v-7.2L407.6 22v-4.5l-4.2-4.2h-13.3zm4.8 4.3h6.8l1.2 1.2v1.8l-7.9 7.9V17.6h-.1zM424.7 36.3l-1.2 1.2h-5.6l-1.2-1.2v-23H412v24.4l4.2 4.2h9l4.2-4.2V13.3h-4.7zM439.4 18.8l1.2-1.2h4.7l3.1 3.1 3-3.1-4.3-4.3h-8.3l-4.2 4.2V22l11.9 12.3v2l-1.2 1.2h-5.5l-3.1-3.1-3.1 3.1 4.4 4.4h9.1l4.2-4.2v-5.5l-11.9-12.3zM120.1 59.8v-3.6l-3.4-3.3h-10.6v22.8h3.8V70l2.6-2.6 3.8 8.3h3.9l-5-11 4.9-4.9zM110 56.3h5.4l1 1v1.5L110 65v-8.7zM127 52.8l-3.4 3.3v16.1l3.4 3.4h7.2l3.4-3.4V56.1l-3.4-3.3H127zm1.4 19.3-1-1v-14l1-1h4.4l.9 1v14l-.9 1h-4.4zM141.1 52.8v22.8h10.6l3.3-3.4v-7.9l-1.6-1.6 1.6-1.6v-5l-3.4-3.3h-10.5zm3.8 19.3v-7.6h5.4l1 1v5.7l-1 1-5.4-.1zm0-11.1v-4.7h5.4l1 1v2.8l-1 1-5.4-.1zM161.9 52.8l-3.4 3.3v16.1l3.4 3.4h7.2l3.4-3.4V56.1l-3.4-3.3h-7.2zm1.4 19.3-1-1v-14l1-1h4.4l.9 1v14l-.9 1h-4.4zM175.9 56.3h5.1v19.3h3.8V56.3h5.1v-3.5h-14zM193.4 56.3h5v15.8h-5v3.5h13.9v-3.5h-5V56.3h5v-3.5h-13.9zM215.6 56.3h4.4l2.5 2.4 2.4-2.4-3.5-3.5h-7.2l-3.4 3.3v16.2l3.4 3.3h7.2l3.5-3.5-2.4-2.4-2.5 2.4h-4.4l-1-.9v-14zM233.7 56.3h3.8l2.4 2.4 2.5-2.4-3.5-3.5h-6.6l-3.4 3.3v3.7l9.5 9.8v1.6l-.9.9H233l-2.4-2.4-2.5 2.4 3.5 3.5h7.3l3.3-3.3v-4.4l-9.5-9.8v-.9zM267.6 56.3h4.4l2.5 2.4 2.4-2.4-3.5-3.5h-7.2l-3.4 3.3v16.2l3.4 3.3h7.2l3.5-3.5-2.4-2.4-2.5 2.4h-4.4l-1-.9v-14zM283.8 52.8l-3.6 22.8h3.8l1-6h4.5l1 6h3.8l-3.6-22.8h-6.9zm5.2 13.3h-3.4l1.5-9.8h.3l1.6 9.8zM304.7 60l-3.3-7.2h-3.7v22.8h3.8V61.5l1.4 3h3.6l1.4-3v14.1h3.8V52.8H308zM315.2 52.8v22.8h3.8v-5.7l10.1-10.2v-3.6l-3.4-3.3h-10.5zm3.8 3.5h5.4l1 1v1.5L319 65v-8.7zM342.8 71.2l-1 .9h-4.4l-1-.9V52.8h-3.8v19.5l3.4 3.3h7.2l3.4-3.3V52.8h-3.8zM355.5 56.3h3.7l2.5 2.4 2.4-2.4-3.5-3.5H354l-3.3 3.3v3.7l9.5 9.8v1.6l-1 .9h-4.4l-2.4-2.4-2.5 2.4 3.5 3.5h7.2l3.4-3.3v-4.4l-9.5-9.8v-.9z"/><path class="st0" d="M38.5 44.4 16.9 57.5l-.1 18.9 21.7 12.5 21.6-12.5.1-18.9z"/><path class="st1" d="m56 10.1-17.4 9.8-.1 24.5 21.7 13.1L77 46.8V22.2z"/><path style="fill:#dcccf8" d="M19.6 11 .1 22.1l-.2 25.1 16.8 10.3 21.7-13 .3-24.5z"/><path class="st0" d="M38.6 19.9 19.4 11 38.5 0 56 10.1z"/><path style="fill:#4e00b4" d="m60.1 76.4.1-18.9L77 46.8v19.9z"/><path class="st1" d="M0 66.7V47.3l16.9 10.2-.1 18.9z"/></svg>