<?xml version="1.0" encoding="UTF-8"?>
<svg id="Layer_2" data-name="Layer 2" xmlns="http://www.w3.org/2000/svg" viewBox="0 0 185.36 78.85">
  <defs>
    <style>
      .cls-1 {
        fill: #221f20;
      }
    </style>
  </defs>
  <g id="Layer_1-2" data-name="Layer 1">
    <g>
      <path class="cls-1" d="M0,28.39C0,19.05,0,9.72,0,.38c2.93,0,5.86,0,8.78,0,1.76,0,3.3.34,4.6,1.02,1.31.68,2.32,1.63,3.05,2.86.73,1.23,1.09,2.67,1.09,4.33,0,1.87-.48,3.48-1.44,4.85-.96,1.37-2.26,2.33-3.89,2.9l5.72,12.05h-4.72c-1.7-3.84-3.4-7.67-5.1-11.51-1.32,0-2.63,0-3.95,0v11.51H0ZM4.14,13.23c1.55,0,3.09,0,4.64,0,1.38,0,2.48-.42,3.3-1.25.82-.83,1.23-1.94,1.23-3.32,0-1.43-.41-2.56-1.23-3.38-.82-.82-1.92-1.23-3.3-1.23-1.55,0-3.09,0-4.64,0v9.17Z"/>
      <path class="cls-1" d="M32.26,28.77c-1.74,0-3.24-.33-4.51-.98-1.27-.65-2.24-1.6-2.92-2.84-.68-1.24-1.02-2.69-1.02-4.35,0-4.14,0-8.29,0-12.43,0-1.69.34-3.15,1.02-4.37.68-1.23,1.65-2.17,2.92-2.82C29.02.33,30.52,0,32.26,0c1.74,0,3.24.33,4.51.98,1.27.65,2.24,1.59,2.92,2.82.68,1.23,1.02,2.67,1.02,4.33v12.47c0,1.66-.34,3.11-1.02,4.35-.68,1.24-1.65,2.19-2.92,2.84-1.27.65-2.77.98-4.51.98ZM32.26,25.09c1.41,0,2.47-.39,3.2-1.17.73-.78,1.09-1.89,1.09-3.32v-12.43c0-1.46-.36-2.57-1.09-3.34-.73-.77-1.8-1.15-3.2-1.15-1.38,0-2.44.38-3.18,1.15-.74.77-1.11,1.88-1.11,3.34v12.43c0,1.43.37,2.54,1.11,3.32.74.78,1.8,1.17,3.18,1.17Z"/>
      <path class="cls-1" d="M47.99,28.39c0-9.33,0-18.67,0-28,2.75,0,5.5,0,8.25,0,1.77,0,3.28.29,4.55.88,1.26.59,2.24,1.42,2.93,2.49.69,1.07,1.04,2.35,1.04,3.84,0,1.92-.59,3.44-1.76,4.56-1.18,1.13-2.76,1.69-4.76,1.69v-.5c2.15-.05,3.88.58,5.2,1.88,1.32,1.3,1.98,3.07,1.98,5.29,0,1.59-.35,2.97-1.05,4.16-.7,1.19-1.7,2.1-2.99,2.74-1.29.64-2.82.96-4.58.96h-8.79ZM52.02,12.12h4.18c1.38,0,2.47-.37,3.26-1.11.79-.74,1.19-1.74,1.19-2.99,0-1.25-.39-2.24-1.17-2.97-.78-.73-1.86-1.09-3.24-1.09h-4.22v8.17ZM52.02,24.82h4.41c1.51,0,2.69-.4,3.55-1.19.86-.79,1.29-1.89,1.29-3.3,0-1.43-.43-2.58-1.29-3.45-.86-.87-2.04-1.3-3.55-1.3h-4.41v9.25Z"/>
      <path class="cls-1" d="M80.21,28.77c-1.74,0-3.24-.33-4.51-.98-1.27-.65-2.24-1.6-2.92-2.84-.68-1.24-1.02-2.69-1.02-4.35v-12.43c0-1.69.34-3.15,1.02-4.37.68-1.23,1.65-2.17,2.92-2.82C76.97.33,78.47,0,80.21,0c1.74,0,3.24.33,4.51.98,1.27.65,2.24,1.59,2.92,2.82.68,1.23,1.02,2.67,1.02,4.33v12.47c0,1.66-.34,3.11-1.02,4.35-.68,1.24-1.65,2.19-2.92,2.84-1.27.65-2.77.98-4.51.98ZM80.21,25.09c1.41,0,2.47-.39,3.2-1.17.73-.78,1.09-1.89,1.09-3.32v-12.43c0-1.46-.36-2.57-1.09-3.34-.73-.77-1.8-1.15-3.2-1.15-1.38,0-2.44.38-3.18,1.15-.74.77-1.11,1.88-1.11,3.34v12.43c0,1.43.37,2.54,1.11,3.32.74.78,1.8,1.17,3.18,1.17Z"/>
      <path class="cls-1" d="M102.12,28.39V4.14h-7.48V.38c6.37,0,12.74,0,19.1,0v3.76h-7.48v24.24h-4.14Z"/>
      <path class="cls-1" d="M120.42,28.39v-3.76c1.88,0,3.76,0,5.64,0V4.14h-5.64V.38c5.17,0,10.33,0,15.5,0v3.76h-5.64v20.49c1.88,0,3.76,0,5.64,0v3.76h-15.5Z"/>
      <path class="cls-1" d="M152.29,28.77c-1.74,0-3.26-.33-4.55-.98-1.29-.65-2.29-1.6-2.99-2.84-.7-1.24-1.05-2.69-1.05-4.35v-12.43c0-1.69.35-3.15,1.05-4.37.7-1.23,1.7-2.17,2.99-2.82C149.04.33,150.56,0,152.29,0c1.74,0,3.25.33,4.53,1,1.28.67,2.27,1.61,2.97,2.82.7,1.21,1.05,2.67,1.05,4.35h-4.14c0-1.46-.38-2.57-1.15-3.34-.77-.77-1.85-1.15-3.26-1.15-1.41,0-2.5.38-3.28,1.15-.78.77-1.17,1.87-1.17,3.3v12.47c0,1.43.39,2.54,1.17,3.32.78.78,1.87,1.17,3.28,1.17,1.41,0,2.49-.39,3.26-1.17.77-.78,1.15-1.89,1.15-3.32,1.38,0,2.76,0,4.14,0,0,1.66-.35,3.11-1.05,4.33-.7,1.23-1.7,2.17-2.97,2.84-1.28.66-2.79,1-4.53,1Z"/>
      <path class="cls-1" d="M176.23,28.77c-1.84,0-3.45-.33-4.83-.98-1.38-.65-2.44-1.56-3.18-2.72-.74-1.16-1.11-2.54-1.11-4.12,1.37,0,2.74,0,4.11,0,0,1.25.46,2.26,1.38,3.03.92.77,2.15,1.15,3.68,1.15,1.46,0,2.62-.38,3.49-1.13.87-.75,1.3-1.77,1.3-3.05,0-1.02-.28-1.91-.84-2.67-.56-.75-1.33-1.27-2.3-1.55-1.25-.37-2.51-.74-3.76-1.11-1.99-.59-3.56-1.58-4.7-2.97-1.14-1.39-1.71-3.05-1.71-4.97,0-2.33.77-4.19,2.3-5.58C171.59.7,173.66,0,176.27,0c2.58,0,4.65.68,6.2,2.05,1.55,1.37,2.32,3.22,2.32,5.54h-4.14c0-1.23-.4-2.19-1.19-2.9-.79-.7-1.87-1.06-3.22-1.06-1.36,0-2.43.35-3.22,1.06-.79.7-1.19,1.67-1.19,2.9,0,.92.28,1.73.84,2.44.56.7,1.34,1.2,2.34,1.48,1.28.38,2.56.77,3.84,1.15,1.99.56,3.54,1.57,4.64,3.01,1.1,1.44,1.65,3.18,1.65,5.2,0,1.59-.37,2.97-1.09,4.16-.73,1.19-1.76,2.11-3.11,2.76-1.34.65-2.91.98-4.7.98Z"/>
      <path class="cls-1" d="M.97,78.33v-37.78h7.04c3.67,10.47,7.35,20.94,11.02,31.41-.07-1-.15-2.19-.26-3.57-.1-1.38-.18-2.81-.23-4.3-.05-1.48-.08-2.83-.08-4.04v-19.51h5.17v37.78h-7.04l-10.97-31.41c.07.9.15,2.02.23,3.36.09,1.35.16,2.74.21,4.19.05,1.45.08,2.79.08,4.04v19.82H.97Z"/>
      <path class="cls-1" d="M31.35,78.33c3.21-12.59,6.42-25.19,9.63-37.78h7.35c3.21,12.59,6.42,25.19,9.63,37.78h-5.64c-.76-3.19-1.52-6.38-2.28-9.57h-10.71c-.76,3.19-1.52,6.38-2.28,9.57h-5.69ZM40.35,64.15h8.59c-.86-3.64-1.73-7.28-2.59-10.92-.45-1.93-.82-3.61-1.11-5.05-.29-1.43-.49-2.41-.6-2.92-.1.52-.29,1.49-.57,2.92-.28,1.43-.66,3.1-1.14,4.99-.86,3.66-1.73,7.31-2.59,10.97Z"/>
      <path class="cls-1" d="M74.2,78.33v-32.71h-10.09v-5.07h25.77v5.07h-10.09c0,10.9,0,21.8,0,32.71h-5.59Z"/>
      <path class="cls-1" d="M98.88,78.33v-5.07h7.61v-27.64h-7.61v-5.07h20.91v5.07h-7.61v27.64h7.61v5.07h-20.91Z"/>
      <path class="cls-1" d="M141.68,78.85c-2.35,0-4.37-.44-6.08-1.32-1.71-.88-3.02-2.16-3.93-3.83-.92-1.67-1.37-3.63-1.37-5.87,0-5.59,0-11.18,0-16.77,0-2.28.46-4.24,1.37-5.9.91-1.66,2.22-2.92,3.93-3.8,1.71-.88,3.73-1.32,6.08-1.32,2.35,0,4.37.44,6.08,1.32,1.71.88,3.02,2.15,3.93,3.8.91,1.66,1.37,3.61,1.37,5.85,0,5.61,0,11.21,0,16.82,0,2.24-.46,4.2-1.37,5.87-.91,1.67-2.23,2.95-3.93,3.83-1.71.88-3.74,1.32-6.08,1.32ZM141.68,73.88c1.9,0,3.34-.53,4.32-1.58.98-1.05,1.48-2.54,1.48-4.48v-16.77c0-1.97-.49-3.47-1.48-4.5-.98-1.04-2.42-1.55-4.32-1.55-1.86,0-3.3.52-4.29,1.55-1,1.03-1.5,2.54-1.5,4.5v16.77c0,1.93.5,3.42,1.5,4.48,1,1.05,2.43,1.58,4.29,1.58Z"/>
      <path class="cls-1" d="M162.69,78.33c0-12.59,0-25.19,0-37.78h7.04c3.67,10.47,7.35,20.94,11.02,31.41-.07-1-.16-2.19-.26-3.57-.1-1.38-.18-2.81-.23-4.3-.05-1.48-.08-2.83-.08-4.04v-19.51h5.17v37.78h-7.04l-10.97-31.41c.07.9.15,2.02.23,3.36.08,1.35.15,2.74.21,4.19.05,1.45.08,2.79.08,4.04v19.82h-5.17Z"/>
    </g>
  </g>
</svg>