<svg width="100" height="26" viewBox="0 0 100 26" fill="none" xmlns="http://www.w3.org/2000/svg">
<path d="M76.9161 24.9744C77.2886 24.4876 77.5913 24.0471 77.8241 23.6531C78.0569 23.2358 78.3013 22.7259 78.5574 22.1232C78.8368 21.4973 79.2093 20.5933 79.675 19.4111L86.9039 0.913086H89.8724L97.241 19.2024C97.7067 20.3383 98.0908 21.2655 98.3935 21.9841C98.7194 22.7027 98.9871 23.259 99.1967 23.6531C99.4062 24.024 99.674 24.4644 99.9999 24.9744V25.0787H94.8314V24.9744C94.971 24.5339 95.0176 24.024 94.9711 23.4445C94.9245 22.8649 94.8081 22.2391 94.6218 21.5668C94.4356 20.8714 94.1911 20.1412 93.8884 19.3763L88.0913 4.8074H87.9516L82.2942 19.4458C81.9682 20.3035 81.7238 21.0453 81.5608 21.6712C81.3978 22.297 81.3047 22.8765 81.2814 23.4097C81.2814 23.9428 81.3396 24.4644 81.456 24.9744V25.0787H76.9161V24.9744ZM82.0497 15.4124H93.9234V17.7768H82.0497V15.4124Z" fill="white"/>
<path d="M64.0185 25.5001C61.8533 25.5001 59.8278 25.0017 57.942 24.0049C56.0795 23.0082 54.5895 21.571 53.4719 19.6934C52.3544 17.8158 51.7957 15.6368 51.7957 13.1565C51.7957 10.6298 52.3893 8.41611 53.5767 6.51532C54.7641 4.59134 56.3472 3.1078 58.3262 2.06468C60.3051 1.02156 62.447 0.5 64.7519 0.5C66.1488 0.5 67.4642 0.650674 68.6982 0.952019C69.9321 1.25336 71.0845 1.65902 72.1555 2.16899V8.39293H71.492C70.8168 6.12125 69.8855 4.45226 68.6982 3.38596C67.5341 2.29648 66.1023 1.75174 64.4027 1.75174C62.7031 1.75174 61.2015 2.22694 59.8977 3.17734C58.5939 4.12773 57.5928 5.40266 56.8943 7.00211C56.1959 8.57837 55.8467 10.3285 55.8467 12.2525C55.8467 14.4314 56.2541 16.3206 57.069 17.9201C57.9071 19.5195 59.0479 20.7481 60.4914 21.6058C61.9348 22.4634 63.5529 22.8923 65.3456 22.8923C67.0219 22.8923 68.5352 22.5678 69.8855 21.9187C71.2592 21.2697 72.528 20.2729 73.6921 18.9284L74.3207 19.45C72.9936 21.4899 71.492 23.0082 69.8157 24.0049C68.1627 25.0017 66.2303 25.5001 64.0185 25.5001Z" fill="white"/>
<path d="M29.5817 25.0787C29.5817 23.8269 29.5817 22.8881 29.5817 22.2623C29.5817 21.6364 29.5817 21.0221 29.5817 20.4194C29.5817 19.7935 29.5817 18.8547 29.5817 17.603V8.38877C29.5817 7.13703 29.5817 6.19822 29.5817 5.57235C29.5817 4.94648 29.5817 4.3322 29.5817 3.72951C29.5817 3.10364 29.5817 2.16483 29.5817 0.913086H37.1948C38.9177 0.913086 40.3728 1.19125 41.5602 1.74758C42.7708 2.30391 43.6788 3.06887 44.2841 4.04244C44.8895 5.01602 45.1921 6.14027 45.1921 7.41519C45.1921 8.5974 44.8778 9.67528 44.2492 10.6489C43.6439 11.6224 42.7359 12.3874 41.5252 12.9437C40.3379 13.5001 38.8944 13.7782 37.1948 13.7782L37.2647 13.6044L39.2902 13.4305L48.8241 25.0787H44.7032L35.7979 13.9173H32.6549V17.603C32.6549 18.8547 32.6549 19.7935 32.6549 20.4194C32.6549 21.0221 32.6549 21.6364 32.6549 22.2623C32.6549 22.8881 32.6549 23.8269 32.6549 25.0787H29.5817ZM36.671 11.2052C37.8584 11.2052 38.8478 11.0545 39.6394 10.7532C40.431 10.4286 41.013 9.98822 41.3856 9.43189C41.7813 8.85238 41.9792 8.18015 41.9792 7.41519C41.9792 6.16345 41.5485 5.22464 40.6871 4.59877C39.8257 3.94972 38.487 3.62519 36.671 3.62519H32.6549V11.2052H36.671Z" fill="white"/>
<path d="M-0.00012207 24.4167C0.651766 24.324 1.17561 24.1617 1.5714 23.9299C1.96719 23.6981 2.31641 23.3504 2.61908 22.8868C2.94502 22.4232 3.2826 21.7394 3.63183 20.8353L11.6291 0.703125H12.6069L21.0931 20.5572C21.5355 21.6003 21.908 22.3652 22.2106 22.852C22.5133 23.3388 22.8392 23.6981 23.1885 23.9299C23.5377 24.1385 24.0266 24.3008 24.6552 24.4167V25.0773H14.9467V24.4167C15.9711 24.3471 16.7162 24.1617 17.1818 23.8604C17.6474 23.559 17.8802 23.1649 17.8802 22.6782C17.9035 22.1682 17.7638 21.5539 17.4612 20.8353L11.1402 5.71009H10.9656L4.95889 20.9049C4.65622 21.6698 4.52818 22.2841 4.57474 22.7477C4.6213 23.2113 4.88904 23.5822 5.37796 23.8604C5.86687 24.1153 6.65845 24.3008 7.75269 24.4167V25.0773H-0.00012207V24.4167ZM6.04149 15.8283H16.4484V17.0453H6.04149V15.8283Z" fill="white"/>
</svg>
