<svg width="150" height="22" viewBox="0 0 188 28" fill="none" xmlns="http://www.w3.org/2000/svg">
  <path d="M97.7101 4.18258H108.914V27.2042H112.766V4.18258H123.97V0.795898H97.7101V4.18258Z" fill="white"></path>
  <path d="M14.9099 0.5H14.5792C5.25191 0.5 0 5.29585 0 13.8131V14.1869C0 22.7042 5.25191 27.5 14.5792 27.5H14.9099C22.3687 27.5 27.9128 24.0433 27.9128 18.6479V18.4611H23.6913V18.6479C23.6913 22.3304 19.4698 24.2612 14.9099 24.2612H14.5792C7.71254 24.2612 4.14463 20.8356 4.14463 14.1791V13.8054C4.14463 7.18772 7.70485 3.72318 14.5792 3.72318H14.9099C19.4621 3.72318 23.6913 5.65398 23.6913 9.33651V9.52336H27.9128V9.33651C27.9205 3.95675 22.3687 0.5 14.9099 0.5Z" fill="white"></path>
  <path d="M80.7779 0.499946H80.4473C71.12 0.499946 65.8604 5.29579 65.8604 13.8131V14.1868C65.8604 22.7041 71.1123 27.4999 80.4473 27.4999H80.7779C88.2367 27.4999 93.7808 24.0432 93.7808 18.6479V18.461H89.5593V18.6479C89.5593 22.3304 85.3378 24.2612 80.7779 24.2612H80.4473C73.5806 24.2612 70.0127 20.8356 70.0127 14.179V13.8053C70.0127 7.18766 73.5729 3.72313 80.4473 3.72313H80.7779C85.3301 3.72313 89.5593 5.65393 89.5593 9.33645V9.5233H93.7808V9.33645C93.7808 3.94112 88.2367 0.484375 80.7779 0.484375V0.499946Z" fill="white"></path>
  <path d="M180.764 12.8867L172.536 11.6566C168.938 11.1349 167.684 10.0216 167.684 8.0519V7.79498C167.684 5.45156 169.814 3.73875 175.143 3.73875H175.728C181.018 3.73875 183.148 5.78633 183.148 7.90398V8.09083H187.223V7.90398C187.223 3.62976 183.479 0.5 175.766 0.5H175.182C167.538 0.5 163.832 3.59083 163.832 7.75605V8.12976C163.832 12.0303 166.331 14.3036 171.145 15.0121L179.334 16.2033C182.787 16.686 184.148 17.6903 184.148 19.8469V20.1038C184.148 22.4862 181.91 24.269 176.174 24.269H175.589C169.015 24.269 166.954 22.1514 166.954 19.3564V19.1695H162.802V19.3564C162.802 24.1912 166.146 27.5 175.551 27.5H176.104C184.371 27.5 188.008 24.4481 188.008 20.026V19.6522C188.008 15.5649 185.439 13.5874 180.772 12.8867H180.764Z" fill="white"></path>
  <path d="M142.486 0.5H142.155C132.828 0.5 127.606 5.29585 127.606 13.8131V14.1869C127.606 22.7042 132.82 27.5 142.155 27.5H142.486C151.744 27.5 156.996 22.7042 156.996 14.1869V13.8131C156.996 5.29585 151.744 0.5 142.486 0.5ZM152.897 18.6246C152.866 19.6522 152.32 20.6566 151.159 21.404L142.301 26.7215L133.435 21.3962C132.259 20.6332 131.72 19.6133 131.705 18.5701V9.42993C131.72 8.37111 132.282 7.32785 133.504 6.56488L142.301 1.28633L151.198 6.62716C152.336 7.37457 152.859 8.37111 152.897 9.38322V18.6246Z" fill="white"></path>
  <path d="M43.4071 0.795898L31.796 27.2042H35.8406L38.9395 20.1039H55.1489L58.2478 27.2042H62.2924L50.689 0.795898H43.4071ZM40.3774 16.8262L47.0442 1.58223L53.711 16.8262H40.3697H40.3774Z" fill="white"></path>
</svg>