<svg width="822" height="137" viewBox="0 0 822 137" fill="none" xmlns="http://www.w3.org/2000/svg">
<path d="M43.2137 53.0789L83.6091 106H60.2017L25.8343 59.8114V106H6.26286V2.66285H25.8343V46.8943L57.6966 2.66285H79.8514L43.2137 53.0789ZM120.554 107.879C113.717 107.879 107.611 106.418 102.235 103.495C96.9116 100.572 92.7364 96.5796 89.7093 91.5171C86.6823 86.4025 85.1687 80.5832 85.1687 74.0594C85.1687 67.5356 86.6823 61.7164 89.7093 56.6017C92.7364 51.4349 96.9116 47.364 102.235 44.3891C107.611 41.3621 113.717 39.8486 120.554 39.8486C127.443 39.8486 133.523 41.3621 138.794 44.3891C144.066 47.364 148.189 51.4349 151.164 56.6017C154.138 61.7164 155.626 67.5356 155.626 74.0594C155.626 80.5832 154.138 86.4025 151.164 91.5171C148.189 96.5796 144.066 100.572 138.794 103.495C133.523 106.418 127.443 107.879 120.554 107.879ZM120.554 91.3606C123.842 91.3606 126.686 90.6299 129.087 89.1686C131.54 87.655 133.419 85.5935 134.724 82.984C136.081 80.3223 136.759 77.3213 136.759 73.9811C136.759 70.641 136.081 67.64 134.724 64.9783C133.419 62.3166 131.54 60.2289 129.087 58.7154C126.686 57.1497 123.842 56.3669 120.554 56.3669C117.266 56.3669 114.395 57.1497 111.942 58.7154C109.542 60.2289 107.663 62.3166 106.306 64.9783C104.949 67.64 104.27 70.641 104.27 73.9811C104.27 77.3213 104.949 80.3223 106.306 82.984C107.663 85.5935 109.542 87.655 111.942 89.1686C114.395 90.6299 117.266 91.3606 120.554 91.3606ZM253.051 39.8486C257.853 39.8486 262.028 40.8663 265.577 42.9017C269.178 44.9371 271.97 48.0686 273.954 52.296C275.989 56.4712 277.007 61.8469 277.007 68.4229V106H257.435V71.6326C257.435 66.2048 256.626 61.9773 255.008 58.9503C253.443 55.9232 250.442 54.4097 246.006 54.4097C243.5 54.4097 241.204 55.0882 239.116 56.4451C237.029 57.7499 235.359 59.681 234.106 62.2383C232.906 64.7956 232.306 67.927 232.306 71.6326V106H213.987V71.6326C213.987 66.2048 213.073 61.9773 211.247 58.9503C209.42 55.9232 206.523 54.4097 202.557 54.4097C200 54.4097 197.677 55.0621 195.59 56.3669C193.554 57.6716 191.936 59.6027 190.736 62.16C189.588 64.6651 189.014 67.8227 189.014 71.6326V106H169.286V41.7274H189.014V51.1217C189.588 49.5038 190.892 47.8337 192.928 46.1114C195.015 44.3891 197.599 42.9278 200.678 41.7274C203.757 40.4749 207.071 39.8486 210.62 39.8486C214.482 39.8486 217.692 40.501 220.25 41.8057C222.807 43.1105 224.868 44.7806 226.434 46.816C228.052 48.7992 229.278 50.8869 230.114 53.0789C230.844 51.0434 232.279 49.008 234.419 46.9726C236.559 44.9371 239.247 43.2409 242.483 41.884C245.718 40.527 249.241 39.8486 253.051 39.8486ZM311.458 72.4937C311.458 78.2347 312.607 82.8274 314.903 86.272C317.199 89.6644 320.905 91.3606 326.02 91.3606C331.186 91.3606 334.918 89.6644 337.214 86.272C339.511 82.8274 340.659 78.2347 340.659 72.4937V41.7274H360.23V74.764C360.23 81.3922 358.9 87.2114 356.238 92.2217C353.576 97.1798 349.688 101.042 344.573 103.808C339.511 106.522 333.326 107.879 326.02 107.879C318.765 107.879 312.581 106.522 307.466 103.808C302.403 101.042 298.541 97.1798 295.88 92.2217C293.218 87.2114 291.887 81.3922 291.887 74.764V41.7274H311.458V72.4937Z" fill="#ffffff"/>
<path d="M444.545 62.7863H403.524V106H384.109V2.66285H403.524V45.5634H444.545V2.66285H463.96V106H444.545V62.7863ZM514.429 107.879C507.592 107.879 501.486 106.418 496.11 103.495C490.787 100.572 486.611 96.5796 483.584 91.5171C480.557 86.4025 479.044 80.5832 479.044 74.0594C479.044 67.5356 480.557 61.7164 483.584 56.6017C486.611 51.4349 490.787 47.364 496.11 44.3891C501.486 41.3621 507.592 39.8486 514.429 39.8486C521.318 39.8486 527.398 41.3621 532.669 44.3891C537.941 47.364 542.064 51.4349 545.039 56.6017C548.013 61.7164 549.501 67.5356 549.501 74.0594C549.501 80.5832 548.013 86.4025 545.039 91.5171C542.064 96.5796 537.941 100.572 532.669 103.495C527.398 106.418 521.318 107.879 514.429 107.879ZM514.429 91.3606C517.717 91.3606 520.561 90.6299 522.962 89.1686C525.415 87.655 527.294 85.5935 528.599 82.984C529.956 80.3223 530.634 77.3213 530.634 73.9811C530.634 70.641 529.956 67.64 528.599 64.9783C527.294 62.3166 525.415 60.2289 522.962 58.7154C520.561 57.1497 517.717 56.3669 514.429 56.3669C511.141 56.3669 508.27 57.1497 505.817 58.7154C503.417 60.2289 501.538 62.3166 500.181 64.9783C498.824 67.64 498.145 70.641 498.145 73.9811C498.145 77.3213 498.824 80.3223 500.181 82.984C501.538 85.5935 503.417 87.655 505.817 89.1686C508.27 90.6299 511.141 91.3606 514.429 91.3606ZM646.926 39.8486C651.728 39.8486 655.903 40.8663 659.452 42.9017C663.053 44.9371 665.845 48.0686 667.829 52.296C669.864 56.4712 670.882 61.8469 670.882 68.4229V106H651.31V71.6326C651.31 66.2048 650.501 61.9773 648.883 58.9503C647.318 55.9232 644.317 54.4097 639.881 54.4097C637.375 54.4097 635.079 55.0882 632.991 56.4451C630.904 57.7499 629.234 59.681 627.981 62.2383C626.781 64.7956 626.181 67.927 626.181 71.6326V106H607.862V71.6326C607.862 66.2048 606.948 61.9773 605.122 58.9503C603.295 55.9232 600.398 54.4097 596.432 54.4097C593.875 54.4097 591.552 55.0621 589.465 56.3669C587.429 57.6716 585.811 59.6027 584.611 62.16C583.463 64.6651 582.889 67.8227 582.889 71.6326V106H563.161V41.7274H582.889V51.1217C583.463 49.5038 584.767 47.8337 586.803 46.1114C588.89 44.3891 591.474 42.9278 594.553 41.7274C597.632 40.4749 600.946 39.8486 604.495 39.8486C608.357 39.8486 611.567 40.501 614.125 41.8057C616.682 43.1105 618.743 44.7806 620.309 46.816C621.927 48.7992 623.153 50.8869 623.989 53.0789C624.719 51.0434 626.154 49.008 628.294 46.9726C630.434 44.9371 633.122 43.2409 636.358 41.884C639.593 40.527 643.116 39.8486 646.926 39.8486ZM701.341 78.2869C701.497 81.2095 702.28 83.819 703.689 86.1154C705.099 88.4118 707.134 90.2124 709.796 91.5171C712.51 92.8219 715.745 93.4743 719.503 93.4743C722.896 93.4743 725.87 93.0568 728.428 92.2217C731.037 91.3867 733.229 90.369 735.004 89.1686C736.83 87.916 738.187 86.7156 739.075 85.5674L747.295 97.78C745.833 99.6067 743.876 101.303 741.423 102.869C739.022 104.382 735.943 105.582 732.185 106.47C728.48 107.409 723.835 107.879 718.251 107.879C711.205 107.879 705.02 106.496 699.697 103.73C694.373 100.964 690.224 96.971 687.249 91.752C684.275 86.533 682.787 80.3223 682.787 73.12C682.787 66.8571 684.118 61.2206 686.78 56.2103C689.441 51.1478 693.304 47.1552 698.366 44.2326C703.481 41.3099 709.613 39.8486 716.763 39.8486C723.496 39.8486 729.315 41.1533 734.221 43.7629C739.179 46.3202 743.015 50.0779 745.729 55.036C748.443 59.9941 749.8 66.0482 749.8 73.1983C749.8 73.6158 749.774 74.477 749.721 75.7817C749.721 77.0343 749.669 77.8693 749.565 78.2869H701.341ZM731.168 65.996C731.116 64.3259 730.594 62.5253 729.602 60.5943C728.663 58.6632 727.175 57.0192 725.14 55.6623C723.104 54.3053 720.39 53.6269 716.998 53.6269C713.606 53.6269 710.813 54.2792 708.621 55.584C706.482 56.8888 704.864 58.5067 703.768 60.4377C702.672 62.3166 702.045 64.1693 701.889 65.996H731.168ZM790.157 39.8486C794.019 39.8486 797.594 40.2139 800.882 40.9446C804.17 41.623 806.937 42.4059 809.181 43.2931C811.477 44.1804 812.991 44.9371 813.721 45.5634L806.91 57.5411C805.867 56.7061 803.988 55.7145 801.274 54.5663C798.612 53.4181 795.637 52.844 792.349 52.844C789.374 52.844 786.869 53.3659 784.834 54.4097C782.798 55.4013 781.781 56.9149 781.781 58.9503C781.781 60.9857 782.877 62.6036 785.069 63.804C787.261 65.0044 790.314 66.0482 794.228 66.9354C797.516 67.6139 800.752 68.6577 803.936 70.0669C807.119 71.4238 809.755 73.407 811.842 76.0166C813.93 78.5739 814.974 81.9924 814.974 86.272C814.974 90.4994 814.061 94.0223 812.234 96.8406C810.459 99.6067 808.085 101.799 805.11 103.417C802.135 105.034 798.873 106.183 795.324 106.861C791.775 107.54 788.252 107.879 784.756 107.879C780.215 107.879 776.222 107.435 772.778 106.548C769.333 105.713 766.489 104.747 764.245 103.651C762.053 102.503 760.487 101.538 759.548 100.755L766.358 87.4463C767.715 88.6467 769.933 89.9775 773.013 91.4389C776.144 92.848 779.51 93.5526 783.112 93.5526C786.869 93.5526 789.818 92.9002 791.958 91.5954C794.15 90.2907 795.246 88.5423 795.246 86.3503C795.246 84.7324 794.724 83.4276 793.68 82.436C792.636 81.3922 791.201 80.531 789.374 79.8526C787.548 79.1741 785.408 78.5739 782.955 78.052C780.711 77.5823 778.414 76.9038 776.066 76.0166C773.717 75.0771 771.525 73.8507 769.49 72.3371C767.454 70.8236 765.81 68.9448 764.558 66.7006C763.305 64.4042 762.679 61.6642 762.679 58.4806C762.679 54.4097 763.984 51.0173 766.593 48.3034C769.203 45.5373 772.595 43.4497 776.77 42.0406C780.946 40.5792 785.408 39.8486 790.157 39.8486Z" fill="#ffffff"/>
</svg>