<svg id="svg" version="1.1" xmlns="http://www.w3.org/2000/svg" xmlns:xlink="http://www.w3.org/1999/xlink" width="400" height="55.778546712802765" viewBox="0, 0, 400,55.778546712802765"><g id="svgg"><path id="path0" d="M10.410 6.724 C 10.094 7.030,9.886 7.330,9.946 7.390 C 10.006 7.451,9.967 7.500,9.859 7.500 C 9.710 7.500,9.664 10.452,9.669 19.737 C 9.675 31.555,9.737 33.182,10.171 32.914 C 10.248 32.866,10.420 32.984,10.554 33.176 C 10.689 33.368,10.917 33.542,11.061 33.563 C 11.206 33.584,11.367 33.645,11.420 33.698 C 11.473 33.751,11.775 33.736,12.091 33.665 C 12.421 33.591,12.625 33.599,12.572 33.684 C 12.522 33.766,12.560 33.833,12.657 33.833 C 12.754 33.833,12.833 33.758,12.833 33.667 C 12.833 33.575,12.927 33.499,13.042 33.497 C 13.156 33.496,13.487 33.290,13.777 33.039 C 14.066 32.788,14.496 32.443,14.732 32.271 C 14.968 32.099,15.119 31.891,15.068 31.808 C 15.017 31.726,15.051 31.679,15.143 31.704 C 15.235 31.729,16.063 31.000,16.983 30.083 C 17.903 29.167,19.287 27.801,20.058 27.049 C 20.829 26.298,21.415 25.637,21.360 25.582 C 21.305 25.527,21.394 25.534,21.557 25.596 C 21.773 25.679,21.878 25.614,21.946 25.355 C 21.997 25.160,22.133 25.000,22.249 25.000 C 22.365 25.000,22.562 24.869,22.688 24.708 C 22.900 24.438,22.892 24.435,22.583 24.662 C 22.330 24.848,22.345 24.800,22.647 24.461 C 22.866 24.215,23.125 24.030,23.224 24.049 C 23.323 24.068,23.481 23.915,23.575 23.708 C 23.669 23.502,23.813 23.333,23.894 23.333 C 24.545 23.333,26.498 20.727,26.467 19.900 C 26.432 18.952,23.870 15.780,23.288 15.962 C 23.208 15.988,23.190 15.931,23.248 15.836 C 23.307 15.742,23.223 15.614,23.063 15.552 C 22.902 15.491,21.861 14.516,20.750 13.387 C 19.638 12.257,18.677 11.333,18.614 11.333 C 18.405 11.333,17.859 10.696,17.972 10.583 C 18.033 10.522,18.008 10.496,17.917 10.525 C 17.825 10.553,16.850 9.678,15.750 8.578 C 13.066 5.897,11.737 5.435,10.410 6.724 M49.066 6.380 C 48.523 6.672,46.521 8.733,46.622 8.896 C 46.675 8.982,46.646 9.007,46.557 8.952 C 46.373 8.838,42.059 13.146,42.129 13.375 C 42.154 13.457,42.111 13.485,42.033 13.437 C 41.831 13.312,39.797 15.406,39.954 15.578 C 40.025 15.656,40.000 15.672,39.897 15.614 C 39.672 15.486,39.114 16.058,39.291 16.236 C 39.360 16.305,39.336 16.336,39.238 16.306 C 38.977 16.224,36.991 18.182,37.115 18.399 C 37.173 18.500,37.156 18.525,37.077 18.453 C 36.910 18.301,34.667 20.473,34.667 20.787 C 34.667 20.904,34.573 20.981,34.458 20.958 C 34.344 20.935,34.269 21.010,34.292 21.125 C 34.315 21.240,34.248 21.333,34.144 21.333 C 34.040 21.333,32.162 23.152,29.970 25.375 C 27.778 27.598,24.490 30.917,22.663 32.750 C 20.836 34.583,18.908 36.518,18.379 37.049 C 17.850 37.581,17.342 38.080,17.250 38.159 C 16.145 39.111,11.667 43.659,11.667 43.829 C 11.667 43.954,11.618 44.006,11.558 43.946 C 11.146 43.535,9.789 45.521,9.785 46.540 C 9.780 47.960,9.846 48.138,10.581 48.686 L 11.219 49.161 31.194 49.161 C 53.215 49.161,51.124 49.257,52.313 48.192 L 52.750 47.801 52.792 27.641 C 52.819 14.237,52.777 7.515,52.667 7.583 C 52.575 7.640,52.500 7.569,52.500 7.427 C 52.500 6.494,50.172 5.784,49.066 6.380 M226.293 27.667 L 226.250 49.167 229.083 49.164 C 230.642 49.163,232.008 49.103,232.121 49.032 C 232.357 48.882,232.517 31.500,232.282 31.500 C 232.208 31.500,232.207 31.406,232.279 31.292 C 232.352 31.177,232.419 31.046,232.429 31.000 C 232.438 30.954,232.504 30.782,232.577 30.618 C 232.649 30.453,232.667 30.279,232.618 30.229 C 232.569 30.180,232.632 29.893,232.758 29.591 C 232.884 29.289,232.940 28.995,232.882 28.938 C 232.825 28.880,232.870 28.833,232.982 28.833 C 233.094 28.833,233.140 28.758,233.083 28.667 C 233.027 28.575,233.072 28.500,233.185 28.500 C 233.297 28.500,233.340 28.451,233.279 28.390 C 233.219 28.330,233.253 28.180,233.355 28.057 C 233.457 27.934,233.488 27.833,233.424 27.833 C 233.360 27.833,233.573 27.522,233.899 27.143 C 234.224 26.763,234.443 26.376,234.386 26.283 C 234.329 26.191,234.363 26.165,234.462 26.227 C 234.562 26.288,234.691 26.186,234.750 26.000 C 234.809 25.814,234.924 25.703,235.005 25.753 C 235.086 25.803,235.276 25.654,235.429 25.422 C 235.581 25.190,235.809 25.000,235.936 25.000 C 236.063 25.000,236.167 24.925,236.167 24.833 C 236.167 24.742,236.223 24.683,236.292 24.704 C 236.360 24.724,236.638 24.593,236.909 24.412 C 237.180 24.231,237.537 24.074,237.701 24.063 C 237.865 24.051,238.019 24.027,238.042 24.008 C 238.362 23.750,241.666 23.635,241.958 23.872 C 242.073 23.965,242.167 23.985,242.167 23.917 C 242.167 23.848,242.279 23.886,242.417 24.000 C 242.554 24.114,242.667 24.156,242.667 24.093 C 242.667 23.953,244.036 24.685,244.206 24.917 C 244.273 25.008,244.329 25.024,244.331 24.952 C 244.332 24.879,244.539 25.010,244.790 25.243 C 245.041 25.476,245.299 25.667,245.362 25.667 C 245.426 25.667,245.531 25.835,245.596 26.042 C 245.662 26.248,245.892 26.696,246.108 27.038 C 246.323 27.380,246.500 27.774,246.500 27.913 C 246.500 28.053,246.573 28.167,246.661 28.167 C 246.750 28.167,246.780 28.279,246.727 28.417 C 246.674 28.554,246.722 28.667,246.833 28.667 C 246.945 28.667,246.993 28.779,246.940 28.917 C 246.887 29.054,246.918 29.167,247.008 29.167 C 247.098 29.167,247.168 29.373,247.163 29.625 C 247.158 29.877,247.153 34.377,247.151 39.625 L 247.149 49.167 250.330 49.167 L 253.510 49.167 253.446 39.208 C 253.382 29.312,253.365 28.789,253.091 28.346 C 252.988 28.180,253.009 28.153,253.167 28.250 C 253.325 28.348,253.345 28.321,253.239 28.151 C 253.079 27.895,253.084 27.918,252.950 26.815 C 252.899 26.392,252.695 25.680,252.498 25.231 C 252.301 24.783,252.034 24.173,251.906 23.875 C 251.777 23.577,251.591 23.333,251.493 23.333 C 251.394 23.333,251.356 23.265,251.407 23.182 C 251.459 23.098,251.352 22.854,251.169 22.640 C 250.986 22.425,250.680 22.043,250.488 21.790 C 250.297 21.537,250.071 21.373,249.987 21.425 C 249.902 21.477,249.833 21.408,249.833 21.271 C 249.833 21.134,249.530 20.811,249.160 20.552 C 248.790 20.294,248.330 19.954,248.139 19.795 C 247.947 19.637,247.725 19.547,247.645 19.597 C 247.565 19.646,247.500 19.616,247.500 19.530 C 247.500 19.364,246.502 18.894,246.292 18.960 C 246.223 18.982,246.167 18.924,246.167 18.830 C 246.167 18.730,245.986 18.706,245.725 18.771 C 245.414 18.849,245.319 18.825,245.402 18.691 C 245.481 18.563,245.338 18.495,244.968 18.486 C 244.665 18.478,244.229 18.441,244.000 18.402 C 241.864 18.042,237.099 18.487,237.427 19.016 C 237.481 19.103,237.463 19.164,237.387 19.151 C 237.024 19.088,236.657 19.183,236.740 19.318 C 236.792 19.401,236.684 19.430,236.500 19.382 C 236.314 19.333,236.167 19.376,236.167 19.481 C 236.167 19.583,236.062 19.667,235.934 19.667 C 235.806 19.667,235.525 19.853,235.309 20.080 C 235.093 20.308,234.855 20.496,234.780 20.497 C 234.638 20.500,233.500 21.653,233.500 21.795 C 233.500 21.841,233.368 21.999,233.207 22.147 C 233.046 22.295,232.788 22.679,232.635 23.000 C 232.368 23.555,232.354 23.153,232.344 14.875 L 232.333 6.167 229.335 6.167 L 226.336 6.167 226.293 27.667 M325.611 6.278 C 325.550 6.339,325.500 16.014,325.500 27.778 L 325.500 49.167 328.583 49.167 L 331.667 49.167 331.667 27.667 L 331.667 6.167 328.694 6.167 C 327.060 6.167,325.672 6.217,325.611 6.278 M363.333 27.675 L 363.333 49.184 366.458 49.134 L 369.583 49.083 369.613 40.083 C 369.629 35.133,369.679 30.971,369.725 30.833 C 369.770 30.696,369.864 30.283,369.932 29.917 C 370.001 29.550,370.066 29.212,370.076 29.167 C 370.087 29.121,370.184 28.924,370.292 28.730 C 370.400 28.536,370.441 28.330,370.383 28.272 C 370.325 28.214,370.359 28.167,370.459 28.167 C 370.559 28.167,370.690 27.942,370.750 27.668 C 370.810 27.393,370.985 27.095,371.138 27.006 C 371.291 26.917,371.373 26.841,371.320 26.838 C 371.158 26.830,373.038 24.965,373.239 24.935 C 373.342 24.920,373.660 24.742,373.945 24.539 C 374.230 24.336,374.603 24.148,374.773 24.122 C 374.944 24.095,375.188 24.009,375.315 23.929 C 375.715 23.680,378.842 23.633,379.130 23.872 C 379.270 23.988,379.411 24.065,379.442 24.042 C 379.499 24.001,379.577 24.006,379.917 24.070 C 380.843 24.246,383.167 26.160,383.167 26.747 C 383.167 26.892,383.279 27.053,383.416 27.106 C 383.553 27.159,383.626 27.264,383.580 27.339 C 383.533 27.415,383.572 27.525,383.667 27.583 C 383.761 27.642,383.799 27.754,383.750 27.833 C 383.701 27.912,383.734 28.022,383.823 28.077 C 383.912 28.132,383.946 28.280,383.898 28.405 C 383.850 28.530,383.892 28.683,383.991 28.745 C 384.091 28.806,384.129 28.926,384.076 29.012 C 384.023 29.097,384.069 29.167,384.176 29.167 C 384.290 29.167,384.336 29.306,384.285 29.500 C 384.237 29.684,384.262 29.794,384.341 29.745 C 384.419 29.697,384.456 29.939,384.423 30.284 C 384.389 30.629,384.395 30.965,384.435 31.030 C 384.476 31.095,384.525 35.184,384.546 40.116 L 384.583 49.083 387.551 49.129 L 390.518 49.174 390.454 38.462 C 390.391 27.961,390.376 27.467,390.110 27.040 C 390.037 26.925,390.026 26.681,390.084 26.499 C 390.144 26.309,390.113 26.167,390.011 26.167 C 389.913 26.167,389.833 26.029,389.833 25.861 C 389.833 25.693,389.777 25.499,389.708 25.431 C 389.640 25.362,389.577 25.256,389.569 25.194 C 389.554 25.080,389.431 24.751,389.112 23.970 C 389.011 23.725,388.870 23.561,388.798 23.605 C 388.726 23.650,388.667 23.526,388.667 23.330 C 388.667 23.135,388.429 22.736,388.138 22.446 C 387.847 22.155,387.641 21.917,387.679 21.917 C 387.718 21.917,387.449 21.598,387.083 21.209 C 386.716 20.819,386.357 20.500,386.284 20.500 C 386.212 20.500,385.950 20.312,385.703 20.083 C 385.456 19.854,385.121 19.667,384.960 19.667 C 384.799 19.667,384.667 19.587,384.667 19.490 C 384.667 19.393,384.592 19.360,384.500 19.417 C 384.408 19.473,384.333 19.428,384.333 19.315 C 384.333 19.203,384.287 19.158,384.230 19.214 C 384.173 19.271,384.017 19.208,383.883 19.074 C 383.749 18.940,383.571 18.873,383.487 18.925 C 383.402 18.977,383.333 18.932,383.333 18.825 C 383.333 18.718,383.223 18.673,383.089 18.725 C 382.954 18.777,382.800 18.748,382.747 18.662 C 382.694 18.576,382.485 18.509,382.283 18.513 C 382.082 18.517,381.467 18.460,380.917 18.385 C 379.234 18.158,375.793 18.337,375.438 18.670 C 375.358 18.746,375.189 18.768,375.063 18.719 C 374.937 18.671,374.833 18.718,374.833 18.825 C 374.833 18.932,374.758 18.973,374.667 18.917 C 374.575 18.860,374.500 18.893,374.500 18.990 C 374.500 19.087,374.444 19.158,374.375 19.147 C 374.044 19.095,373.824 19.183,373.915 19.331 C 373.973 19.425,373.909 19.455,373.767 19.400 C 373.625 19.346,373.316 19.490,373.052 19.735 C 372.796 19.973,372.524 20.167,372.448 20.167 C 372.372 20.167,372.207 20.260,372.082 20.375 C 371.957 20.490,371.587 20.808,371.260 21.082 C 370.934 21.356,370.667 21.671,370.667 21.782 C 370.667 21.893,370.568 22.043,370.448 22.117 C 370.328 22.190,370.103 22.435,369.948 22.662 C 369.682 23.051,369.667 22.608,369.667 14.620 L 369.667 6.167 366.500 6.167 L 363.333 6.167 363.333 27.675 M342.500 13.833 L 342.500 18.500 339.604 18.500 C 336.040 18.500,336.311 18.254,336.370 21.439 L 336.417 23.917 339.500 23.917 L 342.583 23.917 342.590 32.000 C 342.596 38.877,342.660 41.396,342.838 41.833 C 342.856 41.879,342.857 42.054,342.840 42.223 C 342.822 42.391,342.945 42.685,343.112 42.876 C 343.280 43.068,343.319 43.167,343.200 43.097 C 343.073 43.022,343.124 43.233,343.325 43.608 C 343.513 43.958,343.667 44.332,343.667 44.438 C 343.667 44.544,343.784 44.676,343.927 44.731 C 344.071 44.786,344.146 44.899,344.095 44.981 C 344.044 45.064,344.114 45.175,344.251 45.227 C 344.388 45.280,344.500 45.438,344.500 45.578 C 344.500 45.718,344.617 45.833,344.760 45.833 C 344.903 45.833,344.973 45.908,344.917 46.000 C 344.860 46.092,344.877 46.167,344.955 46.167 C 345.032 46.167,345.453 46.504,345.890 46.917 C 346.326 47.329,346.755 47.667,346.842 47.667 C 346.929 47.667,347.000 47.746,347.000 47.843 C 347.000 47.940,347.069 47.977,347.152 47.925 C 347.236 47.874,347.331 47.908,347.362 48.003 C 347.393 48.097,347.606 48.208,347.835 48.250 C 348.064 48.291,348.806 48.519,349.485 48.756 C 350.382 49.069,350.751 49.134,350.838 48.992 C 350.911 48.874,350.998 48.861,351.058 48.959 C 351.115 49.051,352.538 49.133,354.416 49.152 L 357.675 49.184 357.629 46.384 L 357.583 43.583 354.483 43.500 C 352.370 43.443,351.304 43.351,351.135 43.210 C 350.998 43.096,350.837 43.052,350.776 43.113 C 350.716 43.173,350.667 43.135,350.667 43.028 C 350.667 42.921,350.583 42.833,350.481 42.833 C 350.176 42.833,349.184 41.648,349.280 41.398 C 349.336 41.252,349.254 41.166,349.059 41.164 C 348.799 41.162,348.789 41.136,349.000 41.000 C 349.137 40.911,349.169 40.837,349.069 40.836 C 348.790 40.832,348.794 40.909,348.722 32.208 L 348.655 24.000 353.161 24.000 L 357.667 24.000 357.667 21.316 C 357.667 18.958,357.635 18.643,357.408 18.730 C 357.260 18.787,357.193 18.759,357.251 18.665 C 357.317 18.558,355.829 18.500,353.010 18.500 L 348.667 18.500 348.667 13.833 L 348.667 9.167 345.583 9.167 L 342.500 9.167 342.500 13.833 M87.417 18.339 C 87.142 18.406,86.631 18.469,86.282 18.480 C 85.847 18.494,85.685 18.561,85.766 18.693 C 85.848 18.825,85.772 18.856,85.523 18.791 C 85.320 18.738,85.061 18.796,84.934 18.924 C 84.809 19.049,84.660 19.104,84.603 19.048 C 84.546 18.991,84.500 19.036,84.500 19.149 C 84.500 19.261,84.433 19.312,84.351 19.261 C 84.269 19.210,84.159 19.279,84.107 19.415 C 84.055 19.550,83.913 19.623,83.790 19.576 C 83.668 19.529,83.401 19.683,83.196 19.919 C 82.991 20.154,82.739 20.295,82.636 20.231 C 82.533 20.167,82.494 20.188,82.549 20.277 C 82.604 20.366,82.428 20.569,82.158 20.729 C 81.888 20.888,81.667 21.125,81.667 21.256 C 81.667 21.386,81.479 21.615,81.250 21.765 C 81.021 21.915,80.833 22.182,80.833 22.358 C 80.833 22.533,80.721 22.720,80.584 22.773 C 80.447 22.825,80.377 22.935,80.427 23.017 C 80.478 23.100,80.440 23.167,80.343 23.167 C 80.229 23.167,80.159 22.425,80.146 21.083 C 80.134 19.938,80.116 18.906,80.104 18.792 C 80.083 18.579,75.160 18.387,74.417 18.570 C 74.086 18.651,74.083 18.791,74.083 33.909 L 74.083 49.167 77.120 49.167 L 80.156 49.167 80.164 39.787 C 80.168 34.627,80.214 30.221,80.266 29.995 C 80.318 29.769,80.382 29.341,80.408 29.044 C 80.434 28.747,80.549 28.391,80.665 28.252 C 80.780 28.114,80.827 28.000,80.768 28.000 C 80.710 28.000,80.847 27.708,81.072 27.352 C 81.297 26.995,81.435 26.658,81.379 26.602 C 81.324 26.546,81.365 26.500,81.472 26.500 C 81.579 26.500,81.667 26.422,81.667 26.326 C 81.667 25.121,85.529 23.375,87.775 23.565 C 89.272 23.691,89.333 23.702,89.333 23.840 C 89.333 23.905,89.542 24.000,89.797 24.051 C 90.051 24.102,90.468 24.336,90.722 24.572 C 90.976 24.807,91.257 25.000,91.345 25.000 C 91.434 25.000,91.592 25.185,91.695 25.411 C 91.798 25.638,91.946 25.783,92.024 25.735 C 92.103 25.687,92.167 25.764,92.167 25.907 C 92.167 26.050,92.254 26.167,92.361 26.167 C 92.468 26.167,92.508 26.214,92.450 26.272 C 92.392 26.330,92.492 26.566,92.672 26.795 C 92.852 27.024,93.000 27.393,93.000 27.616 C 93.000 27.863,93.070 27.976,93.180 27.908 C 93.289 27.841,93.343 27.920,93.318 28.107 C 93.294 28.277,93.356 28.695,93.455 29.035 C 93.575 29.443,93.644 32.918,93.659 39.271 C 93.671 44.561,93.720 48.951,93.767 49.028 C 93.814 49.104,95.197 49.167,96.840 49.167 L 99.827 49.167 99.833 39.625 C 99.839 30.192,99.847 29.823,100.056 29.333 C 100.115 29.196,100.192 28.933,100.227 28.750 C 100.411 27.796,100.554 27.333,100.667 27.333 C 100.736 27.333,100.890 27.098,101.010 26.810 C 101.204 26.342,102.393 25.000,102.614 25.000 C 102.663 25.000,102.998 24.766,103.359 24.480 C 103.720 24.194,104.059 24.004,104.113 24.057 C 104.167 24.111,104.357 24.076,104.537 23.980 C 105.281 23.582,108.049 23.420,108.750 23.734 C 108.933 23.816,109.231 23.912,109.412 23.946 C 109.593 23.981,109.943 24.202,110.189 24.438 C 110.434 24.673,110.680 24.859,110.734 24.850 C 111.020 24.803,111.210 24.846,111.119 24.937 C 111.062 24.993,111.106 25.133,111.216 25.248 C 111.746 25.797,112.152 26.334,112.041 26.336 C 111.972 26.337,111.993 26.394,112.087 26.461 C 112.324 26.632,112.721 27.506,112.772 27.972 C 112.796 28.186,112.887 28.449,112.974 28.556 C 113.285 28.938,113.326 30.211,113.327 39.629 L 113.329 49.174 116.373 49.129 L 119.417 49.083 119.463 39.417 C 119.503 30.934,119.437 28.488,119.122 26.833 C 119.095 26.696,119.008 26.478,118.928 26.349 C 118.826 26.186,118.842 26.152,118.981 26.238 C 119.195 26.370,119.056 25.497,118.837 25.333 C 118.718 25.244,118.456 24.691,118.404 24.417 C 118.386 24.325,118.357 24.212,118.340 24.167 C 118.322 24.121,118.280 23.935,118.246 23.753 C 118.212 23.571,118.106 23.396,118.009 23.364 C 117.912 23.332,117.833 23.199,117.833 23.069 C 117.833 22.940,117.766 22.833,117.685 22.833 C 117.603 22.833,117.488 22.643,117.430 22.411 C 117.372 22.179,117.145 21.907,116.925 21.807 C 116.693 21.701,116.563 21.530,116.614 21.397 C 116.662 21.271,116.564 21.119,116.392 21.055 C 116.222 20.993,115.915 20.763,115.708 20.545 C 115.502 20.328,115.333 20.187,115.333 20.233 C 115.333 20.280,115.136 20.135,114.896 19.912 C 114.655 19.689,114.392 19.547,114.312 19.596 C 114.232 19.646,114.167 19.602,114.167 19.500 C 114.167 19.398,114.098 19.356,114.013 19.408 C 113.929 19.460,113.751 19.393,113.617 19.259 C 113.483 19.125,113.327 19.062,113.270 19.119 C 113.213 19.176,113.167 19.130,113.167 19.018 C 113.167 18.906,113.098 18.856,113.014 18.908 C 112.930 18.960,112.836 18.926,112.805 18.833 C 112.774 18.740,112.449 18.631,112.083 18.591 C 111.716 18.551,111.056 18.448,110.616 18.362 C 108.913 18.031,104.333 18.508,104.333 19.018 C 104.333 19.100,104.277 19.154,104.208 19.139 C 103.951 19.083,103.167 19.376,103.167 19.528 C 103.167 19.615,103.105 19.648,103.030 19.602 C 102.955 19.556,102.696 19.701,102.454 19.926 C 102.212 20.150,101.969 20.333,101.914 20.333 C 101.731 20.333,100.499 21.387,100.583 21.472 C 100.628 21.517,100.422 21.778,100.124 22.052 C 99.827 22.325,99.696 22.489,99.833 22.416 C 99.971 22.343,99.840 22.528,99.543 22.827 C 99.246 23.126,99.044 23.437,99.095 23.518 C 99.145 23.600,99.074 23.667,98.938 23.667 C 98.801 23.667,98.642 23.517,98.583 23.333 C 98.525 23.150,98.403 23.000,98.312 23.000 C 98.221 23.000,98.194 22.924,98.251 22.832 C 98.308 22.740,98.238 22.619,98.095 22.565 C 97.952 22.510,97.877 22.398,97.927 22.316 C 97.978 22.234,97.936 22.167,97.833 22.167 C 97.731 22.167,97.691 22.095,97.745 22.008 C 97.799 21.921,97.691 21.769,97.505 21.669 C 97.319 21.570,97.167 21.383,97.167 21.255 C 97.167 21.127,97.017 20.975,96.833 20.917 C 96.650 20.858,96.500 20.742,96.500 20.658 C 96.500 20.480,95.145 19.577,94.958 19.631 C 94.890 19.651,94.833 19.579,94.833 19.472 C 94.833 19.365,94.786 19.326,94.727 19.384 C 94.669 19.442,94.425 19.353,94.185 19.186 C 93.946 19.018,93.656 18.914,93.542 18.954 C 93.427 18.995,93.333 18.942,93.333 18.837 C 93.333 18.733,93.255 18.695,93.159 18.755 C 93.064 18.814,92.879 18.773,92.748 18.665 C 92.618 18.557,92.415 18.502,92.297 18.544 C 92.180 18.585,91.896 18.549,91.667 18.463 C 91.140 18.266,88.082 18.177,87.417 18.339 M137.083 18.377 C 136.442 18.458,135.782 18.597,135.618 18.685 C 135.454 18.773,135.249 18.801,135.163 18.748 C 135.077 18.695,134.837 18.746,134.628 18.861 C 134.420 18.976,134.194 19.055,134.125 19.035 C 134.056 19.016,134.000 19.075,134.000 19.167 C 134.000 19.258,133.818 19.333,133.595 19.333 C 133.373 19.333,133.073 19.451,132.929 19.595 C 132.785 19.739,132.667 19.809,132.667 19.750 C 132.667 19.691,132.549 19.761,132.405 19.905 C 132.261 20.049,132.036 20.167,131.905 20.167 C 131.774 20.167,131.667 20.242,131.667 20.333 C 131.667 20.425,131.554 20.500,131.417 20.500 C 131.279 20.500,131.167 20.575,131.167 20.667 C 131.167 20.758,131.062 20.833,130.934 20.833 C 130.807 20.833,130.659 20.947,130.606 21.085 C 130.553 21.223,130.450 21.317,130.378 21.293 C 130.213 21.239,128.577 22.873,128.629 23.042 C 128.650 23.110,128.610 23.148,128.542 23.125 C 128.473 23.102,128.411 23.121,128.404 23.167 C 128.397 23.212,128.156 23.507,127.870 23.820 C 127.583 24.134,127.384 24.447,127.426 24.515 C 127.468 24.584,127.385 24.758,127.240 24.903 C 127.095 25.048,127.019 25.167,127.071 25.167 C 127.124 25.167,127.014 25.319,126.827 25.506 C 126.641 25.693,126.533 25.918,126.588 26.008 C 126.643 26.097,126.534 26.365,126.346 26.605 C 126.158 26.844,126.045 27.105,126.095 27.186 C 126.145 27.267,126.109 27.333,126.015 27.333 C 125.921 27.333,125.887 27.446,125.940 27.583 C 125.993 27.722,125.945 27.833,125.832 27.833 C 125.705 27.833,125.657 27.989,125.706 28.244 C 125.750 28.470,125.725 28.676,125.652 28.703 C 125.509 28.754,125.356 29.401,125.047 31.250 C 124.792 32.771,124.926 36.134,125.250 36.372 C 125.352 36.448,125.334 36.496,125.202 36.497 C 125.052 36.499,125.033 36.587,125.139 36.792 C 125.222 36.952,125.350 37.383,125.423 37.750 C 125.579 38.526,125.611 38.652,125.664 38.708 C 125.686 38.731,125.724 39.003,125.750 39.312 C 125.775 39.621,125.861 39.921,125.940 39.979 C 126.019 40.036,126.108 40.196,126.138 40.333 C 126.169 40.471,126.303 40.645,126.437 40.721 C 126.586 40.805,126.642 40.983,126.579 41.179 C 126.520 41.366,126.556 41.500,126.665 41.500 C 126.769 41.500,126.815 41.562,126.768 41.637 C 126.722 41.712,126.830 41.899,127.009 42.052 C 127.187 42.205,127.333 42.443,127.333 42.582 C 127.333 42.720,127.413 42.833,127.510 42.833 C 127.607 42.833,127.640 42.908,127.583 43.000 C 127.527 43.092,127.546 43.167,127.625 43.167 C 127.705 43.167,127.945 43.402,128.158 43.690 C 128.371 43.979,128.457 44.160,128.349 44.093 C 128.241 44.026,128.800 44.615,129.593 45.402 C 131.006 46.806,131.293 47.042,131.080 46.625 C 131.021 46.510,131.156 46.614,131.379 46.856 C 131.602 47.098,131.946 47.347,132.142 47.409 C 132.339 47.471,132.500 47.597,132.500 47.688 C 132.500 47.779,132.564 47.814,132.641 47.766 C 132.719 47.718,132.941 47.826,133.134 48.006 C 133.328 48.186,133.568 48.333,133.668 48.333 C 133.768 48.333,134.067 48.446,134.333 48.583 C 134.598 48.720,134.988 48.865,135.199 48.904 C 135.411 48.943,135.583 48.987,135.583 49.000 C 135.583 49.014,135.733 49.052,135.917 49.084 C 136.100 49.115,136.625 49.229,137.083 49.335 C 137.933 49.533,142.918 49.490,143.917 49.276 C 144.192 49.217,144.604 49.136,144.833 49.097 C 145.063 49.057,145.250 49.013,145.250 49.000 C 145.250 48.986,145.387 48.949,145.555 48.917 C 145.722 48.885,146.119 48.736,146.436 48.585 C 146.753 48.435,147.170 48.281,147.362 48.244 C 147.555 48.207,147.839 48.062,147.994 47.922 C 148.149 47.781,148.369 47.667,148.481 47.667 C 148.595 47.667,148.633 47.580,148.566 47.472 C 148.485 47.341,148.535 47.311,148.717 47.381 C 148.888 47.447,149.098 47.345,149.287 47.104 C 149.452 46.895,149.670 46.751,149.773 46.785 C 149.875 46.819,150.147 46.623,150.377 46.350 C 150.608 46.076,150.829 45.885,150.870 45.926 C 150.911 45.966,151.044 45.812,151.167 45.583 C 151.289 45.354,151.476 45.167,151.581 45.167 C 151.686 45.167,151.897 44.904,152.050 44.583 C 152.203 44.262,152.409 44.000,152.507 44.000 C 152.606 44.000,152.645 43.933,152.594 43.851 C 152.543 43.769,152.625 43.654,152.775 43.597 C 152.925 43.539,153.003 43.447,152.948 43.393 C 152.894 43.338,152.956 43.187,153.087 43.056 C 153.217 42.925,153.417 42.503,153.529 42.118 C 153.642 41.732,153.812 41.362,153.909 41.294 C 154.018 41.218,154.021 41.170,153.917 41.167 C 153.825 41.164,153.846 41.101,153.964 41.026 C 154.081 40.951,154.216 40.471,154.263 39.959 L 154.349 39.028 151.411 39.008 C 148.585 38.988,148.469 39.000,148.383 39.327 C 148.334 39.514,148.224 39.667,148.137 39.667 C 148.051 39.667,148.023 39.736,148.076 39.822 C 148.129 39.907,148.095 40.025,148.000 40.083 C 147.905 40.142,147.868 40.255,147.918 40.335 C 147.967 40.415,147.789 40.728,147.523 41.032 C 147.257 41.335,147.015 41.658,146.985 41.750 C 146.902 42.012,145.954 43.010,145.870 42.925 C 145.828 42.883,145.687 42.956,145.556 43.087 C 145.425 43.217,145.003 43.417,144.618 43.529 C 144.232 43.642,143.862 43.812,143.794 43.909 C 143.727 44.005,143.671 44.018,143.669 43.938 C 143.668 43.858,143.562 43.879,143.434 43.985 C 143.306 44.092,143.138 44.167,143.059 44.153 C 142.981 44.139,142.879 44.142,142.833 44.161 C 142.296 44.378,138.667 44.476,138.667 44.274 C 138.667 44.195,138.563 44.171,138.437 44.219 C 138.311 44.268,138.140 44.240,138.058 44.158 C 137.977 44.077,137.761 43.986,137.580 43.958 C 137.398 43.930,137.170 43.857,137.072 43.796 C 136.974 43.734,136.702 43.649,136.468 43.607 C 135.973 43.517,135.333 43.147,135.333 42.950 C 135.333 42.875,135.265 42.856,135.181 42.908 C 135.098 42.959,134.867 42.795,134.669 42.543 C 134.471 42.290,134.361 42.196,134.425 42.333 C 134.490 42.471,134.345 42.380,134.104 42.132 C 133.864 41.884,133.667 41.599,133.667 41.497 C 133.667 41.396,133.604 41.353,133.527 41.400 C 133.449 41.448,133.214 41.254,133.004 40.970 C 132.794 40.685,132.725 40.506,132.852 40.572 C 132.979 40.638,132.952 40.584,132.792 40.452 C 132.631 40.321,132.500 40.128,132.500 40.023 C 132.500 39.919,132.425 39.833,132.333 39.833 C 132.242 39.833,132.164 39.702,132.161 39.542 C 132.158 39.381,132.046 39.104,131.911 38.926 C 131.777 38.749,131.667 38.463,131.667 38.292 C 131.667 38.120,131.599 38.022,131.516 38.074 C 131.432 38.125,131.401 38.025,131.447 37.852 C 131.492 37.679,131.451 37.489,131.355 37.430 C 131.259 37.371,131.224 37.212,131.276 37.076 C 131.328 36.940,131.294 36.736,131.201 36.623 C 131.047 36.435,130.938 35.732,130.982 35.206 C 130.996 35.038,133.330 35.004,142.500 35.039 C 148.825 35.064,154.007 35.046,154.017 35.000 C 154.379 33.178,154.247 30.811,153.665 28.666 C 153.553 28.254,153.438 27.804,153.410 27.667 C 153.382 27.529,153.347 27.417,153.332 27.417 C 153.318 27.417,153.286 27.241,153.263 27.026 C 153.239 26.812,153.152 26.587,153.068 26.526 C 152.985 26.466,152.892 26.304,152.863 26.167 C 152.833 26.029,152.743 25.893,152.664 25.864 C 152.584 25.835,152.560 25.704,152.611 25.573 C 152.661 25.441,152.619 25.333,152.518 25.333 C 152.416 25.333,152.348 25.277,152.367 25.208 C 152.422 24.999,151.729 23.993,151.611 24.112 C 151.550 24.172,151.500 24.076,151.500 23.898 C 151.500 23.549,150.632 22.500,150.343 22.500 C 150.246 22.500,150.167 22.392,150.167 22.259 C 150.167 22.127,149.946 21.888,149.676 21.729 C 149.406 21.569,149.217 21.386,149.257 21.322 C 149.297 21.258,149.105 21.113,148.831 20.999 C 148.557 20.886,148.333 20.740,148.333 20.675 C 148.333 20.610,148.127 20.451,147.875 20.323 C 147.623 20.195,147.154 19.924,146.833 19.723 C 146.512 19.521,145.969 19.305,145.625 19.243 C 145.281 19.180,145.000 19.065,145.000 18.987 C 145.000 18.908,144.887 18.887,144.750 18.940 C 144.612 18.993,144.500 18.945,144.500 18.833 C 144.500 18.698,144.356 18.667,144.069 18.739 C 143.769 18.814,143.674 18.789,143.756 18.657 C 143.838 18.524,143.697 18.491,143.283 18.547 C 142.959 18.591,142.626 18.559,142.543 18.477 C 142.335 18.268,138.497 18.198,137.083 18.377 M271.981 18.237 C 271.870 18.340,270.439 18.534,269.946 18.513 C 269.688 18.502,269.517 18.559,269.566 18.639 C 269.616 18.719,269.471 18.750,269.245 18.706 C 268.996 18.659,268.833 18.705,268.833 18.824 C 268.833 18.932,268.757 18.972,268.664 18.915 C 268.570 18.857,268.244 18.964,267.939 19.153 C 267.634 19.341,267.339 19.450,267.284 19.395 C 267.228 19.339,267.061 19.415,266.913 19.563 C 266.764 19.712,266.545 19.833,266.425 19.833 C 266.305 19.833,266.115 19.945,266.002 20.081 C 265.888 20.218,265.737 20.293,265.665 20.249 C 265.594 20.205,265.492 20.281,265.439 20.418 C 265.387 20.555,265.229 20.667,265.089 20.667 C 264.948 20.667,264.833 20.742,264.833 20.833 C 264.833 20.925,264.748 21.000,264.643 21.000 C 264.538 21.000,264.244 21.218,263.989 21.485 C 263.734 21.752,263.494 21.939,263.456 21.901 C 263.418 21.863,263.244 21.995,263.068 22.194 C 262.890 22.397,262.857 22.494,262.992 22.414 C 263.126 22.336,262.845 22.666,262.367 23.148 C 261.890 23.630,261.500 24.132,261.500 24.262 C 261.500 24.393,261.425 24.500,261.333 24.500 C 261.242 24.500,261.167 24.613,261.167 24.750 C 261.167 24.887,261.087 25.000,260.990 25.000 C 260.893 25.000,260.860 25.075,260.917 25.167 C 260.973 25.258,260.945 25.333,260.854 25.333 C 260.764 25.333,260.638 25.502,260.576 25.708 C 260.462 26.086,260.110 26.944,259.797 27.609 C 259.704 27.807,259.678 28.050,259.740 28.151 C 259.802 28.251,259.774 28.333,259.677 28.333 C 259.579 28.333,259.500 28.543,259.500 28.800 C 259.500 29.057,259.406 29.368,259.292 29.491 C 259.122 29.674,259.130 29.689,259.333 29.576 C 259.544 29.458,259.550 29.478,259.367 29.704 C 258.952 30.215,258.713 35.513,259.045 36.833 C 259.103 37.063,259.187 37.419,259.232 37.626 C 259.277 37.832,259.360 38.076,259.417 38.167 C 259.513 38.323,259.640 38.778,259.743 39.333 C 259.768 39.471,259.900 39.846,260.036 40.167 C 260.350 40.906,260.456 41.211,260.464 41.402 C 260.467 41.485,260.589 41.620,260.735 41.702 C 260.881 41.783,261.000 41.982,261.000 42.144 C 261.000 42.305,261.153 42.601,261.340 42.802 C 261.527 43.003,261.620 43.169,261.548 43.172 C 261.476 43.175,261.582 43.316,261.785 43.485 C 261.987 43.654,262.107 43.837,262.052 43.892 C 261.997 43.947,262.078 44.041,262.232 44.100 C 262.386 44.159,262.625 44.425,262.763 44.692 C 262.901 44.959,263.067 45.150,263.132 45.115 C 263.280 45.037,263.836 45.609,263.722 45.723 C 263.676 45.769,263.813 45.899,264.027 46.013 C 264.241 46.127,264.515 46.358,264.634 46.526 C 264.754 46.695,264.926 46.833,265.016 46.833 C 265.107 46.833,265.339 46.981,265.532 47.161 C 265.726 47.341,265.947 47.449,266.025 47.401 C 266.103 47.353,266.167 47.406,266.167 47.518 C 266.167 47.630,266.215 47.674,266.273 47.616 C 266.332 47.557,266.600 47.695,266.869 47.921 C 267.305 48.288,267.650 48.415,268.042 48.353 C 268.110 48.342,268.167 48.408,268.167 48.500 C 268.167 48.592,268.223 48.655,268.292 48.640 C 268.360 48.626,268.548 48.663,268.708 48.724 C 268.869 48.784,269.131 48.882,269.292 48.942 C 269.452 49.001,269.771 49.070,270.000 49.094 C 270.229 49.118,270.717 49.216,271.083 49.312 C 271.913 49.529,277.097 49.519,277.665 49.300 C 277.895 49.211,278.327 49.137,278.625 49.136 C 278.924 49.134,279.209 49.066,279.260 48.983 C 279.311 48.901,279.463 48.833,279.599 48.833 C 279.734 48.833,280.123 48.710,280.464 48.558 C 280.804 48.407,281.158 48.272,281.250 48.257 C 281.659 48.193,281.989 47.950,281.888 47.788 C 281.820 47.677,281.881 47.649,282.051 47.715 C 282.207 47.774,282.446 47.697,282.608 47.535 C 282.765 47.378,282.911 47.288,282.934 47.333 C 282.957 47.379,283.250 47.173,283.587 46.875 C 283.923 46.577,284.257 46.333,284.328 46.333 C 284.441 46.333,284.744 46.016,286.173 44.404 C 286.341 44.214,286.529 43.858,286.591 43.614 C 286.654 43.359,286.778 43.216,286.879 43.278 C 286.989 43.346,287.018 43.287,286.956 43.124 C 286.897 42.973,286.956 42.822,287.094 42.769 C 287.226 42.718,287.333 42.531,287.333 42.352 C 287.333 42.174,287.412 42.001,287.509 41.969 C 287.606 41.937,287.712 41.762,287.746 41.580 C 287.780 41.399,287.823 41.231,287.841 41.208 C 287.860 41.185,287.884 41.098,287.896 41.014 C 287.907 40.930,287.973 40.805,288.042 40.736 C 288.247 40.531,288.183 40.304,287.958 40.439 C 287.797 40.536,287.794 40.509,287.943 40.324 C 288.049 40.191,288.174 39.837,288.221 39.536 L 288.306 38.989 285.235 39.008 C 283.545 39.018,282.203 39.090,282.251 39.168 C 282.299 39.246,282.261 39.358,282.167 39.417 C 282.072 39.475,282.038 39.593,282.090 39.678 C 282.143 39.764,282.102 39.833,282.000 39.833 C 281.898 39.833,281.857 39.903,281.910 39.988 C 281.962 40.074,281.929 40.191,281.836 40.248 C 281.743 40.306,281.667 40.491,281.667 40.659 C 281.667 40.827,281.554 41.008,281.417 41.060 C 281.279 41.113,281.167 41.271,281.167 41.411 C 281.167 41.552,281.087 41.667,280.990 41.667 C 280.893 41.667,280.852 41.728,280.898 41.803 C 280.944 41.878,280.824 42.047,280.632 42.178 C 280.439 42.309,280.164 42.548,280.020 42.708 C 279.877 42.869,279.663 43.000,279.546 43.000 C 279.429 43.000,279.333 43.069,279.333 43.153 C 279.333 43.238,279.108 43.356,278.833 43.417 C 278.558 43.477,278.333 43.604,278.333 43.698 C 278.333 43.792,278.221 43.826,278.083 43.773 C 277.946 43.720,277.833 43.753,277.833 43.846 C 277.833 43.939,277.740 43.998,277.625 43.977 C 277.510 43.956,277.004 44.028,276.500 44.137 C 275.454 44.363,272.492 44.480,272.609 44.292 C 272.652 44.223,272.419 44.167,272.093 44.167 C 271.767 44.167,271.500 44.104,271.500 44.026 C 271.500 43.949,271.181 43.796,270.792 43.685 C 269.880 43.426,268.667 42.824,268.667 42.631 C 268.667 42.548,268.600 42.521,268.519 42.572 C 268.438 42.622,268.332 42.514,268.285 42.331 C 268.237 42.149,268.078 42.000,267.932 42.000 C 267.786 42.000,267.667 41.888,267.667 41.751 C 267.667 41.615,267.517 41.409,267.333 41.295 C 267.150 41.180,267.000 41.024,267.000 40.948 C 267.000 40.872,266.906 40.705,266.792 40.577 C 266.288 40.016,266.193 39.863,266.288 39.768 C 266.343 39.712,266.297 39.667,266.185 39.667 C 266.072 39.667,266.027 39.592,266.083 39.500 C 266.140 39.408,266.102 39.333,266.000 39.333 C 265.898 39.333,265.852 39.272,265.898 39.197 C 265.945 39.121,265.837 38.820,265.658 38.526 C 265.479 38.232,265.333 37.764,265.333 37.486 C 265.333 37.208,265.269 37.020,265.191 37.068 C 265.112 37.117,265.082 36.981,265.123 36.766 C 265.164 36.552,265.072 36.133,264.918 35.836 C 264.765 35.540,264.720 35.347,264.820 35.408 C 264.919 35.469,265.000 35.446,265.000 35.357 C 265.000 35.268,264.906 35.157,264.792 35.110 C 264.677 35.064,269.762 35.020,276.092 35.013 C 285.053 35.003,287.650 34.954,287.825 34.792 C 288.009 34.621,288.028 34.642,287.932 34.912 C 287.868 35.092,287.876 35.180,287.950 35.106 C 288.117 34.939,288.150 30.500,287.984 30.500 C 287.917 30.500,287.898 30.275,287.941 30.000 C 287.985 29.725,287.946 29.500,287.854 29.500 C 287.763 29.500,287.696 29.268,287.704 28.984 C 287.712 28.700,287.622 28.409,287.504 28.336 C 287.387 28.263,287.339 28.126,287.398 28.030 C 287.457 27.935,287.424 27.806,287.325 27.745 C 287.225 27.683,287.183 27.530,287.231 27.405 C 287.279 27.280,287.246 27.132,287.157 27.077 C 287.068 27.022,287.038 26.907,287.090 26.822 C 287.143 26.736,287.102 26.667,287.000 26.667 C 286.898 26.667,286.856 26.598,286.908 26.513 C 286.960 26.429,286.877 26.234,286.722 26.080 C 286.568 25.925,286.432 25.669,286.421 25.511 C 286.409 25.353,286.235 25.047,286.033 24.830 C 285.832 24.614,285.667 24.342,285.667 24.226 C 285.667 24.023,285.365 23.655,284.313 22.577 C 284.041 22.298,283.872 22.017,283.937 21.952 C 284.002 21.887,283.939 21.833,283.797 21.833 C 283.655 21.833,283.414 21.643,283.262 21.411 C 283.110 21.179,282.922 21.029,282.843 21.077 C 282.765 21.125,282.657 21.048,282.602 20.905 C 282.547 20.762,282.435 20.687,282.352 20.738 C 282.269 20.790,282.161 20.727,282.112 20.599 C 282.063 20.471,281.756 20.279,281.428 20.171 C 281.101 20.063,280.833 19.901,280.833 19.811 C 280.833 19.721,280.764 19.690,280.680 19.742 C 280.596 19.794,280.408 19.718,280.263 19.573 C 280.119 19.428,280.000 19.362,280.000 19.425 C 280.000 19.489,279.887 19.447,279.750 19.333 C 279.612 19.219,279.500 19.184,279.500 19.255 C 279.500 19.327,279.353 19.252,279.174 19.090 C 278.995 18.928,278.639 18.778,278.382 18.758 C 278.126 18.737,277.782 18.661,277.618 18.590 C 277.453 18.518,277.281 18.497,277.234 18.543 C 277.188 18.590,276.872 18.560,276.533 18.478 C 275.912 18.327,272.101 18.125,271.981 18.237 M302.750 18.423 C 302.017 18.554,301.249 18.689,301.045 18.724 C 300.841 18.758,300.567 18.875,300.437 18.983 C 300.307 19.091,300.037 19.211,299.837 19.249 C 299.168 19.378,298.833 19.521,298.833 19.678 C 298.833 19.763,298.721 19.833,298.583 19.833 C 298.446 19.833,298.333 19.913,298.333 20.010 C 298.333 20.107,298.264 20.144,298.180 20.092 C 298.096 20.040,297.917 20.107,297.783 20.241 C 297.649 20.375,297.495 20.439,297.440 20.385 C 297.386 20.330,297.294 20.409,297.236 20.559 C 297.178 20.710,297.065 20.833,296.985 20.833 C 296.718 20.833,294.667 22.755,294.667 23.006 C 294.667 23.094,294.592 23.167,294.500 23.167 C 294.408 23.167,294.333 23.275,294.333 23.408 C 294.333 23.541,294.216 23.716,294.073 23.796 C 293.930 23.876,293.793 24.071,293.770 24.228 C 293.747 24.386,293.619 24.642,293.485 24.799 C 293.351 24.955,293.230 25.121,293.216 25.167 C 293.202 25.212,293.110 25.461,293.012 25.719 C 292.914 25.977,292.833 26.281,292.833 26.394 C 292.833 26.507,292.754 26.680,292.656 26.777 C 292.559 26.874,292.445 27.377,292.403 27.894 L 292.327 28.833 295.150 28.833 L 297.974 28.833 298.083 28.336 C 298.143 28.063,298.200 27.781,298.209 27.711 C 298.232 27.536,299.325 25.665,299.654 25.237 C 299.800 25.046,300.032 24.925,300.168 24.968 C 300.305 25.011,300.362 24.987,300.294 24.914 C 300.227 24.842,300.377 24.672,300.628 24.536 C 302.211 23.677,302.907 23.372,303.106 23.449 C 303.231 23.496,303.333 23.471,303.333 23.393 C 303.333 23.277,307.544 23.228,307.833 23.340 C 307.879 23.358,307.981 23.361,308.059 23.347 C 308.137 23.333,308.512 23.504,308.892 23.727 C 309.272 23.950,309.658 24.142,309.750 24.155 C 309.842 24.168,310.104 24.344,310.333 24.545 C 310.563 24.747,310.825 24.916,310.917 24.922 C 311.008 24.927,311.066 25.018,311.045 25.123 C 311.024 25.228,311.192 25.461,311.420 25.639 C 311.647 25.818,311.833 26.058,311.833 26.172 C 311.833 26.286,311.965 26.487,312.125 26.619 C 312.285 26.750,312.328 26.814,312.220 26.760 C 312.095 26.697,312.118 26.851,312.282 27.181 C 312.759 28.137,312.758 29.675,312.279 30.214 L 311.867 30.679 307.559 30.740 C 302.582 30.812,301.852 30.872,300.250 31.341 C 299.975 31.422,299.549 31.522,299.303 31.564 C 298.767 31.656,297.626 32.170,297.477 32.388 C 297.418 32.473,297.287 32.491,297.185 32.428 C 297.083 32.365,297.000 32.406,297.000 32.518 C 297.000 32.630,296.949 32.671,296.886 32.608 C 296.823 32.545,296.512 32.739,296.194 33.039 C 295.877 33.338,295.678 33.471,295.752 33.333 C 295.827 33.196,295.705 33.271,295.482 33.500 C 295.259 33.729,294.815 34.175,294.496 34.491 C 294.178 34.807,294.029 35.000,294.167 34.921 C 294.304 34.841,294.210 34.986,293.958 35.244 C 293.534 35.678,293.430 35.888,293.480 36.208 C 293.491 36.277,293.421 36.333,293.323 36.333 C 293.226 36.333,293.193 36.408,293.250 36.500 C 293.307 36.592,293.280 36.667,293.190 36.667 C 293.026 36.667,292.734 37.617,292.810 37.901 C 292.833 37.985,292.760 38.109,292.649 38.178 C 292.364 38.354,292.212 41.833,292.489 41.833 C 292.615 41.833,292.649 41.960,292.581 42.175 C 292.521 42.362,292.563 42.625,292.673 42.758 C 292.784 42.891,292.823 43.000,292.761 43.000 C 292.699 43.000,292.759 43.159,292.895 43.352 C 293.030 43.546,293.097 43.821,293.042 43.963 C 292.978 44.132,293.010 44.180,293.136 44.102 C 293.263 44.024,293.295 44.072,293.230 44.241 C 293.176 44.384,293.218 44.500,293.325 44.500 C 293.432 44.500,293.479 44.567,293.428 44.648 C 293.378 44.729,293.449 44.888,293.585 45.002 C 293.722 45.115,293.833 45.315,293.833 45.447 C 293.833 45.579,293.908 45.640,294.000 45.583 C 294.092 45.527,294.167 45.563,294.167 45.664 C 294.167 46.008,295.754 47.667,296.083 47.667 C 296.198 47.667,296.396 47.820,296.521 48.008 C 296.647 48.196,296.919 48.362,297.125 48.377 C 297.331 48.392,297.500 48.463,297.500 48.535 C 297.500 48.608,297.633 48.667,297.796 48.667 C 297.959 48.667,298.240 48.763,298.421 48.880 C 298.602 48.997,298.975 49.118,299.250 49.147 C 299.525 49.176,299.862 49.256,300.000 49.323 C 300.877 49.751,306.766 49.399,307.185 48.894 C 307.289 48.769,307.496 48.666,307.645 48.664 C 308.129 48.660,309.157 48.235,309.585 47.863 C 309.815 47.663,310.047 47.500,310.101 47.500 C 310.266 47.500,312.167 45.532,312.167 45.361 C 312.167 45.274,312.279 45.159,312.417 45.106 C 312.631 45.024,312.667 45.310,312.667 47.089 L 312.667 49.167 315.625 49.167 L 318.583 49.166 318.563 38.516 C 318.552 32.658,318.498 27.614,318.443 27.307 C 318.388 27.001,318.301 26.500,318.250 26.195 C 318.199 25.890,318.041 25.463,317.899 25.246 C 317.756 25.029,317.637 24.791,317.633 24.717 C 317.616 24.365,317.279 23.733,316.912 23.367 C 316.688 23.143,316.554 22.875,316.613 22.772 C 316.672 22.668,316.664 22.634,316.595 22.696 C 316.526 22.758,316.153 22.420,315.766 21.946 C 315.380 21.471,314.968 21.083,314.852 21.083 C 314.735 21.083,314.544 20.952,314.427 20.792 C 314.309 20.631,314.128 20.500,314.023 20.500 C 313.919 20.500,313.833 20.421,313.833 20.323 C 313.833 20.226,313.767 20.188,313.686 20.238 C 313.604 20.289,313.445 20.218,313.332 20.081 C 313.219 19.945,312.983 19.833,312.808 19.833 C 312.633 19.833,312.446 19.721,312.394 19.583 C 312.341 19.446,312.133 19.333,311.931 19.333 C 311.729 19.333,311.421 19.229,311.247 19.102 C 311.073 18.975,310.834 18.908,310.715 18.953 C 310.597 18.998,310.500 18.949,310.500 18.844 C 310.500 18.738,310.406 18.667,310.292 18.686 C 310.177 18.704,309.971 18.674,309.833 18.620 C 308.935 18.262,304.364 18.136,302.750 18.423 M159.999 18.542 C 159.999 18.565,159.980 25.465,159.957 33.875 L 159.917 49.167 162.961 49.167 L 166.005 49.167 166.017 41.208 C 166.030 32.173,166.037 31.833,166.207 31.833 C 166.275 31.833,166.304 31.665,166.270 31.458 C 166.236 31.252,166.285 30.988,166.378 30.871 C 166.471 30.754,166.505 30.616,166.453 30.564 C 166.401 30.512,166.462 30.177,166.589 29.818 C 166.715 29.460,166.775 29.167,166.722 29.167 C 166.669 29.167,166.709 29.066,166.811 28.943 C 166.914 28.820,166.944 28.666,166.878 28.601 C 166.813 28.535,166.853 28.424,166.967 28.354 C 167.081 28.283,167.206 28.062,167.244 27.863 C 167.325 27.445,167.855 26.500,168.009 26.500 C 168.066 26.500,168.199 26.313,168.303 26.083 C 168.407 25.854,168.607 25.667,168.746 25.667 C 168.886 25.667,169.000 25.554,169.000 25.417 C 169.000 25.279,169.107 25.167,169.238 25.167 C 169.369 25.167,169.577 25.066,169.701 24.942 C 170.102 24.541,171.105 24.151,171.810 24.123 C 172.189 24.108,172.500 24.056,172.500 24.006 C 172.500 23.957,173.700 23.941,175.166 23.970 L 177.833 24.023 177.833 21.348 L 177.833 18.673 177.400 18.564 C 177.162 18.505,176.056 18.506,174.942 18.568 C 173.828 18.630,172.634 18.683,172.289 18.685 C 171.944 18.687,171.700 18.752,171.747 18.829 C 171.795 18.906,171.696 18.933,171.527 18.889 C 171.359 18.845,170.941 18.966,170.600 19.157 C 170.258 19.349,169.908 19.463,169.823 19.410 C 169.737 19.357,169.667 19.398,169.667 19.500 C 169.667 19.602,169.594 19.641,169.504 19.586 C 169.415 19.531,169.211 19.639,169.051 19.826 C 168.890 20.013,168.689 20.167,168.602 20.167 C 168.369 20.167,166.833 21.856,166.833 22.113 C 166.833 22.234,166.750 22.333,166.649 22.333 C 166.547 22.333,166.505 22.440,166.556 22.571 C 166.606 22.702,166.539 22.899,166.407 23.008 C 166.275 23.118,166.167 23.344,166.167 23.511 C 166.167 23.677,166.110 23.849,166.042 23.891 C 165.973 23.934,165.939 22.766,165.966 21.297 C 166.011 18.903,165.989 18.635,165.749 18.727 C 165.595 18.787,165.525 18.760,165.585 18.665 C 165.650 18.559,164.674 18.500,162.843 18.500 C 161.279 18.500,160.000 18.519,159.999 18.542 M182.415 18.665 C 182.474 18.760,182.406 18.787,182.256 18.729 C 182.027 18.642,181.934 38.437,182.156 39.833 C 182.212 40.186,182.662 41.866,182.781 42.167 C 182.835 42.304,182.895 42.563,182.914 42.742 C 182.934 42.920,183.036 43.095,183.142 43.131 C 183.249 43.166,183.293 43.264,183.241 43.348 C 183.189 43.431,183.239 43.500,183.351 43.500 C 183.464 43.500,183.510 43.545,183.454 43.601 C 183.399 43.657,183.499 43.858,183.677 44.049 C 183.855 44.240,184.000 44.534,184.000 44.703 C 184.000 44.872,184.112 45.054,184.250 45.106 C 184.387 45.159,184.500 45.279,184.500 45.374 C 184.500 45.468,184.673 45.705,184.884 45.901 C 185.096 46.097,185.320 46.392,185.383 46.556 C 185.446 46.720,185.559 46.817,185.634 46.770 C 185.709 46.724,185.952 46.907,186.175 47.176 C 186.397 47.446,186.666 47.667,186.772 47.667 C 186.878 47.667,187.007 47.778,187.059 47.914 C 187.118 48.067,187.262 48.120,187.438 48.052 C 187.628 47.979,187.682 48.007,187.602 48.136 C 187.524 48.263,187.572 48.295,187.741 48.230 C 187.884 48.176,188.000 48.205,188.000 48.295 C 188.000 48.438,188.767 48.838,189.250 48.946 C 189.342 48.967,189.904 49.104,190.500 49.252 C 192.440 49.732,196.630 49.467,198.243 48.761 C 198.522 48.639,198.979 48.452,199.259 48.346 C 199.539 48.240,199.970 47.966,200.217 47.737 C 200.464 47.507,200.667 47.353,200.667 47.393 C 200.667 47.434,200.892 47.257,201.167 47.000 C 201.442 46.743,201.667 46.478,201.667 46.411 C 201.667 46.344,201.835 46.143,202.042 45.964 C 202.248 45.785,202.417 45.587,202.417 45.524 C 202.417 45.461,202.585 45.228,202.792 45.006 L 203.167 44.604 203.167 46.885 L 203.167 49.167 206.167 49.167 L 209.167 49.167 209.164 34.042 C 209.163 25.723,209.101 18.821,209.027 18.704 C 208.924 18.543,208.216 18.503,206.071 18.538 L 203.250 18.583 203.166 27.750 C 203.093 35.642,203.043 37.026,202.810 37.700 C 202.660 38.130,202.578 38.522,202.626 38.570 C 202.675 38.619,202.629 38.761,202.525 38.886 C 202.421 39.012,202.386 39.163,202.446 39.224 C 202.506 39.284,202.476 39.333,202.378 39.333 C 202.280 39.333,202.066 39.707,201.902 40.163 C 201.738 40.619,201.571 40.960,201.532 40.921 C 201.452 40.841,200.961 41.291,201.036 41.375 C 201.127 41.478,199.661 42.864,199.423 42.899 C 199.291 42.918,199.048 43.055,198.883 43.203 C 198.718 43.351,198.302 43.524,197.958 43.588 C 197.615 43.652,197.333 43.762,197.333 43.834 C 197.333 43.906,197.165 43.973,196.958 43.983 C 194.350 44.108,193.500 44.110,193.500 43.988 C 193.500 43.909,193.387 43.887,193.250 43.940 C 193.112 43.992,193.000 43.953,193.000 43.851 C 193.000 43.750,192.921 43.667,192.823 43.667 C 192.726 43.667,192.694 43.760,192.753 43.875 C 192.811 43.990,192.759 43.965,192.637 43.819 C 192.516 43.674,192.210 43.504,191.958 43.441 C 191.706 43.378,191.500 43.253,191.500 43.163 C 191.500 43.074,191.387 43.000,191.250 43.000 C 191.112 43.000,191.000 42.938,191.000 42.861 C 191.000 42.785,190.813 42.623,190.583 42.500 C 190.354 42.377,190.167 42.180,190.167 42.061 C 190.167 41.942,190.015 41.764,189.829 41.664 C 189.643 41.565,189.530 41.420,189.578 41.342 C 189.626 41.265,189.548 41.157,189.405 41.102 C 189.262 41.047,189.197 40.918,189.261 40.816 C 189.324 40.713,189.309 40.582,189.226 40.523 C 189.069 40.411,188.658 39.593,188.545 39.167 C 188.322 38.322,188.282 37.003,188.225 28.417 C 188.190 23.192,188.127 18.823,188.086 18.708 C 188.030 18.553,187.290 18.500,185.162 18.500 C 183.328 18.500,182.350 18.559,182.415 18.665 M141.982 23.405 C 142.092 23.474,142.292 23.488,142.425 23.437 C 142.558 23.386,142.667 23.409,142.667 23.489 C 142.667 23.638,143.647 24.074,144.144 24.146 C 144.223 24.157,144.499 24.373,144.756 24.625 C 145.014 24.877,145.170 24.990,145.103 24.877 C 145.022 24.738,145.066 24.703,145.240 24.769 C 145.382 24.824,145.475 24.917,145.447 24.976 C 145.366 25.144,146.131 25.812,146.266 25.691 C 146.332 25.632,146.326 25.688,146.251 25.817 C 146.167 25.962,146.209 26.120,146.364 26.234 C 146.639 26.437,147.046 27.122,147.106 27.483 C 147.127 27.612,147.243 27.779,147.364 27.856 C 147.485 27.932,147.518 27.996,147.438 27.997 C 147.358 27.999,147.390 28.117,147.508 28.260 C 147.764 28.568,147.927 29.528,147.853 30.292 C 147.828 30.559,131.248 30.600,131.083 30.333 C 131.027 30.242,131.064 30.167,131.167 30.167 C 131.269 30.167,131.305 30.088,131.245 29.993 C 131.186 29.897,131.221 29.719,131.322 29.597 C 131.423 29.475,131.459 29.254,131.402 29.104 C 131.339 28.942,131.382 28.833,131.510 28.833 C 131.627 28.833,131.672 28.783,131.611 28.722 C 131.549 28.661,131.631 28.460,131.791 28.277 C 132.008 28.029,132.018 27.975,131.833 28.067 C 131.638 28.164,131.642 28.143,131.848 27.971 C 131.994 27.849,132.081 27.656,132.042 27.542 C 132.004 27.427,132.044 27.333,132.133 27.333 C 132.221 27.333,132.386 27.108,132.500 26.833 C 132.614 26.558,132.773 26.333,132.854 26.333 C 132.934 26.333,132.981 26.267,132.958 26.187 C 132.935 26.106,133.125 25.846,133.379 25.608 C 133.633 25.370,133.858 25.117,133.879 25.046 C 133.900 24.975,134.005 24.916,134.114 24.915 C 134.222 24.913,134.485 24.761,134.697 24.576 C 135.344 24.011,136.419 23.507,137.180 23.412 C 137.577 23.362,137.917 23.305,137.937 23.285 C 138.036 23.187,141.810 23.299,141.982 23.405 M276.083 23.421 C 276.450 23.487,276.984 23.681,277.270 23.854 C 277.555 24.026,277.869 24.167,277.967 24.167 C 278.140 24.167,279.403 25.239,280.028 25.917 C 280.614 26.551,281.249 27.401,281.044 27.276 C 280.903 27.190,280.869 27.232,280.936 27.408 C 280.991 27.550,281.103 27.667,281.184 27.667 C 281.266 27.667,281.317 27.723,281.298 27.792 C 281.278 27.860,281.351 28.076,281.459 28.270 C 281.567 28.464,281.608 28.670,281.550 28.728 C 281.492 28.786,281.526 28.833,281.626 28.833 C 281.736 28.833,281.785 29.082,281.750 29.457 C 281.718 29.800,281.771 30.175,281.867 30.290 C 282.006 30.458,280.370 30.500,273.614 30.500 C 265.397 30.500,264.449 30.444,265.170 29.998 C 265.290 29.924,265.334 29.743,265.271 29.579 C 265.211 29.421,265.230 29.207,265.315 29.104 C 265.399 29.001,265.494 28.767,265.526 28.583 C 265.557 28.400,265.678 28.150,265.793 28.028 C 265.909 27.906,265.960 27.738,265.908 27.653 C 265.856 27.569,265.888 27.500,265.979 27.500 C 266.070 27.500,266.194 27.343,266.255 27.150 C 266.357 26.828,266.489 26.655,267.299 25.775 C 267.456 25.605,267.566 25.404,267.545 25.327 C 267.524 25.250,267.655 25.140,267.837 25.082 C 268.018 25.025,268.167 24.909,268.167 24.825 C 268.167 24.668,269.410 23.966,269.813 23.896 C 269.940 23.874,270.124 23.776,270.222 23.678 C 270.320 23.580,270.568 23.500,270.773 23.500 C 270.979 23.500,271.182 23.444,271.224 23.375 C 271.319 23.221,275.167 23.258,276.083 23.421 M309.375 30.958 C 308.435 30.987,306.898 30.987,305.958 30.958 C 305.019 30.928,305.787 30.904,307.667 30.904 C 309.546 30.904,310.315 30.928,309.375 30.958 M312.604 36.458 C 312.495 38.075,312.364 38.795,312.154 38.924 C 312.077 38.972,312.057 39.121,312.108 39.255 C 312.160 39.390,312.135 39.500,312.053 39.500 C 311.971 39.500,311.893 39.651,311.879 39.835 C 311.865 40.019,311.736 40.288,311.592 40.432 C 311.448 40.576,311.368 40.755,311.414 40.829 C 311.460 40.904,311.385 41.008,311.247 41.061 C 311.110 41.114,311.016 41.229,311.040 41.316 C 311.100 41.534,309.661 43.183,309.499 43.083 C 309.427 43.038,309.325 43.114,309.273 43.251 C 309.220 43.388,309.062 43.500,308.922 43.500 C 308.782 43.500,308.667 43.573,308.667 43.661 C 308.667 43.750,308.564 43.783,308.438 43.735 C 308.312 43.687,308.095 43.762,307.955 43.902 C 307.814 44.043,307.376 44.209,306.981 44.272 C 306.423 44.362,306.336 44.415,306.589 44.509 C 306.918 44.631,306.630 44.650,304.167 44.668 C 302.992 44.676,302.813 44.653,301.625 44.337 C 301.190 44.222,300.833 44.057,300.833 43.970 C 300.833 43.884,300.758 43.860,300.667 43.917 C 300.575 43.973,300.500 43.928,300.500 43.815 C 300.500 43.703,300.453 43.658,300.396 43.715 C 300.093 44.018,298.718 41.948,298.593 41.000 C 298.575 40.862,298.498 40.611,298.422 40.442 C 298.335 40.246,298.358 40.088,298.484 40.010 C 298.595 39.941,298.647 39.691,298.602 39.443 C 298.558 39.196,298.599 39.000,298.696 39.000 C 298.791 39.000,298.828 38.892,298.777 38.761 C 298.727 38.629,298.837 38.329,299.021 38.094 C 299.206 37.859,299.311 37.667,299.255 37.667 C 299.199 37.667,299.468 37.367,299.853 37.000 C 300.239 36.633,300.617 36.333,300.694 36.333 C 300.771 36.333,300.833 36.254,300.833 36.157 C 300.833 36.060,300.908 36.027,301.000 36.083 C 301.092 36.140,301.167 36.107,301.167 36.010 C 301.167 35.913,301.284 35.833,301.428 35.833 C 301.571 35.833,301.852 35.743,302.053 35.633 C 302.253 35.523,302.604 35.416,302.833 35.396 C 303.063 35.375,303.646 35.325,304.131 35.284 C 304.615 35.244,305.059 35.163,305.117 35.105 C 305.175 35.047,306.905 35.000,308.963 35.000 L 312.703 35.000 312.604 36.458 " stroke="none" fill="#ffffff" fill-rule="evenodd"></path><path id="path1" d="M226.248 27.583 C 226.248 39.408,226.267 44.270,226.292 38.388 C 226.316 32.505,226.316 22.830,226.292 16.888 C 226.267 10.945,226.248 15.758,226.248 27.583 M74.080 33.917 C 74.080 42.258,74.100 45.646,74.125 41.446 C 74.150 37.245,74.150 30.420,74.125 26.279 C 74.100 22.138,74.080 25.575,74.080 33.917 M159.913 33.917 C 159.913 42.258,159.934 45.646,159.958 41.446 C 159.983 37.245,159.983 30.420,159.958 26.279 C 159.933 22.138,159.913 25.575,159.913 33.917 M82.491 25.292 L 81.917 25.917 82.581 25.333 C 82.947 25.012,83.278 24.731,83.318 24.708 C 83.357 24.685,83.316 24.667,83.227 24.667 C 83.138 24.667,82.807 24.948,82.491 25.292 M244.667 25.211 C 244.667 25.244,244.896 25.491,245.177 25.760 C 245.458 26.029,245.642 26.137,245.587 26.000 C 245.496 25.776,244.667 25.065,244.667 25.211 M22.249 33.035 C 20.141 35.163,18.470 36.869,18.535 36.827 C 18.872 36.607,26.278 29.167,26.160 29.167 C 26.116 29.167,24.356 30.908,22.249 33.035 M318.578 39.167 C 318.578 44.529,318.599 46.723,318.625 44.042 C 318.651 41.360,318.651 36.973,318.625 34.292 C 318.599 31.610,318.578 33.804,318.578 39.167 M305.958 30.958 C 306.898 30.987,308.435 30.987,309.375 30.958 C 310.315 30.928,309.546 30.904,307.667 30.904 C 305.787 30.904,305.019 30.928,305.958 30.958 M288.050 32.667 C 288.050 33.171,288.081 33.377,288.119 33.125 C 288.158 32.873,288.158 32.460,288.119 32.208 C 288.081 31.956,288.050 32.162,288.050 32.667 M12.083 33.667 L 11.583 33.794 12.032 33.814 C 12.279 33.824,12.527 33.758,12.583 33.667 C 12.640 33.575,12.663 33.509,12.635 33.520 C 12.607 33.531,12.358 33.597,12.083 33.667 M287.732 34.835 C 287.630 34.937,283.269 35.014,276.076 35.042 L 264.583 35.086 276.198 35.126 C 284.286 35.154,287.847 35.113,287.924 34.989 C 288.073 34.747,287.933 34.634,287.732 34.835 M136.721 35.125 C 139.913 35.150,145.088 35.150,148.221 35.125 C 151.353 35.100,148.742 35.079,142.417 35.079 C 136.092 35.079,133.528 35.100,136.721 35.125 M307.051 35.125 C 308.133 35.154,309.858 35.154,310.884 35.124 C 311.910 35.095,311.025 35.071,308.917 35.071 C 306.808 35.072,305.969 35.095,307.051 35.125 M17.328 37.941 C 16.827 38.459,16.604 38.744,16.833 38.574 C 17.247 38.268,18.433 37.000,18.305 37.000 C 18.269 37.000,17.829 37.424,17.328 37.941 M129.500 45.417 C 129.811 45.737,130.103 46.000,130.149 46.000 C 130.195 46.000,129.978 45.737,129.667 45.417 C 129.356 45.096,129.064 44.833,129.018 44.833 C 128.972 44.833,129.189 45.096,129.500 45.417 " stroke="none" fill="#105434" fill-rule="evenodd"></path><path id="path2" d="M226.248 27.583 C 226.248 39.408,226.267 44.270,226.292 38.388 C 226.316 32.505,226.316 22.830,226.292 16.888 C 226.267 10.945,226.248 15.758,226.248 27.583 M74.080 33.917 C 74.080 42.258,74.100 45.646,74.125 41.446 C 74.150 37.245,74.150 30.420,74.125 26.279 C 74.100 22.138,74.080 25.575,74.080 33.917 M159.913 33.917 C 159.913 42.258,159.934 45.646,159.958 41.446 C 159.983 37.245,159.983 30.420,159.958 26.279 C 159.933 22.138,159.913 25.575,159.913 33.917 M82.491 25.292 L 81.917 25.917 82.581 25.333 C 82.947 25.012,83.278 24.731,83.318 24.708 C 83.357 24.685,83.316 24.667,83.227 24.667 C 83.138 24.667,82.807 24.948,82.491 25.292 M244.667 25.211 C 244.667 25.244,244.896 25.491,245.177 25.760 C 245.458 26.029,245.642 26.137,245.587 26.000 C 245.496 25.776,244.667 25.065,244.667 25.211 M22.249 33.035 C 20.141 35.163,18.470 36.869,18.535 36.827 C 18.872 36.607,26.278 29.167,26.160 29.167 C 26.116 29.167,24.356 30.908,22.249 33.035 M318.578 39.167 C 318.578 44.529,318.599 46.723,318.625 44.042 C 318.651 41.360,318.651 36.973,318.625 34.292 C 318.599 31.610,318.578 33.804,318.578 39.167 M305.958 30.958 C 306.898 30.987,308.435 30.987,309.375 30.958 C 310.315 30.928,309.546 30.904,307.667 30.904 C 305.787 30.904,305.019 30.928,305.958 30.958 M288.050 32.667 C 288.050 33.171,288.081 33.377,288.119 33.125 C 288.158 32.873,288.158 32.460,288.119 32.208 C 288.081 31.956,288.050 32.162,288.050 32.667 M12.083 33.667 L 11.583 33.794 12.032 33.814 C 12.279 33.824,12.527 33.758,12.583 33.667 C 12.640 33.575,12.663 33.509,12.635 33.520 C 12.607 33.531,12.358 33.597,12.083 33.667 M287.732 34.835 C 287.630 34.937,283.269 35.014,276.076 35.042 L 264.583 35.086 276.198 35.126 C 284.286 35.154,287.847 35.113,287.924 34.989 C 288.073 34.747,287.933 34.634,287.732 34.835 M136.721 35.125 C 139.913 35.150,145.088 35.150,148.221 35.125 C 151.353 35.100,148.742 35.079,142.417 35.079 C 136.092 35.079,133.528 35.100,136.721 35.125 M307.051 35.125 C 308.133 35.154,309.858 35.154,310.884 35.124 C 311.910 35.095,311.025 35.071,308.917 35.071 C 306.808 35.072,305.969 35.095,307.051 35.125 M17.328 37.941 C 16.827 38.459,16.604 38.744,16.833 38.574 C 17.247 38.268,18.433 37.000,18.305 37.000 C 18.269 37.000,17.829 37.424,17.328 37.941 M129.500 45.417 C 129.811 45.737,130.103 46.000,130.149 46.000 C 130.195 46.000,129.978 45.737,129.667 45.417 C 129.356 45.096,129.064 44.833,129.018 44.833 C 128.972 44.833,129.189 45.096,129.500 45.417 " stroke="none" fill="#105434" fill-rule="evenodd"></path><path id="path3" d="M226.248 27.583 C 226.248 39.408,226.267 44.270,226.292 38.388 C 226.316 32.505,226.316 22.830,226.292 16.888 C 226.267 10.945,226.248 15.758,226.248 27.583 M74.080 33.917 C 74.080 42.258,74.100 45.646,74.125 41.446 C 74.150 37.245,74.150 30.420,74.125 26.279 C 74.100 22.138,74.080 25.575,74.080 33.917 M159.913 33.917 C 159.913 42.258,159.934 45.646,159.958 41.446 C 159.983 37.245,159.983 30.420,159.958 26.279 C 159.933 22.138,159.913 25.575,159.913 33.917 M82.491 25.292 L 81.917 25.917 82.581 25.333 C 82.947 25.012,83.278 24.731,83.318 24.708 C 83.357 24.685,83.316 24.667,83.227 24.667 C 83.138 24.667,82.807 24.948,82.491 25.292 M244.667 25.211 C 244.667 25.244,244.896 25.491,245.177 25.760 C 245.458 26.029,245.642 26.137,245.587 26.000 C 245.496 25.776,244.667 25.065,244.667 25.211 M22.249 33.035 C 20.141 35.163,18.470 36.869,18.535 36.827 C 18.872 36.607,26.278 29.167,26.160 29.167 C 26.116 29.167,24.356 30.908,22.249 33.035 M318.578 39.167 C 318.578 44.529,318.599 46.723,318.625 44.042 C 318.651 41.360,318.651 36.973,318.625 34.292 C 318.599 31.610,318.578 33.804,318.578 39.167 M305.958 30.958 C 306.898 30.987,308.435 30.987,309.375 30.958 C 310.315 30.928,309.546 30.904,307.667 30.904 C 305.787 30.904,305.019 30.928,305.958 30.958 M288.050 32.667 C 288.050 33.171,288.081 33.377,288.119 33.125 C 288.158 32.873,288.158 32.460,288.119 32.208 C 288.081 31.956,288.050 32.162,288.050 32.667 M12.083 33.667 L 11.583 33.794 12.032 33.814 C 12.279 33.824,12.527 33.758,12.583 33.667 C 12.640 33.575,12.663 33.509,12.635 33.520 C 12.607 33.531,12.358 33.597,12.083 33.667 M287.732 34.835 C 287.630 34.937,283.269 35.014,276.076 35.042 L 264.583 35.086 276.198 35.126 C 284.286 35.154,287.847 35.113,287.924 34.989 C 288.073 34.747,287.933 34.634,287.732 34.835 M136.721 35.125 C 139.913 35.150,145.088 35.150,148.221 35.125 C 151.353 35.100,148.742 35.079,142.417 35.079 C 136.092 35.079,133.528 35.100,136.721 35.125 M307.051 35.125 C 308.133 35.154,309.858 35.154,310.884 35.124 C 311.910 35.095,311.025 35.071,308.917 35.071 C 306.808 35.072,305.969 35.095,307.051 35.125 M17.328 37.941 C 16.827 38.459,16.604 38.744,16.833 38.574 C 17.247 38.268,18.433 37.000,18.305 37.000 C 18.269 37.000,17.829 37.424,17.328 37.941 M129.500 45.417 C 129.811 45.737,130.103 46.000,130.149 46.000 C 130.195 46.000,129.978 45.737,129.667 45.417 C 129.356 45.096,129.064 44.833,129.018 44.833 C 128.972 44.833,129.189 45.096,129.500 45.417 " stroke="none" fill="#105434" fill-rule="evenodd"></path><path id="path4" d="M226.248 27.583 C 226.248 39.408,226.267 44.270,226.292 38.388 C 226.316 32.505,226.316 22.830,226.292 16.888 C 226.267 10.945,226.248 15.758,226.248 27.583 M74.080 33.917 C 74.080 42.258,74.100 45.646,74.125 41.446 C 74.150 37.245,74.150 30.420,74.125 26.279 C 74.100 22.138,74.080 25.575,74.080 33.917 M159.913 33.917 C 159.913 42.258,159.934 45.646,159.958 41.446 C 159.983 37.245,159.983 30.420,159.958 26.279 C 159.933 22.138,159.913 25.575,159.913 33.917 M82.491 25.292 L 81.917 25.917 82.581 25.333 C 82.947 25.012,83.278 24.731,83.318 24.708 C 83.357 24.685,83.316 24.667,83.227 24.667 C 83.138 24.667,82.807 24.948,82.491 25.292 M244.667 25.211 C 244.667 25.244,244.896 25.491,245.177 25.760 C 245.458 26.029,245.642 26.137,245.587 26.000 C 245.496 25.776,244.667 25.065,244.667 25.211 M22.249 33.035 C 20.141 35.163,18.470 36.869,18.535 36.827 C 18.872 36.607,26.278 29.167,26.160 29.167 C 26.116 29.167,24.356 30.908,22.249 33.035 M318.578 39.167 C 318.578 44.529,318.599 46.723,318.625 44.042 C 318.651 41.360,318.651 36.973,318.625 34.292 C 318.599 31.610,318.578 33.804,318.578 39.167 M305.958 30.958 C 306.898 30.987,308.435 30.987,309.375 30.958 C 310.315 30.928,309.546 30.904,307.667 30.904 C 305.787 30.904,305.019 30.928,305.958 30.958 M288.050 32.667 C 288.050 33.171,288.081 33.377,288.119 33.125 C 288.158 32.873,288.158 32.460,288.119 32.208 C 288.081 31.956,288.050 32.162,288.050 32.667 M12.083 33.667 L 11.583 33.794 12.032 33.814 C 12.279 33.824,12.527 33.758,12.583 33.667 C 12.640 33.575,12.663 33.509,12.635 33.520 C 12.607 33.531,12.358 33.597,12.083 33.667 M287.732 34.835 C 287.630 34.937,283.269 35.014,276.076 35.042 L 264.583 35.086 276.198 35.126 C 284.286 35.154,287.847 35.113,287.924 34.989 C 288.073 34.747,287.933 34.634,287.732 34.835 M136.721 35.125 C 139.913 35.150,145.088 35.150,148.221 35.125 C 151.353 35.100,148.742 35.079,142.417 35.079 C 136.092 35.079,133.528 35.100,136.721 35.125 M307.051 35.125 C 308.133 35.154,309.858 35.154,310.884 35.124 C 311.910 35.095,311.025 35.071,308.917 35.071 C 306.808 35.072,305.969 35.095,307.051 35.125 M17.328 37.941 C 16.827 38.459,16.604 38.744,16.833 38.574 C 17.247 38.268,18.433 37.000,18.305 37.000 C 18.269 37.000,17.829 37.424,17.328 37.941 M129.500 45.417 C 129.811 45.737,130.103 46.000,130.149 46.000 C 130.195 46.000,129.978 45.737,129.667 45.417 C 129.356 45.096,129.064 44.833,129.018 44.833 C 128.972 44.833,129.189 45.096,129.500 45.417 " stroke="none" fill="#ffffff" fill-rule="evenodd"></path></g></svg>