<svg width="110" height="52" viewBox="0 0 110 52" fill="none" xmlns="http://www.w3.org/2000/svg">
<g clip-path="url(#clip0_2255_1148)">
<path fill-rule="evenodd" clip-rule="evenodd" d="M27.7476 16.7672C26.2448 15.7762 24.6264 14.9604 23.3547 14.028C31.9669 13.4452 38.8453 10.764 38.8453 5.69389C38.8453 2.77979 36.4176 0.0986328 30.0018 0.0986328C23.2391 0.0986328 15.3781 5.05246 15.3781 10.764C15.3781 11.4052 15.4359 11.988 15.4938 12.5125C11.4476 11.8134 9.48221 9.94827 9.48221 8.08319C9.48221 6.10178 11.2166 5.16908 12.7193 5.16908C12.7193 3.47893 11.91 2.89611 10.5807 2.89611C9.8292 2.89611 6.70806 3.65387 6.70806 7.26742C6.70806 10.4145 10.2337 13.037 15.8404 13.8531C16.6498 16.0677 18.5571 17.5246 21.8517 19.9142C24.8575 22.0706 27.9786 24.1106 27.9786 28.365C27.9786 36.2912 20.0023 39.2636 14.4534 39.2636C5.84088 39.2636 3.81795 33.4938 3.81795 31.1625C3.81795 27.0244 7.74844 24.4022 12.5458 24.4022C12.5458 23.1199 11.91 21.6627 9.71354 21.6627C5.37852 21.6627 0.291992 24.6351 0.291992 29.8219C0.291992 34.5428 3.93362 41.0701 15.2049 41.0701C20.8113 41.0701 34.9149 38.331 34.9149 27.0827C34.9149 23.0033 32.0826 19.623 27.7476 16.7672ZM21.1583 10.6477C21.1583 6.62628 25.262 3.36231 30.5798 3.36231C33.7588 3.36231 36.0709 4.17838 36.0709 6.56797C36.0709 10.4728 29.1346 12.4542 22.0252 12.8038C21.505 12.1629 21.1583 11.4635 21.1583 10.6477Z" fill="white"/>
<path fill-rule="evenodd" clip-rule="evenodd" d="M48.3136 9.36588C49.9898 9.36588 51.3769 8.20024 51.3769 6.51009C51.3769 4.81994 49.9898 3.6543 48.3136 3.6543C46.6374 3.6543 45.25 4.81994 45.25 6.51009C45.25 8.20024 46.6374 9.36588 48.3136 9.36588Z" fill="white"/>
<path fill-rule="evenodd" clip-rule="evenodd" d="M108.421 29.822C106.571 32.911 104.201 34.4845 101.774 34.8341C101.774 30.6963 106.224 20.6137 108.247 17.3501C109.635 15.0771 109.866 14.2027 109.866 13.5036C109.866 12.6875 108.71 11.0557 106.34 11.0557C106.051 11.0557 105.01 12.2796 104.201 14.436H104.086C104.086 12.5126 103.392 11.0557 101.369 11.0557C94.9104 11.0557 86.523 23.8705 85.9149 32.2091C84.0037 33.9471 81.5873 35.327 79.5551 36.2913C80.7109 33.4355 81.8094 30.4048 82.9073 27.6076C84.8149 22.5952 86.8378 18.2241 88.1673 15.7179C88.514 15.0771 88.8032 14.2027 88.8032 13.5036C88.8032 12.6875 87.6471 11.0557 85.2772 11.0557C84.9884 11.0557 84.2368 11.93 83.4278 14.0861H83.3121C83.3121 12.3379 82.5606 11.0557 80.5377 11.0557C74.2054 11.0557 66.0183 23.3752 65.1278 31.7159C63.866 33.2203 62.0738 34.4845 61.0069 34.4845C60.14 34.4845 59.8508 34.0183 59.8508 33.1439C59.8508 31.1625 60.949 28.0738 63.7813 22.7118C65.4575 19.5647 67.4226 16.3011 67.4226 14.494C67.4226 11.9881 65.053 11.0557 63.4925 11.0557C61.1804 11.0557 57.1342 16.7089 51.932 26.1504H51.8164C53.5504 21.4298 55.2845 18.3408 56.614 15.7179C56.9029 15.0771 57.192 14.2027 57.192 13.5036C57.192 12.6875 56.036 11.0557 53.6661 11.0557C52.7286 11.0557 46.8607 23.4626 45.1657 31.4066C43.6468 33.318 41.5142 34.4373 39.8749 34.4845C40.453 29.7639 44.0368 21.0799 46.2332 16.9422C47.3892 14.8438 47.7359 14.0281 47.7359 13.3286C47.7359 12.2213 46.2332 11.0557 43.8633 11.0557C42.187 11.0557 34.9619 28.6563 34.9619 35.184C34.9619 36.233 35.4821 37.6899 37.6207 37.6899C40.2944 37.6899 42.9675 35.6862 44.7939 33.6125C44.7373 34.1124 44.7069 34.5801 44.7069 35.009C44.7069 35.9417 45.8051 37.6899 47.8862 37.6899C49.3311 37.6899 49.5621 36.5826 49.5621 34.6595C49.5621 34.0766 49.6199 33.2606 49.8513 32.4448C51.2383 27.3743 58.8104 17.3501 61.5271 16.6506C61.0647 19.5064 54.9956 28.2484 54.9956 34.1933C54.9956 36.5242 56.4405 37.6899 58.2903 37.6899C61.0775 37.6899 63.5011 35.8573 65.0927 33.9597C65.4 36.8958 67.3553 37.6899 68.6306 37.6899C72.6767 37.6899 75.7978 33.0276 77.7632 29.2394H77.8789C77.5897 30.5797 74.2951 37.4569 73.6014 38.6809C70.3646 40.0212 65.0468 43.4018 65.0468 48.5885C65.0468 50.0457 66.2606 51.8522 68.9197 51.8522C72.4454 51.8522 75.6246 45.8494 78.6301 38.6226C81.1783 37.4891 83.7959 35.9853 85.9229 34.0535C86.2359 37.1972 88.1891 37.6899 89.462 37.6899C93.5084 37.6899 96.6296 33.0276 98.5947 29.2394H98.7103C97.8431 31.3375 97.2073 33.5518 97.2073 35.3006C97.2073 36.8741 98.3633 37.6899 99.635 37.6899C104.491 37.6899 108.479 32.1532 109.114 30.3465C109.114 30.0552 108.883 29.822 108.421 29.822ZM68.226 46.9567C68.0525 46.9567 67.9369 46.7821 67.9369 46.5488C67.9369 44.6837 69.9023 42.2358 72.4454 41.0119C71.0583 43.8097 69.3821 46.1406 68.226 46.9567ZM71.6363 33.7271C70.9426 33.7271 70.1336 33.1439 70.1336 31.8037C70.1336 25.9758 77.4162 14.436 81.1735 14.436C81.6359 14.436 82.1561 14.6689 82.1561 15.6016C82.1561 19.9726 74.7575 33.7271 71.6363 33.7271ZM92.4678 33.6101C91.6006 33.6101 90.965 33.1439 90.965 31.8037C90.965 25.9758 98.248 14.436 102.005 14.436C102.467 14.436 102.988 14.6689 102.988 15.6016C102.988 19.9726 95.7624 33.6101 92.4678 33.6101Z" fill="white"/>
</g>
<defs>
<clipPath id="clip0_2255_1148">
<rect width="110" height="52" fill="white"/>
</clipPath>
</defs>
</svg>