<svg version="1.1" id="Layer_1" xmlns:x="ns_extend;" xmlns:i="ns_ai;" xmlns:graph="ns_graphs;" xmlns="http://www.w3.org/2000/svg" xmlns:xlink="http://www.w3.org/1999/xlink" x="0px" y="0px" viewBox="0 0 376 56" style="enable-background:new 0 0 376 56;" xml:space="preserve">
 <style type="text/css">
  .st0{fill:#FFFFFF;}
 </style>
 <metadata>
  <sfw xmlns="ns_sfw;">
   <slices>
   </slices>
   <sliceSourceBounds bottomLeftOrigin="true" height="56" width="376" x="-105.4" y="-210.3">
   </sliceSourceBounds>
  </sfw>
 </metadata>
 <g>
  <path class="st0" d="M34.2,0v28H0v13.3l34.2,7.1L70.4,56V28h34.1V14.7L70.4,7.6v0L34.2,0z M34.2,0">
  </path>
  <path class="st0" d="M130.7,32h5.6c0,2.8,1.1,4.6,5.4,4.6c4.2,0,5.2-1.6,5.2-3.2c0-1.1-0.5-1.8-1.5-2.2c-1.1-0.4-3.7-0.8-5.9-1.1
		c-2.5-0.4-5.1-0.9-6.5-1.9c-1.6-1.1-2.5-2.9-2.5-5.3c0-4.9,3.7-8.2,11.1-8.2c8.1,0,10.7,3.4,10.7,9.2h-5.6c0-2.9-1.5-4.5-5-4.5
		c-3.5,0-4.9,1.3-4.9,3c0,1.3,0.3,2,1.2,2.3c1,0.4,3.6,0.9,5.8,1.2c2.9,0.5,5,0.9,6.5,1.8c1.8,1,2.8,2.8,2.8,5.2
		c0,4.4-2.4,8.3-11.5,8.3C132.7,41.3,130.7,36.8,130.7,32">
  </path>
  <path class="st0" d="M159.4,15.1h7.3c1.5,0,2.9,1,3.3,2.5l4.6,14.7h0.1l5.4-17.1h6.7c1.6,0,2.9,1.3,2.9,2.9v22.8h-6.3l0.2-20.2
		h-0.1l-6.4,20.2h-5.4l-6.4-20.2h-0.1l0.1,20.2h-5.9V15.1z M159.4,15.1">
  </path>
  <path class="st0" d="M211.4,31.6l-3.7-11.3h-0.1l-3.7,11.3H211.4z M210.6,35.6h-8.1l-1.7,5.2h-6.5l9.8-25.8h5
		c1.7,0,3.2,1.1,3.8,2.7l8.8,23.1h-7.4l-1.1-3.3C212.9,36.4,211.9,35.6,210.6,35.6">
  </path>
  <path class="st0" d="M238.4,27.4c2.7,0,4-1.2,4-3.6c0-2.4-1.4-3.6-4.3-3.6h-5.5v7.3H238.4z M226.3,15.1h11.8
		c6.7,0,10.3,2.8,10.3,7.7c0,3.3-1.4,5.4-3.8,6.1v0.1c2.5,0.6,3.6,2.6,3.6,5.5v6.4H242v-6.2c0-2.3-0.8-3.4-3.2-3.4h-6.1v9.6h-6.3
		V15.1z M226.3,15.1">
  </path>
  <path class="st0" d="M259.9,20.2h-7.2v-5h18c1.5,0,2.7,1.2,2.7,2.8v2.3h-7.2v20.7h-6.3V20.2z M259.9,20.2">
  </path>
  <path class="st0" d="M278.8,15.1h3.5c1.6,0,2.8,1.3,2.8,2.9v17.8h9.6c1.1,0,1.9,0.9,1.9,1.9v3.1h-17.9V15.1z M278.8,15.1">
  </path>
  <path class="st0" d="M304.5,31l-10-15.9h5.6c1.6,0,3,0.9,3.8,2.3l4.3,7.9h0.1l5.5-10.2h7.1l-10,15.9v9.9h-6.3V31z M304.5,31">
  </path>
  <path class="st0" d="M336.7,15.1h3.4c1.6,0,2.9,1.3,2.9,3v22.8h-6.3V15.1z M336.7,15.1">
  </path>
  <path class="st0" d="M369.4,27.9c0-5.1-3-8.1-7.1-8.1c-4,0-7.1,3-7.1,8.1c0,5.1,3,8.3,7.1,8.3C366.4,36.2,369.4,33.1,369.4,27.9
		L369.4,27.9z M348.8,27.9c0-8.3,5.9-13.2,13.6-13.2c7.7,0,13.6,4.9,13.6,13.2s-5.9,13.4-13.6,13.4
		C354.7,41.3,348.8,36.3,348.8,27.9L348.8,27.9z M348.8,27.9">
  </path>
  <path class="st0" d="M323.9,40.9c1.4,0,2.5-1.1,2.5-2.6c0-1.4-1.1-2.6-2.5-2.6c-1.4,0-2.5,1.1-2.5,2.6
		C321.4,39.7,322.5,40.9,323.9,40.9L323.9,40.9z M323.9,40.9">
  </path>
 </g>
</svg>