<svg width="62" height="24" viewBox="0 0 62 24" fill="none" xmlns="http://www.w3.org/2000/svg">
<path d="M7.85987 24C6.3875 24 5.06669 23.7437 3.89746 23.231C2.72822 22.6969 1.79716 21.9813 1.10428 21.0841C0.433051 20.1869 0.0649577 19.1936 0 18.1041H4.57951C4.66612 18.7877 5.00174 19.3538 5.58635 19.8024C6.19262 20.251 6.93964 20.4753 7.82739 20.4753C8.69349 20.4753 9.36472 20.3044 9.84108 19.9626C10.3391 19.6208 10.5881 19.1829 10.5881 18.6489C10.5881 18.0721 10.285 17.6449 9.67868 17.3672C9.09406 17.0681 8.15218 16.7477 6.85303 16.4059C5.51057 16.0854 4.40629 15.7543 3.54019 15.4125C2.69574 15.0708 1.95955 14.5474 1.33163 13.8425C0.72536 13.1375 0.422224 12.1869 0.422224 10.9907C0.422224 10.008 0.703707 9.11081 1.26667 8.29906C1.85129 7.48731 2.67409 6.84646 3.73506 6.3765C4.81769 5.90654 6.08436 5.67156 7.53508 5.67156C9.67868 5.67156 11.3892 6.20561 12.6667 7.2737C13.9442 8.32043 14.6479 9.74099 14.7779 11.5354H10.4257C10.3607 10.8304 10.0576 10.275 9.51629 9.86916C8.99663 9.44192 8.29292 9.2283 7.40517 9.2283C6.58237 9.2283 5.94362 9.37784 5.48892 9.6769C5.05587 9.97597 4.83934 10.3925 4.83934 10.9266C4.83934 11.5247 5.14248 11.984 5.74875 12.3044C6.35502 12.6035 7.2969 12.9132 8.5744 13.2336C9.87356 13.5541 10.9454 13.8852 11.7898 14.227C12.6343 14.5688 13.3596 15.1028 13.9659 15.8291C14.5938 16.534 14.9186 17.474 14.9402 18.6489C14.9402 19.6742 14.6479 20.5928 14.0633 21.4045C13.5004 22.2163 12.6776 22.8571 11.5949 23.3271C10.534 23.7757 9.28894 24 7.85987 24Z" fill="white"/>
<path d="M25.5258 24C23.7936 24 22.2346 23.6262 20.8489 22.8785C19.4631 22.1095 18.3696 21.0307 17.5685 19.6422C16.789 18.2537 16.3993 16.6515 16.3993 14.8358C16.3993 13.02 16.7998 11.4179 17.601 10.0294C18.4238 8.64085 19.5389 7.57276 20.9463 6.8251C22.3537 6.05607 23.9235 5.67156 25.6557 5.67156C27.3879 5.67156 28.9577 6.05607 30.3651 6.8251C31.7726 7.57276 32.8768 8.64085 33.678 10.0294C34.5008 11.4179 34.9122 13.02 34.9122 14.8358C34.9122 16.6515 34.4899 18.2537 33.6455 19.6422C32.8227 21.0307 31.6968 22.1095 30.2677 22.8785C28.8603 23.6262 27.2797 24 25.5258 24ZM25.5258 20.0908C26.3486 20.0908 27.1173 19.8985 27.8318 19.514C28.568 19.1081 29.1526 18.51 29.5857 17.7196C30.0187 16.9292 30.2352 15.968 30.2352 14.8358C30.2352 13.1482 29.7805 11.8558 28.8711 10.9586C27.9834 10.0401 26.8899 9.58077 25.5908 9.58077C24.2916 9.58077 23.1982 10.0401 22.3104 10.9586C21.4443 11.8558 21.0112 13.1482 21.0112 14.8358C21.0112 16.5234 21.4335 17.8264 22.2779 18.745C23.144 19.6422 24.2266 20.0908 25.5258 20.0908Z" fill="white"/>
<path d="M41.6579 0V23.7116H37.1108V0H41.6579Z" fill="white"/>
<path d="M62 5.95994V23.7116H57.4205V21.4686C56.8359 22.2376 56.0672 22.8465 55.1145 23.2951C54.1834 23.7223 53.1658 23.9359 52.0615 23.9359C50.6541 23.9359 49.4091 23.6475 48.3264 23.0708C47.2438 22.4726 46.3885 21.6075 45.7606 20.4753C45.1543 19.3218 44.8512 17.9546 44.8512 16.3738V5.95994H49.3982V15.733C49.3982 17.1429 49.7555 18.2323 50.47 19.0013C51.1846 19.749 52.1589 20.1228 53.3931 20.1228C54.649 20.1228 55.6342 19.749 56.3487 19.0013C57.0632 18.2323 57.4205 17.1429 57.4205 15.733V5.95994H62Z" fill="white"/>
</svg>