<svg class="XswQk hPzQto fOVJNr dUdYkV liFRRt logo" viewBox="0 0 728 227" fill="none" xmlns="http://www.w3.org/2000/svg"><path d="M314.812 82.4368V69.4044H383.284V82.4368H356.759V155.225H341.339V82.4368H314.812ZM405.578 156.524C401.499 156.524 397.825 155.798 394.557 154.345C391.316 152.864 388.746 150.685 386.846 147.808C384.975 144.93 384.039 141.382 384.039 137.164C384.039 133.532 384.709 130.529 386.05 128.155C387.391 125.78 389.221 123.88 391.54 122.455C393.858 121.031 396.47 119.955 399.376 119.229C402.309 118.475 405.34 117.93 408.469 117.595C412.241 117.203 415.3 116.854 417.646 116.547C419.993 116.212 421.697 115.709 422.759 115.038C423.848 114.34 424.393 113.264 424.393 111.812V111.56C424.393 108.404 423.457 105.959 421.585 104.227C419.714 102.495 417.018 101.629 413.498 101.629C409.782 101.629 406.835 102.439 404.656 104.059C402.505 105.68 401.052 107.593 400.298 109.8L386.134 107.789C387.251 103.878 389.095 100.609 391.665 97.9833C394.236 95.3294 397.378 93.3459 401.094 92.0329C404.809 90.6919 408.916 90.0215 413.414 90.0215C416.515 90.0215 419.602 90.3846 422.675 91.111C425.748 91.8373 428.555 93.0386 431.098 94.7148C433.64 96.363 435.679 98.6119 437.216 101.461C438.78 104.311 439.562 107.873 439.562 112.147V155.225H424.98V146.383H424.477C423.555 148.171 422.256 149.847 420.58 151.412C418.931 152.948 416.85 154.191 414.336 155.141C411.849 156.063 408.93 156.524 405.578 156.524ZM409.517 145.377C412.562 145.377 415.203 144.777 417.438 143.575C419.672 142.346 421.39 140.726 422.591 138.714C423.82 136.703 424.435 134.51 424.435 132.135V124.551C423.96 124.942 423.15 125.305 422.004 125.64C420.887 125.975 419.63 126.269 418.233 126.52C416.836 126.772 415.454 126.995 414.085 127.191C412.716 127.386 411.528 127.554 410.522 127.694C408.26 128.001 406.235 128.504 404.447 129.202C402.659 129.901 401.248 130.878 400.214 132.135C399.18 133.365 398.663 134.957 398.663 136.913C398.663 139.706 399.683 141.815 401.722 143.24C403.762 144.665 406.36 145.377 409.517 145.377ZM454.816 155.225V90.8596H469.985V155.225H454.816ZM462.442 81.7244C460.04 81.7244 457.972 80.9282 456.24 79.3358C454.508 77.7155 453.642 75.7739 453.642 73.5111C453.642 71.2203 454.508 69.2787 456.24 67.6863C457.972 66.066 460.04 65.2559 462.442 65.2559C464.873 65.2559 466.941 66.066 468.645 67.6863C470.377 69.2787 471.242 71.2203 471.242 73.5111C471.242 75.7739 470.377 77.7155 468.645 79.3358C466.941 80.9282 464.873 81.7244 462.442 81.7244ZM517.725 90.8596V102.593H480.723V90.8596H517.725ZM489.858 75.4387H505.029V135.865C505.029 137.904 505.336 139.469 505.951 140.558C506.593 141.62 507.43 142.346 508.464 142.737C509.497 143.128 510.643 143.324 511.9 143.324C512.85 143.324 513.716 143.254 514.498 143.114C515.308 142.975 515.923 142.849 516.342 142.737L518.898 154.596C518.088 154.876 516.929 155.183 515.42 155.518C513.939 155.853 512.124 156.049 509.972 156.105C506.173 156.217 502.751 155.644 499.706 154.387C496.661 153.102 494.244 151.118 492.456 148.436C490.696 145.754 489.83 142.402 489.858 138.379V75.4387ZM557.797 156.482C551.511 156.482 546.063 155.099 541.453 152.333C536.844 149.568 533.269 145.699 530.727 140.726C528.212 135.753 526.954 129.942 526.954 123.294C526.954 116.645 528.212 110.82 530.727 105.819C533.269 100.819 536.844 96.9357 541.453 94.17C546.063 91.4043 551.511 90.0215 557.797 90.0215C564.083 90.0215 569.529 91.4043 574.139 94.17C578.748 96.9357 582.31 100.819 584.824 105.819C587.367 110.82 588.638 116.645 588.638 123.294C588.638 129.942 587.367 135.753 584.824 140.726C582.31 145.699 578.748 149.568 574.139 152.333C569.529 155.099 564.083 156.482 557.797 156.482ZM557.88 144.33C561.288 144.33 564.138 143.394 566.428 141.522C568.719 139.622 570.424 137.08 571.542 133.895C572.687 130.711 573.259 127.163 573.259 123.252C573.259 119.313 572.687 115.751 571.542 112.566C570.424 109.353 568.719 106.797 566.428 104.897C564.138 102.998 561.288 102.048 557.88 102.048C554.388 102.048 551.482 102.998 549.164 104.897C546.873 106.797 545.155 109.353 544.009 112.566C542.892 115.751 542.333 119.313 542.333 123.252C542.333 127.163 542.892 130.711 544.009 133.895C545.155 137.08 546.873 139.622 549.164 141.522C551.482 143.394 554.388 144.33 557.88 144.33ZM610.858 156.147C608.315 156.147 606.136 155.253 604.321 153.465C602.505 151.677 601.611 149.498 601.639 146.928C601.611 144.413 602.505 142.262 604.321 140.474C606.136 138.687 608.315 137.793 610.858 137.793C613.316 137.793 615.453 138.687 617.269 140.474C619.113 142.262 620.05 144.413 620.078 146.928C620.05 148.632 619.603 150.182 618.737 151.579C617.899 152.976 616.78 154.093 615.383 154.932C614.014 155.742 612.506 156.147 610.858 156.147ZM654.26 156.524C650.182 156.524 646.509 155.798 643.24 154.345C640 152.864 637.429 150.685 635.529 147.808C633.657 144.93 632.721 141.382 632.721 137.164C632.721 133.532 633.392 130.529 634.733 128.155C636.074 125.78 637.904 123.88 640.222 122.455C642.541 121.031 645.153 119.955 648.058 119.229C650.992 118.475 654.023 117.93 657.152 117.595C660.923 117.203 663.982 116.854 666.329 116.547C668.675 116.212 670.38 115.709 671.441 115.038C672.531 114.34 673.076 113.264 673.076 111.812V111.56C673.076 108.404 672.14 105.959 670.268 104.227C668.396 102.495 665.7 101.629 662.18 101.629C658.465 101.629 655.518 102.439 653.339 104.059C651.188 105.68 649.735 107.593 648.98 109.8L634.818 107.789C635.935 103.878 637.779 100.609 640.349 97.9833C642.919 95.3294 646.061 93.3459 649.776 92.0329C653.492 90.6919 657.599 90.0215 662.096 90.0215C665.197 90.0215 668.284 90.3846 671.357 91.111C674.43 91.8373 677.239 93.0386 679.781 94.7148C682.323 96.363 684.362 98.6119 685.898 101.461C687.463 104.311 688.245 107.873 688.245 112.147V155.225H673.662V146.383H673.159C672.237 148.171 670.939 149.847 669.263 151.412C667.615 152.948 665.533 154.191 663.018 155.141C660.532 156.063 657.613 156.524 654.26 156.524ZM658.199 145.377C661.244 145.377 663.885 144.777 666.12 143.575C668.355 142.346 670.072 140.726 671.274 138.714C672.503 136.703 673.117 134.51 673.117 132.135V124.551C672.642 124.942 671.832 125.305 670.688 125.64C669.569 125.975 668.312 126.269 666.915 126.52C665.519 126.772 664.137 126.995 662.768 127.191C661.399 127.386 660.212 127.554 659.206 127.694C656.943 128.001 654.918 128.504 653.13 129.202C651.342 129.901 649.93 130.878 648.896 132.135C647.863 133.365 647.346 134.957 647.346 136.913C647.346 139.706 648.367 141.815 650.406 143.24C652.445 144.665 655.042 145.377 658.199 145.377ZM703.498 155.225V90.8596H718.669V155.225H703.498ZM711.125 81.7244C708.722 81.7244 706.655 80.9282 704.923 79.3358C703.191 77.7155 702.326 75.7739 702.326 73.5111C702.326 71.2203 703.191 69.2787 704.923 67.6863C706.655 66.066 708.722 65.2559 711.125 65.2559C713.555 65.2559 715.623 66.066 717.328 67.6863C719.06 69.2787 719.925 71.2203 719.925 73.5111C719.925 75.7739 719.06 77.7155 717.328 79.3358C715.623 80.9282 713.555 81.7244 711.125 81.7244Z" fill="white"></path><path d="M98.7538 171.566L69.6711 200.649C66.4664 203.854 66.4664 209.043 69.6711 212.247L83.9675 226.544C84.5819 227.158 85.5782 227.158 86.1925 226.544L119.319 193.418C119.933 192.804 120.929 192.804 121.543 193.418L154.669 226.544C155.284 227.158 156.28 227.158 156.894 226.544L171.191 212.247C174.396 209.043 174.396 203.854 171.191 200.649L142.108 171.566C141.818 171.276 141.411 171.11 140.996 171.11H99.8829C99.4678 171.11 99.0693 171.276 98.7704 171.566H98.7538Z" fill="white"></path><path d="M168.427 151.209L187.098 187.855C189.157 191.89 194.097 193.492 198.132 191.442L216.148 182.26C216.92 181.869 217.227 180.923 216.837 180.151L195.575 138.415C195.185 137.643 195.492 136.697 196.264 136.307L237.999 115.045C238.771 114.654 239.079 113.708 238.688 112.936L229.506 94.9199C227.447 90.8851 222.507 89.2827 218.472 91.3334L181.826 110.005C181.453 110.196 181.17 110.52 181.046 110.918L168.343 150.014C168.211 150.412 168.252 150.844 168.435 151.209H168.427Z" fill="white"></path><path d="M170.601 78.6558L211.223 72.2216C215.698 71.5159 218.754 67.315 218.04 62.8401L214.876 42.8732C214.744 42.018 213.938 41.4286 213.083 41.5697L166.815 48.9006C165.96 49.0334 165.154 48.4523 165.021 47.5971L157.691 1.32874C157.558 0.473604 156.752 -0.115855 155.897 0.0252831L135.93 3.18844C131.456 3.89413 128.4 8.09507 129.114 12.57L135.549 53.1929C135.615 53.608 135.839 53.9733 136.179 54.214L169.438 78.3819C169.779 78.6226 170.194 78.7306 170.609 78.6642H170.601V78.6558Z" fill="white"></path><path d="M102.274 54.1643L108.709 13.5414C109.414 9.06647 106.367 4.86554 101.892 4.15984L81.9255 0.996689C81.0704 0.863853 80.265 1.44501 80.1322 2.30014L72.8013 48.5686C72.6685 49.4237 71.8632 50.0131 71.008 49.872L24.7396 42.5411C23.8845 42.4083 23.0792 42.9894 22.9463 43.8446L19.7832 63.8115C19.0775 68.2864 22.1244 72.4873 26.5993 73.193L67.2222 79.6273C67.6373 79.6937 68.0524 79.594 68.3928 79.345L101.652 55.1771C101.992 54.9364 102.216 54.5628 102.283 54.156H102.274V54.1643Z" fill="white"></path><path d="M57.8653 111.591L21.2192 92.9195C17.1843 90.8606 12.2445 92.4712 10.1855 96.5061L1.00321 114.522C0.613011 115.294 0.920194 116.241 1.6923 116.631L43.4277 137.893C44.1998 138.283 44.507 139.229 44.1168 140.002L22.8547 181.737C22.4645 182.509 22.7717 183.456 23.5438 183.846L41.5597 193.028C45.5946 195.087 50.5344 193.476 52.5934 189.441L71.2651 152.795C71.4561 152.422 71.4893 151.99 71.3564 151.6L58.654 112.505C58.5212 112.106 58.2472 111.782 57.8736 111.591H57.8653Z" fill="white"></path></svg>