<svg width="612" height="276" viewBox="0 0 612 276" fill="none" xmlns="http://www.w3.org/2000/svg">
<path d="M104.057 273.448C88.6184 273.448 77.5531 267.728 69.6424 247.192L0 77.5098H42.7319L100.879 228.862C101.1 229.717 101.609 230.478 102.326 231.026C103.044 231.574 103.929 231.88 104.846 231.894C106.423 231.894 107.618 230.768 108.407 228.862L165.383 77.5098H207.302L138.472 247.1C129.773 268.785 119.09 273.356 104.057 273.356V273.448ZM302.469 275.331C241.526 275.331 198.005 233.502 198.005 174.583C198.005 115.25 242.721 73.8115 304.429 73.8115C362.599 73.8115 404.136 112.218 404.136 165.441C404.185 172.732 403.384 180.005 401.746 187.125H250.225C243.055 187.125 239.566 190.157 239.566 196.313C239.566 217.239 266.07 241.565 304.094 241.565C328.232 241.565 352.347 233.203 363.03 213.058H402.2C387.168 255.645 347.997 275.4 302.517 275.4L302.469 275.331ZM238.371 157.079H357.055C358.088 157.184 359.132 157.072 360.115 156.75C361.098 156.429 361.997 155.906 362.749 155.218C363.502 154.53 364.09 153.693 364.472 152.765C364.855 151.837 365.023 150.84 364.965 149.844C364.965 129.699 341.233 106.498 304.835 106.498C268.843 106.498 243.103 126.276 238.371 157.033V157.079ZM549.802 77.5098V114.883H529.225C492.038 114.883 465.533 138.45 465.533 177.224V271.541H425.98V177.224C425.98 109.163 467.899 77.6017 529.225 77.6017L549.802 77.5098ZM557.808 25.275C558.018 18.5035 560.964 12.0766 566.021 7.35797C571.079 2.63929 577.85 0 584.898 0C591.947 0 598.718 2.63929 603.775 7.35797C608.833 12.0766 611.779 18.5035 611.988 25.275C612.096 28.7593 611.475 32.2289 610.162 35.4783C608.849 38.7277 606.871 41.6908 604.345 44.192C601.818 46.6932 598.796 48.6816 595.455 50.0394C592.115 51.3973 588.525 52.0969 584.898 52.0969C581.271 52.0969 577.682 51.3973 574.341 50.0394C571.001 48.6816 567.978 46.6932 565.452 44.192C562.926 41.6908 560.948 38.7277 559.635 35.4783C558.322 32.2289 557.701 28.7593 557.808 25.275V25.275ZM604.866 271.541H565.313V77.5098H604.866V271.541Z" fill="white"/>
</svg>